STARTFONT 2.1
COMMENT
COMMENT Converted from OpenType font "Helvetica.ttc" by "otf2bdf 3.0".
COMMENT
FONT -FreeType-Unknown-Medium-R-Normal--24-170-100-100-P-120-FontSpecific-0
SIZE 17 100 100
FONTBOUNDINGBOX 56 37 -22 -11
STARTPROPERTIES 19
FOUNDRY "FreeType"
FAMILY_NAME "Unknown"
WEIGHT_NAME "Medium"
SLANT "R"
SETWIDTH_NAME "Normal"
ADD_STYLE_NAME ""
PIXEL_SIZE 24
POINT_SIZE 170
RESOLUTION_X 100
RESOLUTION_Y 100
SPACING "P"
AVERAGE_WIDTH 120
CHARSET_REGISTRY "FontSpecific"
CHARSET_ENCODING "0"
FONT_ASCENT 18
FONT_DESCENT 5
COPYRIGHT "-FreeType-Unknown-Medium-R-Normal--24-170-100-100-P-120-FontSpecific-0"
_OTF_FONTFILE "Helvetica.ttc"
_OTF_PSNAME "-FreeType-Unknown-Medium-R-Normal--24-170-100-100-P-120-FontSpecific-0"
ENDPROPERTIES
CHARS 2251
STARTCHAR 0001
ENCODING 1
SWIDTH 0 0
DWIDTH 0 0
BBX 0 0 0 0
BITMAP
ENDCHAR
STARTCHAR 0002
ENCODING 2
SWIDTH 296 0
DWIDTH 7 0
BBX 0 0 0 0
BITMAP
ENDCHAR
STARTCHAR 0003
ENCODING 3
SWIDTH 296 0
DWIDTH 7 0
BBX 0 0 0 0
BITMAP
ENDCHAR
STARTCHAR 0004
ENCODING 4
SWIDTH 296 0
DWIDTH 7 0
BBX 2 17 3 0
BITMAP
C0
C0
C0
C0
C0
C0
C0
C0
C0
C0
C0
C0
C0
00
00
C0
C0
ENDCHAR
STARTCHAR 0005
ENCODING 5
SWIDTH 338 0
DWIDTH 8 0
BBX 6 7 1 10
BITMAP
CC
CC
CC
CC
CC
CC
CC
ENDCHAR
STARTCHAR 0006
ENCODING 6
SWIDTH 550 0
DWIDTH 13 0
BBX 13 17 0 0
BITMAP
0230
0620
0660
0660
0460
3FF8
0CC0
0CC0
08C0
1880
1980
FFF0
3100
3300
3300
2300
6200
ENDCHAR
STARTCHAR 0007
ENCODING 7
SWIDTH 550 0
DWIDTH 13 0
BBX 11 21 1 -2
BITMAP
0400
0400
1F00
7FC0
64C0
C4E0
C460
C400
E400
7F00
1FC0
05E0
0460
C460
C460
C460
E4E0
7FC0
1F00
0400
0400
ENDCHAR
STARTCHAR 0008
ENCODING 8
SWIDTH 889 0
DWIDTH 21 0
BBX 19 16 1 0
BITMAP
3C0400
7E0400
C70800
831800
831000
C73000
7E2000
3C4000
004780
008FC0
019C60
011860
031860
021C60
040FC0
0C0780
ENDCHAR
STARTCHAR 0009
ENCODING 9
SWIDTH 677 0
DWIDTH 16 0
BBX 14 17 1 0
BITMAP
0F00
1F80
39C0
30C0
30C0
3980
1F80
0E00
3E00
7310
E3B0
C1F0
C0E0
C070
E1F0
7F98
3F1C
ENDCHAR
STARTCHAR 000A
ENCODING 10
SWIDTH 211 0
DWIDTH 5 0
BBX 2 7 2 10
BITMAP
C0
C0
C0
C0
C0
C0
C0
ENDCHAR
STARTCHAR 000B
ENCODING 11
SWIDTH 338 0
DWIDTH 8 0
BBX 5 22 2 -5
BITMAP
18
10
30
60
60
60
C0
C0
C0
C0
C0
C0
C0
C0
C0
C0
60
60
60
30
10
18
ENDCHAR
STARTCHAR 000C
ENCODING 12
SWIDTH 338 0
DWIDTH 8 0
BBX 5 22 1 -5
BITMAP
80
40
60
60
30
30
38
18
18
18
18
18
18
18
18
18
30
30
60
60
40
C0
ENDCHAR
STARTCHAR 000D
ENCODING 13
SWIDTH 381 0
DWIDTH 9 0
BBX 7 6 1 10
BITMAP
10
F6
38
38
2C
64
ENDCHAR
STARTCHAR 000E
ENCODING 14
SWIDTH 592 0
DWIDTH 14 0
BBX 12 12 1 0
BITMAP
0600
0600
0600
0600
0600
FFF0
FFF0
0600
0600
0600
0600
0600
ENDCHAR
STARTCHAR 000F
ENCODING 15
SWIDTH 296 0
DWIDTH 7 0
BBX 2 6 2 -4
BITMAP
C0
C0
40
40
40
80
ENDCHAR
STARTCHAR 0010
ENCODING 16
SWIDTH 338 0
DWIDTH 8 0
BBX 6 2 1 6
BITMAP
FC
FC
ENDCHAR
STARTCHAR 0011
ENCODING 17
SWIDTH 296 0
DWIDTH 7 0
BBX 2 2 2 0
BITMAP
C0
C0
ENDCHAR
STARTCHAR 0012
ENCODING 18
SWIDTH 296 0
DWIDTH 7 0
BBX 7 17 0 0
BITMAP
06
06
04
0C
0C
08
18
18
10
30
30
30
60
60
60
C0
C0
ENDCHAR
STARTCHAR 0013
ENCODING 19
SWIDTH 550 0
DWIDTH 13 0
BBX 11 17 1 0
BITMAP
1F00
3F80
71C0
60C0
E0E0
C060
C060
C060
C060
C060
C060
C060
C0E0
E0C0
71C0
3F80
1F00
ENDCHAR
STARTCHAR 0014
ENCODING 20
SWIDTH 550 0
DWIDTH 13 0
BBX 6 17 2 0
BITMAP
04
0C
1C
FC
FC
0C
0C
0C
0C
0C
0C
0C
0C
0C
0C
0C
0C
ENDCHAR
STARTCHAR 0015
ENCODING 21
SWIDTH 550 0
DWIDTH 13 0
BBX 11 17 1 0
BITMAP
1F00
3FC0
71C0
E0E0
C060
C060
0060
00E0
03C0
0780
1E00
3800
7000
E000
C000
FFE0
FFE0
ENDCHAR
STARTCHAR 0016
ENCODING 22
SWIDTH 550 0
DWIDTH 13 0
BBX 11 17 1 0
BITMAP
1F00
7F80
E1C0
C0C0
C0C0
00C0
01C0
0F80
0FC0
01E0
0060
C060
C060
C0E0
E1C0
7FC0
3F00
ENDCHAR
STARTCHAR 0017
ENCODING 23
SWIDTH 550 0
DWIDTH 13 0
BBX 11 17 1 0
BITMAP
0180
0380
0780
0780
0D80
1980
1980
3180
6180
E180
C180
FFE0
FFE0
0180
0180
0180
0180
ENDCHAR
STARTCHAR 0018
ENCODING 24
SWIDTH 550 0
DWIDTH 13 0
BBX 11 17 1 0
BITMAP
3FC0
7FC0
6000
6000
6000
6000
7F00
7FC0
E1C0
00E0
0060
0060
0060
C0E0
E1C0
7F80
3F00
ENDCHAR
STARTCHAR 0019
ENCODING 25
SWIDTH 550 0
DWIDTH 13 0
BBX 11 17 1 0
BITMAP
0F80
3FC0
70E0
6060
6000
C000
CF00
DFC0
F0E0
E0E0
C060
C060
C060
E0E0
70C0
3FC0
1F00
ENDCHAR
STARTCHAR 001A
ENCODING 26
SWIDTH 550 0
DWIDTH 13 0
BBX 11 17 1 0
BITMAP
FFE0
FFE0
0060
00C0
0180
0180
0300
0700
0600
0E00
0C00
0C00
1C00
1800
1800
3800
3800
ENDCHAR
STARTCHAR 001B
ENCODING 27
SWIDTH 550 0
DWIDTH 13 0
BBX 11 17 1 0
BITMAP
1F00
3F80
61C0
E0C0
E0E0
E0C0
71C0
3F80
7FC0
E1C0
C0E0
C060
C060
C060
E0C0
7FC0
1F00
ENDCHAR
STARTCHAR 001C
ENCODING 28
SWIDTH 550 0
DWIDTH 13 0
BBX 11 17 1 0
BITMAP
1F00
7F80
71C0
C0C0
C0E0
C060
C0E0
C0E0
E1E0
7F60
1E60
00E0
00C0
C0C0
E180
7F80
3E00
ENDCHAR
STARTCHAR 001D
ENCODING 29
SWIDTH 296 0
DWIDTH 7 0
BBX 2 13 3 0
BITMAP
C0
C0
00
00
00
00
00
00
00
00
00
C0
C0
ENDCHAR
STARTCHAR 001E
ENCODING 30
SWIDTH 296 0
DWIDTH 7 0
BBX 2 17 3 -4
BITMAP
C0
C0
00
00
00
00
00
00
00
00
00
C0
C0
40
40
C0
80
ENDCHAR
STARTCHAR 001F
ENCODING 31
SWIDTH 592 0
DWIDTH 14 0
BBX 14 13 0 0
BITMAP
0004
003C
00F8
07C0
1F00
F800
E000
F800
3F00
07C0
01F8
003C
0004
ENDCHAR
STARTCHAR 0020
ENCODING 32
SWIDTH 592 0
DWIDTH 14 0
BBX 12 7 1 3
BITMAP
FFF0
FFF0
0000
0000
0000
FFF0
FFF0
ENDCHAR
STARTCHAR 0021
ENCODING 33
SWIDTH 592 0
DWIDTH 14 0
BBX 14 13 0 0
BITMAP
C000
F000
7E00
0F80
03F0
007C
001C
007C
03F0
0F80
7E00
F000
C000
ENDCHAR
STARTCHAR 0022
ENCODING 34
SWIDTH 550 0
DWIDTH 13 0
BBX 10 17 2 0
BITMAP
3F00
7F80
E1C0
C0C0
C0C0
00C0
0180
0380
0700
0E00
0C00
0C00
0C00
0000
0000
0C00
0C00
ENDCHAR
STARTCHAR 0023
ENCODING 35
SWIDTH 1016 0
DWIDTH 24 0
BBX 18 17 3 0
BITMAP
03F800
0E0600
300180
600080
41ECC0
C31C40
C61C40
861840
841840
8C18C0
843080
C63100
C3CE00
600000
300100
1C0700
07F800
ENDCHAR
STARTCHAR 0024
ENCODING 36
SWIDTH 677 0
DWIDTH 16 0
BBX 14 17 1 0
BITMAP
0300
0780
0780
0FC0
0CC0
0CC0
18E0
1860
1860
3070
3FF0
7FF0
6038
6018
E01C
C01C
C00C
ENDCHAR
STARTCHAR 0025
ENCODING 37
SWIDTH 677 0
DWIDTH 16 0
BBX 13 17 2 0
BITMAP
FFC0
FFE0
C070
C030
C030
C070
C060
FFC0
FFE0
C070
C038
C038
C038
C038
C070
FFE0
FFC0
ENDCHAR
STARTCHAR 0026
ENCODING 38
SWIDTH 720 0
DWIDTH 17 0
BBX 15 17 1 0
BITMAP
07E0
1FF8
3838
701C
600E
E006
E000
C000
C000
C000
E000
E006
600E
700C
383C
1FF8
07E0
ENDCHAR
STARTCHAR 0027
ENCODING 39
SWIDTH 720 0
DWIDTH 17 0
BBX 14 17 2 0
BITMAP
FFC0
FFE0
C070
C038
C018
C01C
C01C
C01C
C00C
C00C
C01C
C018
C018
C038
C070
FFE0
FF80
ENDCHAR
STARTCHAR 0028
ENCODING 40
SWIDTH 677 0
DWIDTH 16 0
BBX 13 17 2 0
BITMAP
FFF0
FFF0
C000
C000
C000
C000
C000
FFF0
FFF0
C000
C000
C000
C000
C000
C000
FFF8
FFF8
ENDCHAR
STARTCHAR 0029
ENCODING 41
SWIDTH 592 0
DWIDTH 14 0
BBX 12 17 2 0
BITMAP
FFF0
FFF0
C000
C000
C000
C000
C000
FFE0
FFE0
C000
C000
C000
C000
C000
C000
C000
C000
ENDCHAR
STARTCHAR 002A
ENCODING 42
SWIDTH 762 0
DWIDTH 18 0
BBX 16 17 1 0
BITMAP
07E0
1FF8
3C1C
700E
6006
6006
E000
E000
E0FF
E0FF
E007
E007
6007
700F
381F
1FF3
07E3
ENDCHAR
STARTCHAR 002B
ENCODING 43
SWIDTH 720 0
DWIDTH 17 0
BBX 13 17 2 0
BITMAP
C018
C018
C018
C018
C018
C018
C018
FFF8
FFF8
C018
C018
C018
C018
C018
C018
C018
C018
ENDCHAR
STARTCHAR 002C
ENCODING 44
SWIDTH 296 0
DWIDTH 7 0
BBX 3 17 2 0
BITMAP
E0
E0
E0
E0
E0
E0
E0
E0
E0
E0
E0
E0
E0
E0
E0
E0
E0
ENDCHAR
STARTCHAR 002D
ENCODING 45
SWIDTH 508 0
DWIDTH 12 0
BBX 10 17 0 0
BITMAP
00C0
00C0
00C0
00C0
00C0
00C0
00C0
00C0
00C0
00C0
00C0
E0C0
E0C0
E0C0
61C0
7F80
1F00
ENDCHAR
STARTCHAR 002E
ENCODING 46
SWIDTH 677 0
DWIDTH 16 0
BBX 13 17 2 0
BITMAP
C038
C070
C0E0
C1C0
C380
C700
CE00
DE00
FF00
F700
E380
C1C0
C0C0
C0E0
C070
C038
C038
ENDCHAR
STARTCHAR 002F
ENCODING 47
SWIDTH 550 0
DWIDTH 13 0
BBX 11 17 2 0
BITMAP
C000
C000
C000
C000
C000
C000
C000
C000
C000
C000
C000
C000
C000
C000
C000
FFE0
FFE0
ENDCHAR
STARTCHAR 0030
ENCODING 48
SWIDTH 847 0
DWIDTH 20 0
BBX 16 17 2 0
BITMAP
E007
F00F
F00F
F00F
D81B
D81B
D81B
CC33
CC33
CC33
C663
C663
C663
C3C3
C3C3
C3C3
C183
ENDCHAR
STARTCHAR 0031
ENCODING 49
SWIDTH 720 0
DWIDTH 17 0
BBX 13 17 2 0
BITMAP
E018
E018
F018
F818
D818
CC18
CC18
C618
C318
C318
C198
C198
C0D8
C078
C078
C038
C038
ENDCHAR
STARTCHAR 0032
ENCODING 50
SWIDTH 762 0
DWIDTH 18 0
BBX 16 17 1 0
BITMAP
07F0
1FF8
3C1E
700E
6007
E003
E003
C003
C003
C003
C003
E007
6007
700E
381C
1FF8
07E0
ENDCHAR
STARTCHAR 0033
ENCODING 51
SWIDTH 677 0
DWIDTH 16 0
BBX 13 17 2 0
BITMAP
FFC0
FFE0
C070
C030
C038
C038
C030
C070
FFE0
FFC0
C000
C000
C000
C000
C000
C000
C000
ENDCHAR
STARTCHAR 0034
ENCODING 52
SWIDTH 762 0
DWIDTH 18 0
BBX 16 17 1 -1
BITMAP
07F0
1FF8
3C1E
700E
6007
E003
C003
C003
C003
C003
C003
E003
6027
707E
3C1C
1FFE
07E7
ENDCHAR
STARTCHAR 0035
ENCODING 53
SWIDTH 720 0
DWIDTH 17 0
BBX 14 17 2 0
BITMAP
FFE0
FFF0
C038
C018
C01C
C018
C018
C038
FFF0
FFF0
C038
C018
C018
C018
C018
C01C
C01C
ENDCHAR
STARTCHAR 0036
ENCODING 54
SWIDTH 677 0
DWIDTH 16 0
BBX 14 17 1 0
BITMAP
0FC0
3FE0
7070
6038
6018
6018
7000
3F00
1FF0
01F8
0018
C01C
E01C
6018
7038
3FF0
0FC0
ENDCHAR
STARTCHAR 0037
ENCODING 55
SWIDTH 592 0
DWIDTH 14 0
BBX 14 17 0 0
BITMAP
FFFC
FFFC
0300
0300
0300
0300
0300
0300
0300
0300
0300
0300
0300
0300
0300
0300
0300
ENDCHAR
STARTCHAR 0038
ENCODING 56
SWIDTH 720 0
DWIDTH 17 0
BBX 13 17 2 0
BITMAP
C018
C018
C018
C018
C018
C018
C018
C018
C018
C018
C018
C018
E018
6038
7070
3FE0
0FC0
ENDCHAR
STARTCHAR 0039
ENCODING 57
SWIDTH 677 0
DWIDTH 16 0
BBX 14 17 1 0
BITMAP
C00C
E01C
E018
6018
7038
3030
3070
3870
1860
1CE0
1CE0
0CC0
0FC0
0F80
0780
0780
0300
ENDCHAR
STARTCHAR 003A
ENCODING 58
SWIDTH 931 0
DWIDTH 22 0
BBX 21 17 1 0
BITMAP
C07038
C0F038
E0F030
E0F030
60D870
61D870
719860
719C60
338CE0
330CC0
330CC0
3B06C0
1F07C0
1E0780
1E0780
1E0380
0C0380
ENDCHAR
STARTCHAR 003B
ENCODING 59
SWIDTH 677 0
DWIDTH 16 0
BBX 14 17 1 0
BITMAP
E01C
7038
3030
3870
1CE0
0CC0
0FC0
0780
0780
0780
0FC0
1CE0
1860
3870
7038
6018
E01C
ENDCHAR
STARTCHAR 003C
ENCODING 60
SWIDTH 677 0
DWIDTH 16 0
BBX 14 17 1 0
BITMAP
C00C
E01C
7038
3038
3870
1860
1CE0
0FC0
07C0
0780
0300
0300
0300
0300
0300
0300
0300
ENDCHAR
STARTCHAR 003D
ENCODING 61
SWIDTH 592 0
DWIDTH 14 0
BBX 13 17 1 0
BITMAP
FFF8
FFF8
0030
0070
00E0
01C0
0380
0300
0700
0E00
1C00
3800
3000
7000
E000
FFF8
FFF8
ENDCHAR
STARTCHAR 003E
ENCODING 62
SWIDTH 296 0
DWIDTH 7 0
BBX 5 22 1 -5
BITMAP
F8
F8
C0
C0
C0
C0
C0
C0
C0
C0
C0
C0
C0
C0
C0
C0
C0
C0
C0
C0
F8
F8
ENDCHAR
STARTCHAR 003F
ENCODING 63
SWIDTH 296 0
DWIDTH 7 0
BBX 8 17 -1 0
BITMAP
C0
60
60
20
30
30
18
18
18
0C
0C
04
06
06
03
03
01
ENDCHAR
STARTCHAR 0040
ENCODING 64
SWIDTH 296 0
DWIDTH 7 0
BBX 4 22 1 -5
BITMAP
F0
F0
30
30
30
30
30
30
30
30
30
30
30
30
30
30
30
30
30
30
F0
F0
ENDCHAR
STARTCHAR 0041
ENCODING 65
SWIDTH 465 0
DWIDTH 11 0
BBX 9 10 2 7
BITMAP
1800
1C00
3C00
3600
2600
6200
6300
C300
C180
8180
ENDCHAR
STARTCHAR 0042
ENCODING 66
SWIDTH 550 0
DWIDTH 13 0
BBX 13 1 0 -3
BITMAP
FFF8
ENDCHAR
STARTCHAR 0043
ENCODING 67
SWIDTH 338 0
DWIDTH 8 0
BBX 4 3 1 14
BITMAP
C0
60
30
ENDCHAR
STARTCHAR 0044
ENCODING 68
SWIDTH 550 0
DWIDTH 13 0
BBX 12 13 1 0
BITMAP
1F00
7FC0
60C0
60C0
00C0
0FC0
7FC0
F0C0
C0C0
C0C0
E3C0
7FF0
3C70
ENDCHAR
STARTCHAR 0045
ENCODING 69
SWIDTH 550 0
DWIDTH 13 0
BBX 11 17 1 0
BITMAP
C000
C000
C000
C000
CF00
DFC0
F0C0
E0E0
C060
C060
C060
C060
E060
E0E0
F0C0
DFC0
CF00
ENDCHAR
STARTCHAR 0046
ENCODING 70
SWIDTH 508 0
DWIDTH 12 0
BBX 10 13 1 0
BITMAP
1F00
3F80
71C0
E0C0
C000
C000
C000
C000
C0C0
E0C0
6180
7F80
1F00
ENDCHAR
STARTCHAR 0047
ENCODING 71
SWIDTH 550 0
DWIDTH 13 0
BBX 11 17 1 0
BITMAP
0060
0060
0060
0060
1E60
7F60
71E0
E0E0
C0E0
C060
C060
C060
C0E0
E0E0
61E0
7F60
1E60
ENDCHAR
STARTCHAR 0048
ENCODING 72
SWIDTH 550 0
DWIDTH 13 0
BBX 11 13 1 0
BITMAP
1F00
3FC0
70C0
E060
C060
FFE0
FFE0
C000
C000
E060
70C0
3FC0
1F00
ENDCHAR
STARTCHAR 0049
ENCODING 73
SWIDTH 296 0
DWIDTH 7 0
BBX 6 17 0 0
BITMAP
1C
3C
30
30
FC
FC
30
30
30
30
30
30
30
30
30
30
30
ENDCHAR
STARTCHAR 004A
ENCODING 74
SWIDTH 550 0
DWIDTH 13 0
BBX 11 18 1 -5
BITMAP
1E60
7F60
61E0
C0E0
C0E0
C060
C060
C060
C0E0
C0E0
E1E0
7F60
3EC0
00C0
C0C0
E1C0
7F80
3F00
ENDCHAR
STARTCHAR 004B
ENCODING 75
SWIDTH 550 0
DWIDTH 13 0
BBX 10 17 2 0
BITMAP
C000
C000
C000
C000
DF00
FF80
E180
C180
C1C0
C1C0
C1C0
C1C0
C1C0
C1C0
C1C0
C1C0
C1C0
ENDCHAR
STARTCHAR 004C
ENCODING 76
SWIDTH 211 0
DWIDTH 5 0
BBX 2 17 2 0
BITMAP
C0
C0
00
00
C0
C0
C0
C0
C0
C0
C0
C0
C0
C0
C0
C0
C0
ENDCHAR
STARTCHAR 004D
ENCODING 77
SWIDTH 211 0
DWIDTH 5 0
BBX 4 22 0 -5
BITMAP
30
30
00
00
00
30
30
30
30
30
30
30
30
30
30
30
30
30
30
70
E0
E0
ENDCHAR
STARTCHAR 004E
ENCODING 78
SWIDTH 508 0
DWIDTH 12 0
BBX 10 17 1 0
BITMAP
C000
C000
C000
C000
C1C0
C380
C700
CE00
CC00
DC00
FE00
E600
C700
C380
C180
C1C0
C0C0
ENDCHAR
STARTCHAR 004F
ENCODING 79
SWIDTH 211 0
DWIDTH 5 0
BBX 2 17 2 0
BITMAP
C0
C0
C0
C0
C0
C0
C0
C0
C0
C0
C0
C0
C0
C0
C0
C0
C0
ENDCHAR
STARTCHAR 0050
ENCODING 80
SWIDTH 847 0
DWIDTH 20 0
BBX 16 13 2 0
BITMAP
DE3C
FF7E
E3C7
C183
C183
C183
C183
C183
C183
C183
C183
C183
C183
ENDCHAR
STARTCHAR 0051
ENCODING 81
SWIDTH 550 0
DWIDTH 13 0
BBX 10 13 2 0
BITMAP
DF00
FF80
E180
C1C0
C1C0
C1C0
C1C0
C1C0
C1C0
C1C0
C1C0
C1C0
C1C0
ENDCHAR
STARTCHAR 0052
ENCODING 82
SWIDTH 550 0
DWIDTH 13 0
BBX 11 13 1 0
BITMAP
1F00
3F80
71C0
E0E0
C060
C060
C060
C060
C060
E0E0
61C0
7F80
1F00
ENDCHAR
STARTCHAR 0053
ENCODING 83
SWIDTH 550 0
DWIDTH 13 0
BBX 11 18 1 -5
BITMAP
CF00
DFC0
F0C0
E0E0
E060
C060
C060
C060
E060
E0E0
F1C0
DFC0
CF00
C000
C000
C000
C000
C000
ENDCHAR
STARTCHAR 0054
ENCODING 84
SWIDTH 550 0
DWIDTH 13 0
BBX 11 18 1 -5
BITMAP
1E60
7F60
61E0
E0E0
C0E0
C060
C060
C060
C0E0
C0E0
E1E0
7FE0
1EE0
00E0
00E0
00E0
00E0
00E0
ENDCHAR
STARTCHAR 0055
ENCODING 85
SWIDTH 338 0
DWIDTH 8 0
BBX 6 13 2 0
BITMAP
DC
FC
E0
C0
C0
C0
C0
C0
C0
C0
C0
C0
C0
ENDCHAR
STARTCHAR 0056
ENCODING 86
SWIDTH 508 0
DWIDTH 12 0
BBX 10 13 1 0
BITMAP
3E00
7F80
E180
C1C0
E000
7C00
3F80
03C0
00C0
C0C0
E1C0
7F80
3F00
ENDCHAR
STARTCHAR 0057
ENCODING 87
SWIDTH 296 0
DWIDTH 7 0
BBX 6 16 0 0
BITMAP
30
30
30
FC
FC
30
30
30
30
30
30
30
30
30
3C
1C
ENDCHAR
STARTCHAR 0058
ENCODING 88
SWIDTH 550 0
DWIDTH 13 0
BBX 10 13 1 0
BITMAP
E0C0
E0C0
E0C0
E0C0
E0C0
E0C0
E0C0
E0C0
E0C0
E0C0
61C0
7FC0
3EC0
ENDCHAR
STARTCHAR 0059
ENCODING 89
SWIDTH 508 0
DWIDTH 12 0
BBX 11 13 0 0
BITMAP
E060
6060
60E0
70C0
30C0
31C0
3980
1980
1B80
1B00
0F00
0E00
0600
ENDCHAR
STARTCHAR 005A
ENCODING 90
SWIDTH 720 0
DWIDTH 17 0
BBX 16 13 0 0
BITMAP
E1C3
61C3
61C3
6343
7366
3366
3266
3626
163C
1E3C
1E3C
1C18
0C18
ENDCHAR
STARTCHAR 005B
ENCODING 91
SWIDTH 508 0
DWIDTH 12 0
BBX 11 13 0 0
BITMAP
60E0
70C0
39C0
1980
1F00
0F00
0E00
0F00
1F80
3980
31C0
70C0
E0E0
ENDCHAR
STARTCHAR 005C
ENCODING 92
SWIDTH 508 0
DWIDTH 12 0
BBX 11 18 0 -5
BITMAP
E060
6060
60E0
70C0
30C0
30C0
3980
1980
1980
1F00
0F00
0F00
0E00
0600
0400
0C00
7800
7800
ENDCHAR
STARTCHAR 005D
ENCODING 93
SWIDTH 508 0
DWIDTH 12 0
BBX 10 13 1 0
BITMAP
FFC0
FFC0
0180
0300
0700
0E00
1C00
1800
3000
7000
E000
FFC0
FFC0
ENDCHAR
STARTCHAR 005E
ENCODING 94
SWIDTH 338 0
DWIDTH 8 0
BBX 8 22 -1 -5
BITMAP
03
0F
0E
0C
0C
0C
0C
18
38
F8
C0
F0
38
18
08
0C
0C
0C
0C
0E
07
03
ENDCHAR
STARTCHAR 005F
ENCODING 95
SWIDTH 254 0
DWIDTH 6 0
BBX 2 17 2 0
BITMAP
C0
C0
C0
C0
C0
C0
C0
C0
C0
C0
C0
C0
C0
C0
C0
C0
C0
ENDCHAR
STARTCHAR 0060
ENCODING 96
SWIDTH 338 0
DWIDTH 8 0
BBX 8 22 0 -5
BITMAP
E0
F0
38
18
18
18
18
18
0C
0F
01
07
0E
0C
18
18
18
18
18
38
F0
C0
ENDCHAR
STARTCHAR 0061
ENCODING 97
SWIDTH 592 0
DWIDTH 14 0
BBX 14 5 0 4
BITMAP
3C0C
7E0C
6798
41F8
C070
ENDCHAR
STARTCHAR 0062
ENCODING 98
SWIDTH 677 0
DWIDTH 16 0
BBX 14 20 1 0
BITMAP
0CC0
0CC0
0000
0300
0780
0780
0FC0
0CC0
0CC0
18E0
1860
1860
3070
3FF0
7FF0
6038
6018
E01C
C01C
C00C
ENDCHAR
STARTCHAR 0063
ENCODING 99
SWIDTH 677 0
DWIDTH 16 0
BBX 14 23 1 0
BITMAP
0300
0480
0480
0480
0780
0000
0300
0780
0780
0FC0
0CC0
0CC0
18E0
1860
1860
3070
3FF0
7FF0
6038
6018
E01C
C01C
C00C
ENDCHAR
STARTCHAR 0064
ENCODING 100
SWIDTH 720 0
DWIDTH 17 0
BBX 15 22 1 -5
BITMAP
07E0
1FF8
3838
701C
600E
E006
E000
C000
C000
C000
E000
E006
600E
700C
383C
1FF8
0FE0
0300
0380
00C0
00C0
0780
ENDCHAR
STARTCHAR 0065
ENCODING 101
SWIDTH 677 0
DWIDTH 16 0
BBX 13 21 2 0
BITMAP
0300
0600
0C00
0000
FFF0
FFF0
C000
C000
C000
C000
C000
FFF0
FFF0
C000
C000
C000
C000
C000
C000
FFF8
FFF8
ENDCHAR
STARTCHAR 0066
ENCODING 102
SWIDTH 720 0
DWIDTH 17 0
BBX 13 21 2 0
BITMAP
1F60
13C0
1080
0000
E018
E018
F018
F818
D818
CC18
CC18
C618
C318
C318
C198
C198
C0D8
C078
C078
C038
C038
ENDCHAR
STARTCHAR 0067
ENCODING 103
SWIDTH 762 0
DWIDTH 18 0
BBX 16 21 1 0
BITMAP
0760
0760
0000
0000
07F0
1FF8
3C1E
700E
6007
E003
E003
C003
C003
C003
C003
E007
6007
700E
381C
1FF8
07E0
ENDCHAR
STARTCHAR 0068
ENCODING 104
SWIDTH 720 0
DWIDTH 17 0
BBX 13 20 2 0
BITMAP
0CC0
0CC0
0000
C018
C018
C018
C018
C018
C018
C018
C018
C018
C018
C018
C018
E018
6038
7070
3FE0
0FC0
ENDCHAR
STARTCHAR 0069
ENCODING 105
SWIDTH 550 0
DWIDTH 13 0
BBX 12 17 1 0
BITMAP
0700
0C00
0800
0000
1F00
7FC0
60C0
60C0
00C0
0FC0
7FC0
F0C0
C0C0
C0C0
E3C0
7FF0
3C70
ENDCHAR
STARTCHAR 006A
ENCODING 106
SWIDTH 550 0
DWIDTH 13 0
BBX 12 17 1 0
BITMAP
1800
0C00
0600
0000
1F00
7FC0
60C0
60C0
00C0
0FC0
7FC0
F0C0
C0C0
C0C0
E3C0
7FF0
3C70
ENDCHAR
STARTCHAR 006B
ENCODING 107
SWIDTH 550 0
DWIDTH 13 0
BBX 12 17 1 0
BITMAP
0E00
1B00
1980
0000
1F00
7FC0
60C0
60C0
00C0
0FC0
7FC0
F0C0
C0C0
C0C0
E3C0
7FF0
3C70
ENDCHAR
STARTCHAR 006C
ENCODING 108
SWIDTH 550 0
DWIDTH 13 0
BBX 12 16 1 0
BITMAP
1B80
1B80
0000
1F00
7FC0
60C0
60C0
00C0
0FC0
7FC0
F0C0
C0C0
C0C0
E3C0
7FF0
3C70
ENDCHAR
STARTCHAR 006D
ENCODING 109
SWIDTH 550 0
DWIDTH 13 0
BBX 12 17 1 0
BITMAP
1CC0
2780
2380
0000
1F00
7FC0
60C0
60C0
00C0
0FC0
7FC0
F0C0
C0C0
C0C0
E3C0
7FF0
3C70
ENDCHAR
STARTCHAR 006E
ENCODING 110
SWIDTH 550 0
DWIDTH 13 0
BBX 12 19 1 0
BITMAP
0E00
1900
1100
1900
0E00
0000
1F00
7FC0
60C0
60C0
00C0
0FC0
7FC0
F0C0
C0C0
C0C0
E3C0
7FF0
3C70
ENDCHAR
STARTCHAR 006F
ENCODING 111
SWIDTH 508 0
DWIDTH 12 0
BBX 10 18 1 -5
BITMAP
1F00
3F80
71C0
E0C0
C000
C000
C000
C000
C0C0
E0C0
E180
7F80
3E00
0800
1E00
0600
0600
3C00
ENDCHAR
STARTCHAR 0070
ENCODING 112
SWIDTH 550 0
DWIDTH 13 0
BBX 11 17 1 0
BITMAP
0700
0E00
0C00
0000
1F00
3FC0
70C0
E060
C060
FFE0
FFE0
C000
C000
E060
70C0
3FC0
1F00
ENDCHAR
STARTCHAR 0071
ENCODING 113
SWIDTH 550 0
DWIDTH 13 0
BBX 11 17 1 0
BITMAP
1800
0C00
0600
0000
1F00
3FC0
70C0
E060
C060
FFE0
FFE0
C000
C000
E060
70C0
3FC0
1F00
ENDCHAR
STARTCHAR 0072
ENCODING 114
SWIDTH 550 0
DWIDTH 13 0
BBX 11 17 1 0
BITMAP
0E00
1B00
1980
0000
1F00
3FC0
70C0
E060
C060
FFE0
FFE0
C000
C000
E060
70C0
3FC0
1F00
ENDCHAR
STARTCHAR 0073
ENCODING 115
SWIDTH 550 0
DWIDTH 13 0
BBX 11 16 1 0
BITMAP
1980
1980
0000
1F00
3FC0
70C0
E060
C060
FFE0
FFE0
C000
C000
E060
70C0
3FC0
1F00
ENDCHAR
STARTCHAR 0074
ENCODING 116
SWIDTH 296 0
DWIDTH 7 0
BBX 3 17 2 0
BITMAP
60
C0
80
00
C0
C0
C0
C0
C0
C0
C0
C0
C0
C0
C0
C0
C0
ENDCHAR
STARTCHAR 0075
ENCODING 117
SWIDTH 296 0
DWIDTH 7 0
BBX 3 17 1 0
BITMAP
C0
60
20
00
60
60
60
60
60
60
60
60
60
60
60
60
60
ENDCHAR
STARTCHAR 0076
ENCODING 118
SWIDTH 296 0
DWIDTH 7 0
BBX 6 17 0 0
BITMAP
38
6C
C4
00
30
30
30
30
30
30
30
30
30
30
30
30
30
ENDCHAR
STARTCHAR 0077
ENCODING 119
SWIDTH 296 0
DWIDTH 7 0
BBX 6 16 0 0
BITMAP
EC
EC
00
30
30
30
30
30
30
30
30
30
30
30
30
30
ENDCHAR
STARTCHAR 0078
ENCODING 120
SWIDTH 550 0
DWIDTH 13 0
BBX 10 17 2 0
BITMAP
3880
6F80
4300
0000
DF00
FF80
E180
C1C0
C1C0
C1C0
C1C0
C1C0
C1C0
C1C0
C1C0
C1C0
C1C0
ENDCHAR
STARTCHAR 0079
ENCODING 121
SWIDTH 550 0
DWIDTH 13 0
BBX 11 17 1 0
BITMAP
0600
0C00
0800
0000
1F00
3F80
71C0
E0E0
C060
C060
C060
C060
C060
E0E0
61C0
7F80
1F00
ENDCHAR
STARTCHAR 007A
ENCODING 122
SWIDTH 550 0
DWIDTH 13 0
BBX 11 17 1 0
BITMAP
1800
0C00
0400
0000
1F00
3F80
71C0
E0E0
C060
C060
C060
C060
C060
E0E0
61C0
7F80
1F00
ENDCHAR
STARTCHAR 007B
ENCODING 123
SWIDTH 550 0
DWIDTH 13 0
BBX 11 17 1 0
BITMAP
0E00
1B00
1180
0000
1F00
3F80
71C0
E0E0
C060
C060
C060
C060
C060
E0E0
61C0
7F80
1F00
ENDCHAR
STARTCHAR 007C
ENCODING 124
SWIDTH 550 0
DWIDTH 13 0
BBX 11 16 1 0
BITMAP
1B80
1B80
0000
1F00
3F80
71C0
E0E0
C060
C060
C060
C060
C060
E0E0
61C0
7F80
1F00
ENDCHAR
STARTCHAR 007D
ENCODING 125
SWIDTH 550 0
DWIDTH 13 0
BBX 11 17 1 0
BITMAP
1CC0
2780
2380
0000
1F00
3F80
71C0
E0E0
C060
C060
C060
C060
C060
E0E0
61C0
7F80
1F00
ENDCHAR
STARTCHAR 007E
ENCODING 126
SWIDTH 550 0
DWIDTH 13 0
BBX 10 17 1 0
BITMAP
0600
0C00
0800
0000
E0C0
E0C0
E0C0
E0C0
E0C0
E0C0
E0C0
E0C0
E0C0
E0C0
61C0
7FC0
3EC0
ENDCHAR
STARTCHAR 007F
ENCODING 127
SWIDTH 550 0
DWIDTH 13 0
BBX 10 17 1 0
BITMAP
1800
0C00
0600
0000
E0C0
E0C0
E0C0
E0C0
E0C0
E0C0
E0C0
E0C0
E0C0
E0C0
61C0
7FC0
3EC0
ENDCHAR
STARTCHAR 0080
ENCODING 128
SWIDTH 550 0
DWIDTH 13 0
BBX 10 17 1 0
BITMAP
0E00
1B00
1180
0000
E0C0
E0C0
E0C0
E0C0
E0C0
E0C0
E0C0
E0C0
E0C0
E0C0
61C0
7FC0
3EC0
ENDCHAR
STARTCHAR 0081
ENCODING 129
SWIDTH 550 0
DWIDTH 13 0
BBX 10 16 1 0
BITMAP
1B80
1B80
0000
E0C0
E0C0
E0C0
E0C0
E0C0
E0C0
E0C0
E0C0
E0C0
E0C0
61C0
7FC0
3EC0
ENDCHAR
STARTCHAR 0082
ENCODING 130
SWIDTH 550 0
DWIDTH 13 0
BBX 11 21 1 -4
BITMAP
0E00
0E00
0E00
0E00
0E00
FFE0
FFE0
0E00
0E00
0E00
0E00
0E00
0E00
0E00
0E00
0E00
0E00
0E00
0E00
0E00
0E00
ENDCHAR
STARTCHAR 0083
ENCODING 131
SWIDTH 381 0
DWIDTH 9 0
BBX 7 7 1 10
BITMAP
3C
46
C2
C2
C2
46
3C
ENDCHAR
STARTCHAR 0084
ENCODING 132
SWIDTH 550 0
DWIDTH 13 0
BBX 11 17 1 -2
BITMAP
0100
0100
1F00
3FC0
72E0
6260
E200
C400
C400
C400
E460
6860
78C0
3F80
1F00
1000
1000
ENDCHAR
STARTCHAR 0085
ENCODING 133
SWIDTH 550 0
DWIDTH 13 0
BBX 11 17 1 0
BITMAP
1F80
3FC0
70E0
E060
E060
E000
6000
7000
FF00
3000
1800
1000
3000
2000
5E20
FFE0
43E0
ENDCHAR
STARTCHAR 0086
ENCODING 134
SWIDTH 550 0
DWIDTH 13 0
BBX 11 22 1 -5
BITMAP
1F00
3F80
71C0
60C0
7000
3800
3E00
6F00
C380
C1C0
C0E0
E060
7060
3C60
1EC0
0780
0380
00C0
60C0
71C0
3F80
1F00
ENDCHAR
STARTCHAR 0087
ENCODING 135
SWIDTH 338 0
DWIDTH 8 0
BBX 5 5 2 6
BITMAP
70
F8
F8
F8
70
ENDCHAR
STARTCHAR 0088
ENCODING 136
SWIDTH 550 0
DWIDTH 13 0
BBX 12 21 0 -4
BITMAP
1FF0
7C60
7C60
FC60
FC60
FC60
FC60
FC60
7C60
7C60
3C60
0460
0460
0460
0460
0460
0460
0460
0460
0460
0460
ENDCHAR
STARTCHAR 0089
ENCODING 137
SWIDTH 592 0
DWIDTH 14 0
BBX 11 17 2 0
BITMAP
1F00
7F80
61C0
E0C0
C0C0
C0C0
C180
CF00
CF80
C1C0
C0E0
C060
C060
C0C0
C1C0
CF80
CF00
ENDCHAR
STARTCHAR 008A
ENCODING 138
SWIDTH 720 0
DWIDTH 17 0
BBX 17 17 0 0
BITMAP
03F000
0C1C00
100600
200300
67F100
463180
C61080
C63080
87E080
863080
C61080
461180
661100
200300
100600
0C1800
03F000
ENDCHAR
STARTCHAR 008B
ENCODING 139
SWIDTH 720 0
DWIDTH 17 0
BBX 17 17 0 0
BITMAP
03F000
0C1C00
100600
21E300
661100
461980
CC0080
8C0080
8C0080
CC0080
C61880
461180
61E100
200300
100600
0C1800
03F000
ENDCHAR
STARTCHAR 008C
ENCODING 140
SWIDTH 1016 0
DWIDTH 24 0
BBX 17 8 3 9
BITMAP
FEE180
30E380
30F280
30D280
30D680
30DC80
30CC80
30CC80
ENDCHAR
STARTCHAR 008D
ENCODING 141
SWIDTH 338 0
DWIDTH 8 0
BBX 4 3 2 14
BITMAP
70
60
C0
ENDCHAR
STARTCHAR 008E
ENCODING 142
SWIDTH 338 0
DWIDTH 8 0
BBX 6 2 1 14
BITMAP
CC
CC
ENDCHAR
STARTCHAR 008F
ENCODING 143
SWIDTH 550 0
DWIDTH 13 0
BBX 12 13 1 0
BITMAP
00C0
0180
0180
FFF0
FFF0
0700
0600
0600
FFF0
FFF0
1800
1800
3800
ENDCHAR
STARTCHAR 0090
ENCODING 144
SWIDTH 1016 0
DWIDTH 24 0
BBX 22 17 0 0
BITMAP
01FFFC
03FFFC
031800
031800
071800
061800
0E1800
0C1FF8
0C1FF8
1C1800
1FF800
3FF800
301800
301800
701800
601FFC
E01FFC
ENDCHAR
STARTCHAR 0091
ENCODING 145
SWIDTH 762 0
DWIDTH 18 0
BBX 16 17 1 0
BITMAP
07E1
1FFB
3C1E
700E
601F
E033
E063
C0C3
C183
C303
C203
E407
6807
700E
3C1C
5FF8
87E0
ENDCHAR
STARTCHAR 0092
ENCODING 146
SWIDTH 720 0
DWIDTH 17 0
BBX 16 9 0 4
BITMAP
3C3C
7E7E
6363
41C3
C183
41C3
6363
7E7E
3C3C
ENDCHAR
STARTCHAR 0093
ENCODING 147
SWIDTH 550 0
DWIDTH 13 0
BBX 12 13 1 0
BITMAP
0600
0600
0600
0600
FFF0
FFF0
0600
0600
0600
0600
0000
FFF0
FFF0
ENDCHAR
STARTCHAR 0094
ENCODING 148
SWIDTH 550 0
DWIDTH 13 0
BBX 12 12 1 1
BITMAP
0070
07F0
3F80
FC00
E000
FC00
3F80
07F0
0070
0000
FFF0
FFF0
ENDCHAR
STARTCHAR 0095
ENCODING 149
SWIDTH 550 0
DWIDTH 13 0
BBX 12 12 1 1
BITMAP
E000
FE00
1FC0
03F0
0030
03F0
1FC0
FE00
E000
0000
FFF0
FFF0
ENDCHAR
STARTCHAR 0096
ENCODING 150
SWIDTH 550 0
DWIDTH 13 0
BBX 13 17 0 0
BITMAP
C038
E030
7070
3060
38E0
18C0
7DF0
7DF0
0F80
0700
7FF0
7FF0
0700
0700
0700
0700
0700
ENDCHAR
STARTCHAR 0097
ENCODING 151
SWIDTH 592 0
DWIDTH 14 0
BBX 14 18 -1 -5
BITMAP
0C1C
0C18
1818
1818
1818
1838
3830
3030
3030
3070
30B0
7FE0
6E60
6000
6000
6000
E000
C000
ENDCHAR
STARTCHAR 0098
ENCODING 152
SWIDTH 508 0
DWIDTH 12 0
BBX 11 17 1 0
BITMAP
0F00
0F80
01C0
00C0
00C0
00E0
0060
1E60
3F60
71E0
60E0
E0C0
C0C0
E1C0
7380
7F00
3E00
ENDCHAR
STARTCHAR 0099
ENCODING 153
SWIDTH 720 0
DWIDTH 17 0
BBX 14 20 0 -3
BITMAP
7FF8
7FF8
7000
3800
1C00
0E00
0600
0300
0380
01C0
01C0
0380
0300
0600
0E00
1C00
3800
7000
FFFC
FFFC
ENDCHAR
STARTCHAR 009A
ENCODING 154
SWIDTH 804 0
DWIDTH 19 0
BBX 17 20 0 -3
BITMAP
FFFF80
FFFF80
380E00
380E00
380E00
380E00
380E00
380E00
380E00
380E00
380E00
380E00
380E00
380E00
380E00
380E00
380E00
380E00
380E00
380E00
ENDCHAR
STARTCHAR 009B
ENCODING 155
SWIDTH 550 0
DWIDTH 13 0
BBX 13 12 1 0
BITMAP
FFF8
FFF8
6060
6060
6060
6060
6060
6060
6060
6060
6078
6038
ENDCHAR
STARTCHAR 009C
ENCODING 156
SWIDTH 254 0
DWIDTH 6 0
BBX 10 23 -2 -5
BITMAP
01C0
03C0
0600
0600
0600
0600
0E00
0E00
0E00
0E00
0C00
0C00
0C00
0C00
0C00
0C00
0C00
0C00
0C00
1C00
1800
7800
F000
ENDCHAR
STARTCHAR 009D
ENCODING 157
SWIDTH 381 0
DWIDTH 9 0
BBX 7 7 1 10
BITMAP
7C
C4
0C
FC
C4
CC
F6
ENDCHAR
STARTCHAR 009E
ENCODING 158
SWIDTH 381 0
DWIDTH 9 0
BBX 7 7 1 10
BITMAP
7C
C6
86
86
86
C4
7C
ENDCHAR
STARTCHAR 009F
ENCODING 159
SWIDTH 762 0
DWIDTH 18 0
BBX 16 17 1 0
BITMAP
07F0
1FF8
3C1C
700E
6007
6003
E003
E003
E003
E003
6003
6007
3006
380C
1C18
FE3F
FE3F
ENDCHAR
STARTCHAR 00A0
ENCODING 160
SWIDTH 889 0
DWIDTH 21 0
BBX 19 13 1 0
BITMAP
3F1F00
7FBFC0
61E1C0
C0C0E0
00C060
3FFFE0
7EFFE0
E0C000
C0C000
C0C060
E3E0C0
FF3F80
3C1F00
ENDCHAR
STARTCHAR 00A1
ENCODING 161
SWIDTH 592 0
DWIDTH 14 0
BBX 12 13 1 0
BITMAP
0F90
3FE0
70E0
60E0
61F0
E330
C230
C430
E870
7060
70E0
7FC0
9F80
ENDCHAR
STARTCHAR 00A2
ENCODING 162
SWIDTH 592 0
DWIDTH 14 0
BBX 10 17 2 -4
BITMAP
0E00
0E00
0000
0000
0C00
0C00
0C00
1C00
1800
3000
6000
E000
C0C0
E0C0
E1C0
7F80
1F00
ENDCHAR
STARTCHAR 00A3
ENCODING 163
SWIDTH 338 0
DWIDTH 8 0
BBX 2 17 3 -4
BITMAP
C0
C0
00
00
80
C0
C0
C0
C0
C0
C0
C0
C0
C0
C0
C0
C0
ENDCHAR
STARTCHAR 00A4
ENCODING 164
SWIDTH 592 0
DWIDTH 14 0
BBX 12 7 1 2
BITMAP
FFF0
FFF0
0030
0030
0030
0030
0030
ENDCHAR
STARTCHAR 00A5
ENCODING 165
SWIDTH 550 0
DWIDTH 13 0
BBX 15 22 0 0
BITMAP
0006
0006
0004
000C
000C
0008
0018
0018
0010
0030
1030
7020
D860
1860
1840
0CC0
0CC0
0480
0780
0780
0300
0300
ENDCHAR
STARTCHAR 00A6
ENCODING 166
SWIDTH 550 0
DWIDTH 13 0
BBX 11 22 1 -5
BITMAP
00E0
01E0
0380
0300
0300
0700
3FC0
3FC0
0600
0600
0E00
0E00
0C00
0C00
0C00
0C00
1C00
1800
1800
3800
F000
E000
ENDCHAR
STARTCHAR 00A7
ENCODING 167
SWIDTH 550 0
DWIDTH 13 0
BBX 12 8 1 2
BITMAP
7800
FE10
C7F0
81E0
7800
FE10
C7F0
01E0
ENDCHAR
STARTCHAR 00A8
ENCODING 168
SWIDTH 592 0
DWIDTH 14 0
BBX 15 17 1 0
BITMAP
0380
0380
07C0
06C0
06C0
0CE0
0C60
0C60
1830
1830
1830
3018
3018
301C
600C
7FFC
FFFE
ENDCHAR
STARTCHAR 00A9
ENCODING 169
SWIDTH 550 0
DWIDTH 13 0
BBX 9 7 2 3
BITMAP
1080
7380
E700
8400
E700
7380
1080
ENDCHAR
STARTCHAR 00AA
ENCODING 170
SWIDTH 550 0
DWIDTH 13 0
BBX 9 7 2 3
BITMAP
8400
E700
7380
1180
7380
E700
8400
ENDCHAR
STARTCHAR 00AB
ENCODING 171
SWIDTH 1016 0
DWIDTH 24 0
BBX 18 2 3 0
BITMAP
C0C1C0
C0C1C0
ENDCHAR
STARTCHAR 00AC
ENCODING 172
SWIDTH 296 0
DWIDTH 7 0
BBX 0 0 0 0
BITMAP
ENDCHAR
STARTCHAR 00AD
ENCODING 173
SWIDTH 677 0
DWIDTH 16 0
BBX 14 21 1 0
BITMAP
0E00
0600
0300
0000
0300
0780
0780
0FC0
0CC0
0CC0
18E0
1860
1860
3070
3FF0
7FF0
6038
6018
E01C
C01C
C00C
ENDCHAR
STARTCHAR 00AE
ENCODING 174
SWIDTH 677 0
DWIDTH 16 0
BBX 14 21 1 0
BITMAP
0F60
11E0
10C0
0000
0300
0780
0780
0FC0
0CC0
0CC0
18E0
1860
1860
3070
3FF0
7FF0
6038
6018
E01C
C01C
C00C
ENDCHAR
STARTCHAR 00AF
ENCODING 175
SWIDTH 762 0
DWIDTH 18 0
BBX 16 22 1 0
BITMAP
0310
05F0
0CF0
0000
0000
07F0
1FF8
3C1E
700E
6007
E003
E003
C003
C003
C003
C003
E007
6007
700E
381C
1FF8
07E0
ENDCHAR
STARTCHAR 00B0
ENCODING 176
SWIDTH 1016 0
DWIDTH 24 0
BBX 22 17 1 0
BITMAP
0FDFFC
1FFFFC
383C00
701C00
601C00
E01C00
C01C00
C01FF8
C01FF8
C01C00
C01C00
E01C00
E01C00
701C00
383C00
1FFFFC
0FDFFC
ENDCHAR
STARTCHAR 00B1
ENCODING 177
SWIDTH 931 0
DWIDTH 22 0
BBX 20 13 1 0
BITMAP
1F0F80
3FDFE0
71F870
E0F030
C06030
C07FF0
C07FF0
C06000
C06000
E0F030
71F870
3F9FE0
1F0F80
ENDCHAR
STARTCHAR 00B2
ENCODING 178
SWIDTH 550 0
DWIDTH 13 0
BBX 13 2 0 6
BITMAP
FFF8
FFF8
ENDCHAR
STARTCHAR 00B3
ENCODING 179
SWIDTH 1016 0
DWIDTH 24 0
BBX 18 2 3 6
BITMAP
FFFFC0
FFFFC0
ENDCHAR
STARTCHAR 00B4
ENCODING 180
SWIDTH 338 0
DWIDTH 8 0
BBX 6 6 1 11
BITMAP
44
C8
88
88
CC
CC
ENDCHAR
STARTCHAR 00B5
ENCODING 181
SWIDTH 338 0
DWIDTH 8 0
BBX 6 6 1 11
BITMAP
CC
CC
44
44
4C
88
ENDCHAR
STARTCHAR 00B6
ENCODING 182
SWIDTH 211 0
DWIDTH 5 0
BBX 2 6 2 11
BITMAP
40
80
80
80
C0
C0
ENDCHAR
STARTCHAR 00B7
ENCODING 183
SWIDTH 211 0
DWIDTH 5 0
BBX 2 6 2 11
BITMAP
C0
C0
40
40
40
80
ENDCHAR
STARTCHAR 00B8
ENCODING 184
SWIDTH 550 0
DWIDTH 13 0
BBX 12 12 1 0
BITMAP
0600
0600
0000
0000
0000
FFF0
FFF0
0000
0000
0000
0600
0600
ENDCHAR
STARTCHAR 00B9
ENCODING 185
SWIDTH 508 0
DWIDTH 12 0
BBX 10 17 1 0
BITMAP
0800
0C00
1C00
1E00
3300
2300
6180
C080
C0C0
C080
6180
2300
3300
1E00
1C00
0C00
0800
ENDCHAR
STARTCHAR 00BA
ENCODING 186
SWIDTH 508 0
DWIDTH 12 0
BBX 11 21 0 -5
BITMAP
1980
1980
0000
E060
6060
60E0
70C0
30C0
30C0
3980
1980
1980
1F00
0F00
0F00
0E00
0600
0400
0C00
7800
7800
ENDCHAR
STARTCHAR 00BB
ENCODING 187
SWIDTH 677 0
DWIDTH 16 0
BBX 14 20 1 0
BITMAP
0CC0
0CC0
0000
C00C
E01C
7038
3038
3870
1860
1CE0
0FC0
07C0
0780
0300
0300
0300
0300
0300
0300
0300
ENDCHAR
STARTCHAR 00BC
ENCODING 188
SWIDTH 169 0
DWIDTH 4 0
BBX 11 17 -4 0
BITMAP
0020
0060
0040
00C0
0080
0180
0300
0200
0600
0400
0C00
1800
1000
3000
2000
6000
C000
ENDCHAR
STARTCHAR 00BD
ENCODING 189
SWIDTH 762 0
DWIDTH 18 0
BBX 15 17 1 0
BITMAP
01F0
07F8
0E1C
0C0E
1C06
1806
FFE0
FFE0
1800
FFE0
FFE2
1806
1806
0C0E
0E1C
07F8
01F0
ENDCHAR
STARTCHAR 00BE
ENCODING 190
SWIDTH 338 0
DWIDTH 8 0
BBX 4 7 2 3
BITMAP
10
70
E0
80
E0
70
10
ENDCHAR
STARTCHAR 00BF
ENCODING 191
SWIDTH 338 0
DWIDTH 8 0
BBX 4 7 2 3
BITMAP
80
C0
70
30
70
C0
80
ENDCHAR
STARTCHAR 00C0
ENCODING 192
SWIDTH 508 0
DWIDTH 12 0
BBX 10 17 0 0
BITMAP
1CC0
3CC0
3000
3000
FCC0
FCC0
30C0
30C0
30C0
30C0
30C0
30C0
30C0
30C0
30C0
30C0
30C0
ENDCHAR
STARTCHAR 00C1
ENCODING 193
SWIDTH 508 0
DWIDTH 12 0
BBX 10 17 0 0
BITMAP
1CC0
3CC0
30C0
30C0
FCC0
FCC0
30C0
30C0
30C0
30C0
30C0
30C0
30C0
30C0
30C0
30C0
30C0
ENDCHAR
STARTCHAR 00C2
ENCODING 194
SWIDTH 550 0
DWIDTH 13 0
BBX 11 21 1 -4
BITMAP
0E00
0E00
0E00
0E00
FFE0
FFE0
0E00
0E00
0E00
0E00
0E00
0E00
0E00
0E00
FFE0
FFE0
0E00
0E00
0E00
0E00
0E00
ENDCHAR
STARTCHAR 00C3
ENCODING 195
SWIDTH 296 0
DWIDTH 7 0
BBX 3 3 2 7
BITMAP
C0
E0
C0
ENDCHAR
STARTCHAR 00C4
ENCODING 196
SWIDTH 211 0
DWIDTH 5 0
BBX 2 6 2 -4
BITMAP
C0
C0
40
40
40
80
ENDCHAR
STARTCHAR 00C5
ENCODING 197
SWIDTH 338 0
DWIDTH 8 0
BBX 6 6 1 -4
BITMAP
CC
CC
44
44
4C
88
ENDCHAR
STARTCHAR 00C6
ENCODING 198
SWIDTH 1016 0
DWIDTH 24 0
BBX 23 18 0 -1
BITMAP
3C1800
7E1000
C63000
C32000
C66000
7E4000
3C8000
008000
010000
010000
02783C
06FC7E
0486C6
0D86C2
0986C6
18FC7E
10783C
300000
ENDCHAR
STARTCHAR 00C7
ENCODING 199
SWIDTH 677 0
DWIDTH 16 0
BBX 14 21 1 0
BITMAP
0780
04C0
0CC0
0000
0300
0780
0780
0FC0
0CC0
0CC0
18E0
1860
1860
3070
3FF0
7FF0
6038
6018
E01C
C01C
C00C
ENDCHAR
STARTCHAR 00C8
ENCODING 200
SWIDTH 677 0
DWIDTH 16 0
BBX 13 21 2 0
BITMAP
0700
0D80
18C0
0000
FFF0
FFF0
C000
C000
C000
C000
C000
FFF0
FFF0
C000
C000
C000
C000
C000
C000
FFF8
FFF8
ENDCHAR
STARTCHAR 00C9
ENCODING 201
SWIDTH 677 0
DWIDTH 16 0
BBX 14 21 1 0
BITMAP
0380
0300
0600
0000
0300
0780
0780
0FC0
0CC0
0CC0
18E0
1860
1860
3070
3FF0
7FF0
6038
6018
E01C
C01C
C00C
ENDCHAR
STARTCHAR 00CA
ENCODING 202
SWIDTH 677 0
DWIDTH 16 0
BBX 13 20 2 0
BITMAP
1D80
1D80
0000
FFF0
FFF0
C000
C000
C000
C000
C000
FFF0
FFF0
C000
C000
C000
C000
C000
C000
FFF8
FFF8
ENDCHAR
STARTCHAR 00CB
ENCODING 203
SWIDTH 677 0
DWIDTH 16 0
BBX 13 21 2 0
BITMAP
1C00
0600
0300
0000
FFF0
FFF0
C000
C000
C000
C000
C000
FFF0
FFF0
C000
C000
C000
C000
C000
C000
FFF8
FFF8
ENDCHAR
STARTCHAR 00CC
ENCODING 204
SWIDTH 296 0
DWIDTH 7 0
BBX 3 22 2 0
BITMAP
60
E0
C0
00
00
E0
E0
E0
E0
E0
E0
E0
E0
E0
E0
E0
E0
E0
E0
E0
E0
E0
ENDCHAR
STARTCHAR 00CD
ENCODING 205
SWIDTH 296 0
DWIDTH 7 0
BBX 6 22 0 0
BITMAP
38
6C
4C
80
00
38
38
38
38
38
38
38
38
38
38
38
38
38
38
38
38
38
ENDCHAR
STARTCHAR 00CE
ENCODING 206
SWIDTH 296 0
DWIDTH 7 0
BBX 6 21 0 0
BITMAP
EC
EC
00
00
38
38
38
38
38
38
38
38
38
38
38
38
38
38
38
38
38
ENDCHAR
STARTCHAR 00CF
ENCODING 207
SWIDTH 296 0
DWIDTH 7 0
BBX 4 22 0 0
BITMAP
E0
70
30
00
00
30
30
30
30
30
30
30
30
30
30
30
30
30
30
30
30
30
ENDCHAR
STARTCHAR 00D0
ENCODING 208
SWIDTH 762 0
DWIDTH 18 0
BBX 16 22 1 0
BITMAP
00C0
0180
0300
0000
0000
07F0
1FF8
3C1E
700E
6007
E003
E003
C003
C003
C003
C003
E007
6007
700E
381C
1FF8
07E0
ENDCHAR
STARTCHAR 00D1
ENCODING 209
SWIDTH 762 0
DWIDTH 18 0
BBX 16 22 1 0
BITMAP
01C0
0340
0660
0000
0000
07F0
1FF8
3C1E
700E
6007
E003
E003
C003
C003
C003
C003
E007
6007
700E
381C
1FF8
07E0
ENDCHAR
STARTCHAR 00D2
ENCODING 210
SWIDTH 804 0
DWIDTH 19 0
BBX 16 20 1 -1
BITMAP
0010
0070
0070
00E0
00C0
1F7E
3FFF
7FFE
7FFE
FFFC
FFFC
FFFC
FFFC
FFFE
7FFF
7FFF
3FFF
3FFE
1FFE
0E3C
ENDCHAR
STARTCHAR 00D3
ENCODING 211
SWIDTH 762 0
DWIDTH 18 0
BBX 16 22 1 0
BITMAP
0700
0300
0180
0000
0000
07F0
1FF8
3C1E
700E
6007
E003
E003
C003
C003
C003
C003
E007
6007
700E
381C
1FF8
07E0
ENDCHAR
STARTCHAR 00D4
ENCODING 212
SWIDTH 720 0
DWIDTH 17 0
BBX 13 21 2 0
BITMAP
0380
0600
0400
0000
C018
C018
C018
C018
C018
C018
C018
C018
C018
C018
C018
C018
E018
6038
7070
3FE0
0FC0
ENDCHAR
STARTCHAR 00D5
ENCODING 213
SWIDTH 720 0
DWIDTH 17 0
BBX 13 21 2 0
BITMAP
0780
0D80
08C0
0000
C018
C018
C018
C018
C018
C018
C018
C018
C018
C018
C018
C018
E018
6038
7070
3FE0
0FC0
ENDCHAR
STARTCHAR 00D6
ENCODING 214
SWIDTH 720 0
DWIDTH 17 0
BBX 13 21 2 0
BITMAP
0E00
0600
0300
0000
C018
C018
C018
C018
C018
C018
C018
C018
C018
C018
C018
C018
E018
6038
7070
3FE0
0FC0
ENDCHAR
STARTCHAR 00D7
ENCODING 215
SWIDTH 296 0
DWIDTH 7 0
BBX 2 13 2 0
BITMAP
C0
C0
C0
C0
C0
C0
C0
C0
C0
C0
C0
C0
C0
ENDCHAR
STARTCHAR 00D8
ENCODING 216
SWIDTH 338 0
DWIDTH 8 0
BBX 6 3 1 14
BITMAP
70
78
CC
ENDCHAR
STARTCHAR 00D9
ENCODING 217
SWIDTH 338 0
DWIDTH 8 0
BBX 8 3 0 14
BITMAP
71
9F
8E
ENDCHAR
STARTCHAR 00DA
ENCODING 218
SWIDTH 338 0
DWIDTH 8 0
BBX 8 1 0 15
BITMAP
FF
ENDCHAR
STARTCHAR 00DB
ENCODING 219
SWIDTH 338 0
DWIDTH 8 0
BBX 7 3 0 14
BITMAP
C2
42
3C
ENDCHAR
STARTCHAR 00DC
ENCODING 220
SWIDTH 338 0
DWIDTH 8 0
BBX 2 2 3 14
BITMAP
C0
C0
ENDCHAR
STARTCHAR 00DD
ENCODING 221
SWIDTH 338 0
DWIDTH 8 0
BBX 4 5 2 14
BITMAP
E0
90
90
90
E0
ENDCHAR
STARTCHAR 00DE
ENCODING 222
SWIDTH 338 0
DWIDTH 8 0
BBX 5 5 1 -5
BITMAP
20
78
08
18
F8
ENDCHAR
STARTCHAR 00DF
ENCODING 223
SWIDTH 338 0
DWIDTH 8 0
BBX 7 3 0 14
BITMAP
76
66
CC
ENDCHAR
STARTCHAR 00E0
ENCODING 224
SWIDTH 338 0
DWIDTH 8 0
BBX 4 5 2 -5
BITMAP
60
C0
C0
F0
70
ENDCHAR
STARTCHAR 00E1
ENCODING 225
SWIDTH 338 0
DWIDTH 8 0
BBX 6 3 1 14
BITMAP
CC
78
70
ENDCHAR
STARTCHAR 00E2
ENCODING 226
SWIDTH 550 0
DWIDTH 13 0
BBX 13 17 0 0
BITMAP
3000
3000
3000
3000
3000
3300
3600
3C00
7000
F000
B000
3000
3000
3000
3000
3FF8
3FF8
ENDCHAR
STARTCHAR 00E3
ENCODING 227
SWIDTH 211 0
DWIDTH 5 0
BBX 6 17 0 0
BITMAP
30
30
30
30
30
30
3C
38
70
F0
B0
30
30
30
30
30
30
ENDCHAR
STARTCHAR 00E4
ENCODING 228
SWIDTH 677 0
DWIDTH 16 0
BBX 14 22 1 0
BITMAP
0CC0
0780
0380
0000
0000
0FC0
3FE0
7070
6038
6018
6018
7000
3F00
1FF0
01F8
0018
C01C
E01C
6018
7038
3FF0
0FC0
ENDCHAR
STARTCHAR 00E5
ENCODING 229
SWIDTH 508 0
DWIDTH 12 0
BBX 10 17 1 0
BITMAP
3300
1E00
1C00
0000
3E00
7F80
E180
C1C0
E000
7C00
3F80
03C0
00C0
C0C0
E1C0
7F80
3F00
ENDCHAR
STARTCHAR 00E6
ENCODING 230
SWIDTH 592 0
DWIDTH 14 0
BBX 13 21 1 0
BITMAP
0CC0
0780
0700
0000
FFF8
FFF8
0030
0070
00E0
01C0
0380
0300
0700
0E00
1C00
3800
3000
7000
E000
FFF8
FFF8
ENDCHAR
STARTCHAR 00E7
ENCODING 231
SWIDTH 508 0
DWIDTH 12 0
BBX 10 17 1 0
BITMAP
3300
1E00
0E00
0000
FFC0
FFC0
0180
0300
0700
0E00
1C00
1800
3000
7000
E000
FFC0
FFC0
ENDCHAR
STARTCHAR 00E8
ENCODING 232
SWIDTH 254 0
DWIDTH 6 0
BBX 2 17 2 0
BITMAP
C0
C0
C0
C0
C0
C0
C0
00
00
00
C0
C0
C0
C0
C0
C0
C0
ENDCHAR
STARTCHAR 00E9
ENCODING 233
SWIDTH 720 0
DWIDTH 17 0
BBX 16 17 0 0
BITMAP
3FF0
3FF8
301C
300E
3006
3007
3007
FF87
FF83
3003
3007
3006
3006
300E
301C
3FF8
3FE0
ENDCHAR
STARTCHAR 00EA
ENCODING 234
SWIDTH 550 0
DWIDTH 13 0
BBX 11 19 1 0
BITMAP
3200
3C00
1C00
2600
0300
0180
1FC0
7FC0
71E0
E0E0
C060
C060
C060
C060
C060
E0E0
71C0
7F80
1F00
ENDCHAR
STARTCHAR 00EB
ENCODING 235
SWIDTH 677 0
DWIDTH 16 0
BBX 14 21 1 0
BITMAP
0380
0300
0600
0000
C00C
E01C
7038
3038
3870
1860
1CE0
0FC0
07C0
0780
0300
0300
0300
0300
0300
0300
0300
ENDCHAR
STARTCHAR 00EC
ENCODING 236
SWIDTH 508 0
DWIDTH 12 0
BBX 11 22 0 -5
BITMAP
0300
0600
0400
0000
E060
6060
60E0
70C0
30C0
30C0
3980
1980
1980
1F00
0F00
0F00
0E00
0600
0400
0C00
7800
7800
ENDCHAR
STARTCHAR 00ED
ENCODING 237
SWIDTH 677 0
DWIDTH 16 0
BBX 13 17 1 0
BITMAP
E000
E000
E000
FFE0
FFF0
E038
E038
E018
E018
E038
E030
FFF0
FFC0
E000
E000
E000
E000
ENDCHAR
STARTCHAR 00EE
ENCODING 238
SWIDTH 550 0
DWIDTH 13 0
BBX 11 22 1 -5
BITMAP
C000
C000
C000
C000
CF00
DFC0
F0C0
E0E0
E060
C060
C060
C060
E060
E0E0
F1C0
FFC0
EF00
E000
E000
E000
E000
E000
ENDCHAR
STARTCHAR 00EF
ENCODING 239
SWIDTH 592 0
DWIDTH 14 0
BBX 12 2 1 5
BITMAP
FFF0
FFF0
ENDCHAR
STARTCHAR 00F0
ENCODING 240
SWIDTH 592 0
DWIDTH 14 0
BBX 10 11 2 1
BITMAP
C0C0
E1C0
7380
3F00
1E00
0C00
1E00
3F00
7380
E1C0
C0C0
ENDCHAR
STARTCHAR 00F1
ENCODING 241
SWIDTH 338 0
DWIDTH 8 0
BBX 4 10 1 7
BITMAP
10
30
F0
10
10
10
10
10
10
10
ENDCHAR
STARTCHAR 00F2
ENCODING 242
SWIDTH 338 0
DWIDTH 8 0
BBX 8 10 0 7
BITMAP
3C
66
42
C2
06
1E
3C
70
E0
FF
ENDCHAR
STARTCHAR 00F3
ENCODING 243
SWIDTH 338 0
DWIDTH 8 0
BBX 8 10 0 7
BITMAP
3C
46
C6
06
1C
06
03
C2
C6
7C
ENDCHAR
STARTCHAR 00F4
ENCODING 244
SWIDTH 847 0
DWIDTH 20 0
BBX 17 17 1 0
BITMAP
100800
301800
F03000
102000
106000
104000
10C000
108F00
119980
133180
023180
060180
040780
0C0E00
081C00
183000
303F80
ENDCHAR
STARTCHAR 00F5
ENCODING 245
SWIDTH 847 0
DWIDTH 20 0
BBX 17 17 2 0
BITMAP
100C00
300800
F01800
303000
302000
306000
304000
30C600
318600
310E00
031A00
023200
063200
0C6200
087F80
180200
100200
ENDCHAR
STARTCHAR 00F6
ENCODING 246
SWIDTH 847 0
DWIDTH 20 0
BBX 18 17 1 0
BITMAP
7C0200
C60600
C60400
060C00
1C1800
061000
063000
C22180
C66380
7CC780
008D80
018D80
011980
033180
063FC0
040180
0C0180
ENDCHAR
STARTCHAR 00F7
ENCODING 247
SWIDTH 550 0
DWIDTH 13 0
BBX 13 17 0 0
BITMAP
3FF8
3FF8
3000
3000
3000
3000
3000
3FF0
3FF0
3000
3000
3000
FF00
FF00
3000
3000
3000
ENDCHAR
STARTCHAR 00F8
ENCODING 248
SWIDTH 762 0
DWIDTH 18 0
BBX 16 22 1 0
BITMAP
0410
0620
03C0
0000
0000
07E0
1FF8
3C1C
700E
6006
6006
E000
E000
E0FF
E0FF
E007
E007
6007
700F
381F
1FFB
07E3
ENDCHAR
STARTCHAR 00F9
ENCODING 249
SWIDTH 550 0
DWIDTH 13 0
BBX 11 22 1 -5
BITMAP
2180
3100
1E00
0000
1E60
7F60
61E0
C0E0
C0E0
C060
C060
C060
C0E0
C0E0
E1E0
7F60
3EE0
00C0
C0C0
E1C0
7F80
3F00
ENDCHAR
STARTCHAR 00FA
ENCODING 250
SWIDTH 296 0
DWIDTH 7 0
BBX 3 21 2 0
BITMAP
E0
E0
00
00
E0
E0
E0
E0
E0
E0
E0
E0
E0
E0
E0
E0
E0
E0
E0
E0
E0
ENDCHAR
STARTCHAR 00FB
ENCODING 251
SWIDTH 677 0
DWIDTH 16 0
BBX 14 22 1 -5
BITMAP
0FC0
3FE0
7070
6038
6018
6018
6000
7C00
1FE0
01F8
0018
C01C
E01C
6018
7038
3FF0
0FC0
0200
0780
0180
0180
0F00
ENDCHAR
STARTCHAR 00FC
ENCODING 252
SWIDTH 508 0
DWIDTH 12 0
BBX 10 18 1 -5
BITMAP
3E00
7F80
E180
C1C0
E000
7C00
3F80
03C0
00C0
C0C0
E1C0
7F80
3F00
0800
1E00
0600
0600
3C00
ENDCHAR
STARTCHAR 00FD
ENCODING 253
SWIDTH 720 0
DWIDTH 17 0
BBX 15 22 1 0
BITMAP
00C0
0180
0100
0000
0000
07E0
1FF8
3838
701C
600E
E006
E000
C000
C000
C000
E000
E006
600E
700C
383C
1FF8
07E0
ENDCHAR
STARTCHAR 00FE
ENCODING 254
SWIDTH 508 0
DWIDTH 12 0
BBX 10 17 1 0
BITMAP
0700
0C00
0800
0000
1F00
3F80
71C0
E0C0
C000
C000
C000
C000
C0C0
E0C0
6180
7F80
1F00
ENDCHAR
STARTCHAR 00FF
ENCODING 255
SWIDTH 720 0
DWIDTH 17 0
BBX 15 22 1 0
BITMAP
0C60
06C0
0380
0000
0000
07E0
1FF8
3838
701C
600E
E006
E000
C000
C000
C000
E000
E006
600E
700C
383C
1FF8
07E0
ENDCHAR
STARTCHAR 0100
ENCODING 256
SWIDTH 508 0
DWIDTH 12 0
BBX 10 17 1 0
BITMAP
3300
1B00
0E00
0000
1F00
3F80
71C0
E0C0
C000
C000
C000
C000
C0C0
E0C0
6180
7F80
1F00
ENDCHAR
STARTCHAR 0101
ENCODING 257
SWIDTH 550 0
DWIDTH 13 0
BBX 12 17 1 0
BITMAP
0060
0060
07F0
0060
1E60
7F60
71E0
E0E0
C0E0
C060
C060
C060
C0E0
E0E0
61E0
7F60
1E60
ENDCHAR
STARTCHAR 0102
ENCODING 258
SWIDTH 677 0
DWIDTH 16 0
BBX 14 19 1 0
BITMAP
1FE0
0000
0300
0780
0780
0FC0
0CC0
0CC0
18E0
1860
1860
3070
3FF0
7FF0
6038
6018
E01C
C01C
C00C
ENDCHAR
STARTCHAR 0103
ENCODING 259
SWIDTH 550 0
DWIDTH 13 0
BBX 12 15 1 0
BITMAP
3F80
0000
1F00
7FC0
60C0
60C0
00C0
0FC0
7FC0
F0C0
C0C0
C0C0
E3C0
7FF0
3C70
ENDCHAR
STARTCHAR 0104
ENCODING 260
SWIDTH 677 0
DWIDTH 16 0
BBX 14 22 1 0
BITMAP
0820
0C40
0780
0000
0000
0300
0780
0780
0FC0
0CC0
0CC0
18E0
1860
1860
3070
3FF0
7FF0
6038
6018
E01C
C01C
C00C
ENDCHAR
STARTCHAR 0105
ENCODING 261
SWIDTH 550 0
DWIDTH 13 0
BBX 12 18 1 -1
BITMAP
2080
3180
1F00
0000
1F00
3FC0
61C0
60C0
00C0
00C0
3FC0
7EC0
E0C0
C0C0
C0C0
E3C0
7FF0
3C70
ENDCHAR
STARTCHAR 0106
ENCODING 262
SWIDTH 677 0
DWIDTH 16 0
BBX 15 22 1 -5
BITMAP
0300
0780
0780
0FC0
0CC0
0CC0
18E0
1860
1860
3070
3FF0
7FF0
6038
6018
E01C
C01C
C00C
000C
0018
0018
001E
001E
ENDCHAR
STARTCHAR 0107
ENCODING 263
SWIDTH 550 0
DWIDTH 13 0
BBX 12 18 1 -5
BITMAP
1F00
7FC0
60C0
60C0
00C0
0FC0
7FC0
F0C0
C0C0
C0C0
E3C0
7FF0
3C70
0060
00C0
00C0
00F0
00F0
ENDCHAR
STARTCHAR 0108
ENCODING 264
SWIDTH 720 0
DWIDTH 17 0
BBX 15 22 1 0
BITMAP
0180
03C0
0660
0000
0000
07E0
1FF8
3838
701C
600E
E006
E000
C000
C000
C000
E000
E006
600E
700C
383C
1FF8
07E0
ENDCHAR
STARTCHAR 0109
ENCODING 265
SWIDTH 508 0
DWIDTH 12 0
BBX 10 17 1 0
BITMAP
0E00
1B00
1180
0000
1F00
3F80
71C0
E0C0
C000
C000
C000
C000
C0C0
E0C0
6180
7F80
1F00
ENDCHAR
STARTCHAR 010A
ENCODING 266
SWIDTH 720 0
DWIDTH 17 0
BBX 15 21 1 0
BITMAP
0180
0180
0000
0000
07E0
1FF8
3838
701C
600E
E006
E000
C000
C000
C000
E000
E006
600E
700C
383C
1FF8
07E0
ENDCHAR
STARTCHAR 010B
ENCODING 267
SWIDTH 508 0
DWIDTH 12 0
BBX 10 16 1 0
BITMAP
0C00
0C00
0000
1F00
3F80
71C0
E0C0
C000
C000
C000
C000
C0C0
E0C0
6180
7F80
1F00
ENDCHAR
STARTCHAR 010C
ENCODING 268
SWIDTH 720 0
DWIDTH 17 0
BBX 14 21 2 0
BITMAP
08C0
0D80
0700
0000
FFC0
FFE0
C070
C038
C018
C01C
C01C
C01C
C00C
C00C
C01C
C018
C018
C038
C070
FFE0
FF80
ENDCHAR
STARTCHAR 010D
ENCODING 269
SWIDTH 677 0
DWIDTH 16 0
BBX 14 22 1 -1
BITMAP
000C
000C
000C
0004
006C
0068
0060
0060
1E60
7F60
71E0
E0E0
C0E0
C060
C060
C060
C060
C0E0
E0E0
71E0
7F60
1E60
ENDCHAR
STARTCHAR 010E
ENCODING 270
SWIDTH 677 0
DWIDTH 16 0
BBX 13 20 2 0
BITMAP
1FC0
0000
0000
FFF0
FFF0
C000
C000
C000
C000
C000
FFF0
FFF0
C000
C000
C000
C000
C000
C000
FFF8
FFF8
ENDCHAR
STARTCHAR 010F
ENCODING 271
SWIDTH 550 0
DWIDTH 13 0
BBX 11 15 1 0
BITMAP
3F80
0000
1F00
3FC0
70C0
E060
C060
FFE0
FFE0
C000
C000
E060
70C0
3FC0
1F00
ENDCHAR
STARTCHAR 0110
ENCODING 272
SWIDTH 677 0
DWIDTH 16 0
BBX 13 21 2 0
BITMAP
1040
18C0
0F80
0000
FFF0
FFF0
C000
C000
C000
C000
C000
FFF0
FFF0
C000
C000
C000
C000
C000
C000
FFF8
FFF8
ENDCHAR
STARTCHAR 0111
ENCODING 273
SWIDTH 550 0
DWIDTH 13 0
BBX 11 18 1 -1
BITMAP
2080
1180
1F00
0000
1F00
3F80
71C0
60E0
C060
C060
FFE0
FFE0
C000
C060
E0E0
71C0
3F80
1F00
ENDCHAR
STARTCHAR 0112
ENCODING 274
SWIDTH 677 0
DWIDTH 16 0
BBX 13 20 2 0
BITMAP
0700
0700
0000
FFF0
FFF0
C000
C000
C000
C000
C000
FFF0
FFF0
C000
C000
C000
C000
C000
C000
FFF8
FFF8
ENDCHAR
STARTCHAR 0113
ENCODING 275
SWIDTH 550 0
DWIDTH 13 0
BBX 11 16 1 0
BITMAP
0600
0600
0000
1F00
3FC0
70C0
E060
C060
FFE0
FFE0
C000
C000
E060
70C0
3FC0
1F00
ENDCHAR
STARTCHAR 0114
ENCODING 276
SWIDTH 677 0
DWIDTH 16 0
BBX 13 22 2 -5
BITMAP
FFF0
FFF0
C000
C000
C000
C000
C000
FFF0
FFF0
C000
C000
C000
C000
C000
C000
FFF8
FFF8
0180
0300
0300
03C0
03C0
ENDCHAR
STARTCHAR 0115
ENCODING 277
SWIDTH 550 0
DWIDTH 13 0
BBX 11 18 1 -5
BITMAP
1F00
3FC0
70C0
E060
C060
FFE0
FFE0
C000
C000
E060
70C0
3FC0
1F00
0400
0800
1800
1E00
0E00
ENDCHAR
STARTCHAR 0116
ENCODING 278
SWIDTH 677 0
DWIDTH 16 0
BBX 13 21 2 0
BITMAP
1980
0F00
0700
0000
FFF0
FFF0
C000
C000
C000
C000
C000
FFF0
FFF0
C000
C000
C000
C000
C000
C000
FFF8
FFF8
ENDCHAR
STARTCHAR 0117
ENCODING 279
SWIDTH 550 0
DWIDTH 13 0
BBX 11 17 1 0
BITMAP
3180
1B00
0E00
0000
1F00
3FC0
70C0
E060
C060
FFE0
FFE0
C000
C000
E060
70C0
3FC0
1F00
ENDCHAR
STARTCHAR 0118
ENCODING 280
SWIDTH 762 0
DWIDTH 18 0
BBX 16 22 1 0
BITMAP
01C0
0360
0630
0000
0000
07E0
1FF8
3C1C
700E
6006
6006
E000
E000
E0FF
E0FF
E007
E007
6007
700F
381F
1FF3
07E3
ENDCHAR
STARTCHAR 0119
ENCODING 281
SWIDTH 550 0
DWIDTH 13 0
BBX 11 22 1 -5
BITMAP
1C00
1E00
3300
0000
1E60
7F60
61E0
C0E0
C0E0
C060
C060
C060
C0E0
C0E0
E1E0
7F60
3EC0
00C0
C0C0
E1C0
7F80
3F00
ENDCHAR
STARTCHAR 011A
ENCODING 282
SWIDTH 762 0
DWIDTH 18 0
BBX 16 21 1 0
BITMAP
0180
0180
0000
0000
07E0
1FF8
3C1C
700E
6006
6006
E000
E000
E0FF
E0FF
E007
E007
6007
700F
381F
1FF3
07E3
ENDCHAR
STARTCHAR 011B
ENCODING 283
SWIDTH 550 0
DWIDTH 13 0
BBX 11 21 1 -5
BITMAP
0C00
0C00
0000
1E60
7F60
61E0
C0E0
C0E0
C060
C060
C060
C0E0
C0E0
E1E0
7F60
3EC0
00C0
C0C0
E1C0
7F80
3F00
ENDCHAR
STARTCHAR 011C
ENCODING 284
SWIDTH 762 0
DWIDTH 18 0
BBX 16 22 1 -5
BITMAP
07E0
1FF8
3C1C
700E
6006
6006
E000
E000
E0FF
E0FF
E007
E007
6007
700F
381F
1FF3
07E3
0080
01C0
0060
0060
03C0
ENDCHAR
STARTCHAR 011D
ENCODING 285
SWIDTH 550 0
DWIDTH 13 0
BBX 11 23 1 -10
BITMAP
1E60
7F60
61E0
C0E0
C0E0
C060
C060
C060
C0E0
C0E0
E1E0
7F60
3EC0
00C0
C0C0
E1C0
7F80
3F00
0400
0F00
0300
0300
1E00
ENDCHAR
STARTCHAR 011E
ENCODING 286
SWIDTH 550 0
DWIDTH 13 0
BBX 11 22 1 -5
BITMAP
0700
0600
0C00
0000
1E60
7F60
61E0
C0E0
C0E0
C060
C060
C060
C0E0
C0E0
E1E0
7F60
3EC0
00C0
C0C0
E1C0
7F80
3F00
ENDCHAR
STARTCHAR 011F
ENCODING 287
SWIDTH 720 0
DWIDTH 17 0
BBX 13 21 2 0
BITMAP
0700
0580
0CC0
0000
C018
C018
C018
C018
C018
C018
C018
FFF8
FFF8
C018
C018
C018
C018
C018
C018
C018
C018
ENDCHAR
STARTCHAR 0120
ENCODING 288
SWIDTH 550 0
DWIDTH 13 0
BBX 10 21 2 0
BITMAP
0E00
1B00
3180
0000
C000
C000
C000
C000
DF00
FF80
E180
C180
C1C0
C1C0
C1C0
C1C0
C1C0
C1C0
C1C0
C1C0
C1C0
ENDCHAR
STARTCHAR 0121
ENCODING 289
SWIDTH 720 0
DWIDTH 17 0
BBX 16 17 1 0
BITMAP
600C
600C
FFFF
FFFF
600C
600C
600C
7FFC
7FFC
600C
600C
600C
600C
600C
600C
600C
600C
ENDCHAR
STARTCHAR 0122
ENCODING 290
SWIDTH 550 0
DWIDTH 13 0
BBX 11 17 1 0
BITMAP
6000
6000
FE00
6000
6F80
7FC0
70C0
60C0
60E0
60E0
60E0
60E0
60E0
60E0
60E0
60E0
60E0
ENDCHAR
STARTCHAR 0123
ENCODING 291
SWIDTH 465 0
DWIDTH 11 0
BBX 8 22 1 0
BITMAP
01
7F
CE
00
00
18
18
18
18
18
18
18
18
18
18
18
18
18
18
18
18
18
ENDCHAR
STARTCHAR 0124
ENCODING 292
SWIDTH 423 0
DWIDTH 10 0
BBX 8 18 1 0
BITMAP
73
9E
8E
00
00
18
18
18
18
18
18
18
18
18
18
18
18
18
ENDCHAR
STARTCHAR 0125
ENCODING 293
SWIDTH 381 0
DWIDTH 9 0
BBX 7 19 1 0
BITMAP
FE
00
18
18
18
18
18
18
18
18
18
18
18
18
18
18
18
18
18
ENDCHAR
STARTCHAR 0126
ENCODING 294
SWIDTH 381 0
DWIDTH 9 0
BBX 8 15 1 0
BITMAP
FF
00
18
18
18
18
18
18
18
18
18
18
18
18
18
ENDCHAR
STARTCHAR 0127
ENCODING 295
SWIDTH 296 0
DWIDTH 7 0
BBX 4 22 1 -5
BITMAP
60
60
60
60
60
60
60
60
60
60
60
60
60
60
60
60
60
60
C0
C0
F0
F0
ENDCHAR
STARTCHAR 0128
ENCODING 296
SWIDTH 211 0
DWIDTH 5 0
BBX 4 22 0 -5
BITMAP
30
30
00
00
30
30
30
30
30
30
30
30
30
30
30
30
30
60
C0
C0
F0
F0
ENDCHAR
STARTCHAR 0129
ENCODING 297
SWIDTH 762 0
DWIDTH 18 0
BBX 15 17 2 0
BITMAP
E00E
E00E
E00E
E00E
E00E
E00E
E00E
E00E
E00E
E00E
E00E
E60E
E60E
E60C
E71C
E3FC
E1F0
ENDCHAR
STARTCHAR 012A
ENCODING 298
SWIDTH 423 0
DWIDTH 10 0
BBX 7 22 2 -5
BITMAP
C6
C6
00
00
C0
C6
C6
C6
C6
C6
C6
C6
C6
C6
C6
C6
C6
06
06
06
1E
1C
ENDCHAR
STARTCHAR 012B
ENCODING 299
SWIDTH 508 0
DWIDTH 12 0
BBX 12 21 0 0
BITMAP
01C0
01E0
0330
0000
00C0
00C0
00C0
00C0
00C0
00C0
00C0
00C0
00C0
00C0
00C0
E0C0
E0C0
E0C0
61C0
7F80
1F00
ENDCHAR
STARTCHAR 012C
ENCODING 300
SWIDTH 211 0
DWIDTH 5 0
BBX 6 22 -1 -5
BITMAP
38
6C
C4
00
00
18
18
18
18
18
18
18
18
18
18
18
18
18
18
38
70
60
ENDCHAR
STARTCHAR 012D
ENCODING 301
SWIDTH 677 0
DWIDTH 16 0
BBX 14 22 1 -5
BITMAP
601C
6038
6070
60E0
61C0
6380
6700
6F00
7F80
7B80
71C0
60E0
6060
6070
6038
601C
601C
6000
7000
1800
1800
F000
ENDCHAR
STARTCHAR 012E
ENCODING 302
SWIDTH 508 0
DWIDTH 12 0
BBX 11 22 0 -5
BITMAP
6000
6000
6000
6000
60E0
61C0
6380
6700
6600
6E00
7F00
7300
6380
61C0
60C0
60E0
6060
2000
7000
1800
1800
F000
ENDCHAR
STARTCHAR 012F
ENCODING 303
SWIDTH 550 0
DWIDTH 13 0
BBX 11 21 2 0
BITMAP
3000
6000
C000
0000
C000
C000
C000
C000
C000
C000
C000
C000
C000
C000
C000
C000
C000
C000
C000
FFE0
FFE0
ENDCHAR
STARTCHAR 0130
ENCODING 304
SWIDTH 254 0
DWIDTH 6 0
BBX 4 21 2 0
BITMAP
70
60
C0
00
C0
C0
C0
C0
C0
C0
C0
C0
C0
C0
C0
C0
C0
C0
C0
C0
C0
ENDCHAR
STARTCHAR 0131
ENCODING 305
SWIDTH 550 0
DWIDTH 13 0
BBX 11 22 2 -5
BITMAP
C000
C000
C000
C000
C000
C000
C000
C000
C000
C000
C000
C000
C000
C000
C000
FFE0
FFE0
0400
0F00
0300
0300
1E00
ENDCHAR
STARTCHAR 0132
ENCODING 306
SWIDTH 211 0
DWIDTH 5 0
BBX 5 22 0 -5
BITMAP
30
30
30
30
30
30
30
30
30
30
30
30
30
30
30
30
30
20
78
18
18
F0
ENDCHAR
STARTCHAR 0133
ENCODING 307
SWIDTH 550 0
DWIDTH 13 0
BBX 11 17 2 0
BITMAP
C1C0
C1C0
C1C0
C040
C080
C180
C000
C000
C000
C000
C000
C000
C000
C000
C000
FFE0
FFE0
ENDCHAR
STARTCHAR 0134
ENCODING 308
SWIDTH 254 0
DWIDTH 6 0
BBX 6 17 1 0
BITMAP
CC
CC
CC
CC
CC
CC
C0
C0
C0
C0
C0
C0
C0
C0
C0
C0
C0
ENDCHAR
STARTCHAR 0135
ENCODING 309
SWIDTH 550 0
DWIDTH 13 0
BBX 11 17 2 0
BITMAP
C000
C000
C000
C000
C000
C000
C000
C600
C600
C000
C000
C000
C000
C000
C000
FFE0
FFE0
ENDCHAR
STARTCHAR 0136
ENCODING 310
SWIDTH 296 0
DWIDTH 7 0
BBX 5 17 2 0
BITMAP
C0
C0
C0
C0
C0
C0
C0
D8
D8
C0
C0
C0
C0
C0
C0
C0
C0
ENDCHAR
STARTCHAR 0137
ENCODING 311
SWIDTH 720 0
DWIDTH 17 0
BBX 13 21 2 0
BITMAP
01C0
0180
0300
0000
E018
E018
F018
F818
D818
CC18
CC18
C618
C318
C318
C198
C198
C0D8
C078
C078
C038
C038
ENDCHAR
STARTCHAR 0138
ENCODING 312
SWIDTH 550 0
DWIDTH 13 0
BBX 10 17 2 0
BITMAP
0300
0600
0C00
0000
DF00
FF80
E180
C1C0
C1C0
C1C0
C1C0
C1C0
C1C0
C1C0
C1C0
C1C0
C1C0
ENDCHAR
STARTCHAR 0139
ENCODING 313
SWIDTH 720 0
DWIDTH 17 0
BBX 15 22 0 -5
BITMAP
3806
3806
3C06
3E06
3606
3306
3306
3186
30C6
30C6
3066
3066
3036
301E
301E
300E
300E
2000
3800
0C00
0800
F800
ENDCHAR
STARTCHAR 013A
ENCODING 314
SWIDTH 550 0
DWIDTH 13 0
BBX 12 18 0 -5
BITMAP
37C0
3FE0
3860
3070
3070
3070
3070
3070
3070
3070
3070
3070
3070
2000
7800
1800
1800
F000
ENDCHAR
STARTCHAR 013B
ENCODING 315
SWIDTH 720 0
DWIDTH 17 0
BBX 13 21 2 0
BITMAP
0CC0
0D80
0700
0000
E018
E018
F018
F818
D818
CC18
CC18
C618
C318
C318
C198
C198
C0D8
C078
C078
C038
C038
ENDCHAR
STARTCHAR 013C
ENCODING 316
SWIDTH 550 0
DWIDTH 13 0
BBX 10 17 2 0
BITMAP
3300
1A00
0E00
0000
DF00
FF80
E180
C1C0
C1C0
C1C0
C1C0
C1C0
C1C0
C1C0
C1C0
C1C0
C1C0
ENDCHAR
STARTCHAR 013D
ENCODING 317
SWIDTH 550 0
DWIDTH 13 0
BBX 13 19 0 0
BITMAP
E000
E000
6000
6000
4000
8000
19E0
1FF0
1C30
1838
1818
1818
1818
1818
1818
1818
1818
1818
1818
ENDCHAR
STARTCHAR 013E
ENCODING 318
SWIDTH 762 0
DWIDTH 18 0
BBX 16 20 1 0
BITMAP
0FF0
0000
0000
07F0
1FF8
3C1E
700E
6007
E003
E003
C003
C003
C003
C003
E007
6007
700E
381C
1FF8
07E0
ENDCHAR
STARTCHAR 013F
ENCODING 319
SWIDTH 550 0
DWIDTH 13 0
BBX 11 15 1 0
BITMAP
3F80
0000
1F00
3F80
71C0
E0E0
C060
C060
C060
C060
C060
E0E0
61C0
7F80
1F00
ENDCHAR
STARTCHAR 0140
ENCODING 320
SWIDTH 762 0
DWIDTH 18 0
BBX 16 22 1 0
BITMAP
0430
0420
03C0
0000
0000
07F0
1FF8
3C1E
700E
6007
E003
E003
C003
C003
C003
C003
E007
6007
700E
381C
1FF8
07E0
ENDCHAR
STARTCHAR 0141
ENCODING 321
SWIDTH 550 0
DWIDTH 13 0
BBX 11 18 1 -1
BITMAP
2080
3180
1F00
0000
1F00
3F80
71C0
E0E0
C060
C060
C060
C060
C060
C060
E0C0
71C0
7F80
1F00
ENDCHAR
STARTCHAR 0142
ENCODING 322
SWIDTH 762 0
DWIDTH 18 0
BBX 16 22 1 0
BITMAP
03B8
0330
0660
0000
0000
07F0
1FF8
3C1E
700E
6007
E003
E003
C003
C003
C003
C003
E007
6007
700E
381C
1FF8
07E0
ENDCHAR
STARTCHAR 0143
ENCODING 323
SWIDTH 550 0
DWIDTH 13 0
BBX 11 17 1 0
BITMAP
1DC0
1980
3300
0000
1F00
3F80
71C0
E0E0
C060
C060
C060
C060
C060
E0E0
61C0
7F80
1F00
ENDCHAR
STARTCHAR 0144
ENCODING 324
SWIDTH 720 0
DWIDTH 17 0
BBX 14 21 2 0
BITMAP
0300
0600
0C00
0000
FFE0
FFF0
C038
C018
C01C
C018
C018
C038
FFF0
FFF0
C038
C018
C018
C018
C018
C01C
C01C
ENDCHAR
STARTCHAR 0145
ENCODING 325
SWIDTH 338 0
DWIDTH 8 0
BBX 6 17 2 0
BITMAP
70
60
C0
00
DC
FC
E0
C0
C0
C0
C0
C0
C0
C0
C0
C0
C0
ENDCHAR
STARTCHAR 0146
ENCODING 326
SWIDTH 720 0
DWIDTH 17 0
BBX 15 22 1 -5
BITMAP
7FF0
7FF8
601C
600C
600E
600C
600C
601C
7FF8
7FF8
601C
600C
600C
600C
600C
600E
600E
2000
7000
1800
1800
F000
ENDCHAR
STARTCHAR 0147
ENCODING 327
SWIDTH 338 0
DWIDTH 8 0
BBX 8 18 0 -5
BITMAP
37
3F
38
30
30
30
30
30
30
30
30
30
30
20
78
18
18
F0
ENDCHAR
STARTCHAR 0148
ENCODING 328
SWIDTH 720 0
DWIDTH 17 0
BBX 14 21 2 0
BITMAP
1980
0F00
0700
0000
FFE0
FFF0
C038
C018
C01C
C018
C018
C038
FFF0
FFF0
C038
C018
C018
C018
C018
C01C
C01C
ENDCHAR
STARTCHAR 0149
ENCODING 329
SWIDTH 338 0
DWIDTH 8 0
BBX 7 17 1 0
BITMAP
CC
68
38
00
6E
7E
70
60
60
60
60
60
60
60
60
60
60
ENDCHAR
STARTCHAR 014A
ENCODING 330
SWIDTH 677 0
DWIDTH 16 0
BBX 14 21 1 0
BITMAP
0180
0300
0600
0000
0FC0
3FE0
7070
6038
6018
6018
7000
3F00
1FF0
01F8
0018
C01C
E01C
6018
7038
3FF0
0FC0
ENDCHAR
STARTCHAR 014B
ENCODING 331
SWIDTH 508 0
DWIDTH 12 0
BBX 10 17 1 0
BITMAP
0700
0C00
0800
0000
3E00
7F80
E180
C1C0
E000
7C00
3F80
03C0
00C0
C0C0
E1C0
7F80
3F00
ENDCHAR
STARTCHAR 014C
ENCODING 332
SWIDTH 677 0
DWIDTH 16 0
BBX 14 21 1 0
BITMAP
0700
0580
0CC0
0000
0FC0
3FE0
7070
6038
6018
6018
7000
3F00
1FF0
01F8
0018
C01C
E01C
6018
7038
3FF0
0FC0
ENDCHAR
STARTCHAR 014D
ENCODING 333
SWIDTH 508 0
DWIDTH 12 0
BBX 10 17 1 0
BITMAP
1C00
1E00
3300
0000
3E00
7F80
E180
C1C0
E000
7C00
3F80
03C0
00C0
C0C0
E1C0
7F80
3F00
ENDCHAR
STARTCHAR 014E
ENCODING 334
SWIDTH 592 0
DWIDTH 14 0
BBX 14 22 0 -5
BITMAP
FFFC
FFFC
0300
0300
0300
0300
0300
0300
0300
0300
0300
0300
0300
0300
0300
0300
0300
0100
0380
00C0
00C0
0780
ENDCHAR
STARTCHAR 014F
ENCODING 335
SWIDTH 296 0
DWIDTH 7 0
BBX 7 21 0 -5
BITMAP
30
30
30
FC
FC
30
30
30
30
30
30
30
30
30
3C
1C
08
1E
06
06
3C
ENDCHAR
STARTCHAR 0150
ENCODING 336
SWIDTH 592 0
DWIDTH 14 0
BBX 14 21 0 0
BITMAP
0CC0
06C0
0380
0000
FFFC
FFFC
0300
0300
0300
0300
0300
0300
0300
0300
0300
0300
0300
0300
0300
0300
0300
ENDCHAR
STARTCHAR 0151
ENCODING 337
SWIDTH 381 0
DWIDTH 9 0
BBX 9 19 0 0
BITMAP
0380
0380
0380
3100
3100
3200
FC00
FC00
3000
3000
3000
3000
3000
3000
3000
3000
3000
3C00
1C00
ENDCHAR
STARTCHAR 0152
ENCODING 338
SWIDTH 592 0
DWIDTH 14 0
BBX 14 17 0 0
BITMAP
FFFC
FFFC
0300
0300
0300
0300
0300
0300
0FE0
0300
0300
0300
0300
0300
0300
0300
0300
ENDCHAR
STARTCHAR 0153
ENCODING 339
SWIDTH 338 0
DWIDTH 8 0
BBX 7 16 0 0
BITMAP
30
30
30
FC
FC
30
30
30
FE
30
30
30
30
30
3C
1C
ENDCHAR
STARTCHAR 0154
ENCODING 340
SWIDTH 720 0
DWIDTH 17 0
BBX 13 21 2 0
BITMAP
0E60
13C0
11C0
0000
C018
C018
C018
C018
C018
C018
C018
C018
C018
C018
C018
C018
E018
6038
7070
3FE0
0FC0
ENDCHAR
STARTCHAR 0155
ENCODING 341
SWIDTH 550 0
DWIDTH 13 0
BBX 10 17 1 0
BITMAP
3880
2F80
4300
0000
E0C0
E0C0
E0C0
E0C0
E0C0
E0C0
E0C0
E0C0
E0C0
E0C0
61C0
7FC0
3EC0
ENDCHAR
STARTCHAR 0156
ENCODING 342
SWIDTH 720 0
DWIDTH 17 0
BBX 13 19 2 0
BITMAP
1FE0
0000
C018
C018
C018
C018
C018
C018
C018
C018
C018
C018
C018
C018
E018
6038
7070
3FE0
0FC0
ENDCHAR
STARTCHAR 0157
ENCODING 343
SWIDTH 550 0
DWIDTH 13 0
BBX 10 15 1 0
BITMAP
3F80
0000
E0C0
E0C0
E0C0
E0C0
E0C0
E0C0
E0C0
E0C0
E0C0
E0C0
61C0
7FC0
3EC0
ENDCHAR
STARTCHAR 0158
ENCODING 344
SWIDTH 720 0
DWIDTH 17 0
BBX 13 21 2 0
BITMAP
1040
18C0
0F80
0000
C018
C018
C018
C018
C018
C018
C018
C018
C018
C018
C018
C018
E018
6038
7070
3FE0
0FC0
ENDCHAR
STARTCHAR 0159
ENCODING 345
SWIDTH 550 0
DWIDTH 13 0
BBX 10 17 1 0
BITMAP
2080
3180
1F00
0000
E0C0
E0C0
E0C0
E0C0
E0C0
E0C0
E0C0
E0C0
E0C0
60C0
61C0
7FC0
3EC0
ENDCHAR
STARTCHAR 015A
ENCODING 346
SWIDTH 720 0
DWIDTH 17 0
BBX 13 23 2 0
BITMAP
0700
0480
0880
0480
0700
0000
C018
C018
C018
C018
C018
C018
C018
C018
C018
C018
C018
C018
E018
6038
7070
3FE0
0FC0
ENDCHAR
STARTCHAR 015B
ENCODING 347
SWIDTH 550 0
DWIDTH 13 0
BBX 10 18 1 0
BITMAP
0E00
1900
1100
1900
0E00
E0C0
E0C0
E0C0
E0C0
E0C0
E0C0
E0C0
E0C0
E0C0
E0C0
61C0
7FC0
3EC0
ENDCHAR
STARTCHAR 015C
ENCODING 348
SWIDTH 720 0
DWIDTH 17 0
BBX 13 21 2 0
BITMAP
06E0
0CC0
0980
0000
C018
C018
C018
C018
C018
C018
C018
C018
C018
C018
C018
C018
E018
6038
7070
3FE0
0FC0
ENDCHAR
STARTCHAR 015D
ENCODING 349
SWIDTH 550 0
DWIDTH 13 0
BBX 10 17 1 0
BITMAP
1DC0
1980
3300
0000
E0C0
E0C0
E0C0
E0C0
E0C0
E0C0
E0C0
E0C0
E0C0
E0C0
61C0
7FC0
3EC0
ENDCHAR
STARTCHAR 015E
ENCODING 350
SWIDTH 720 0
DWIDTH 17 0
BBX 13 22 2 -5
BITMAP
C018
C018
C018
C018
C018
C018
C018
C018
C018
C018
C018
C018
E018
6038
7070
3FE0
0FC0
0600
0C00
0C00
0F00
0F00
ENDCHAR
STARTCHAR 015F
ENCODING 351
SWIDTH 550 0
DWIDTH 13 0
BBX 10 18 1 -5
BITMAP
E0C0
E0C0
E0C0
E0C0
E0C0
E0C0
E0C0
E0C0
E0C0
E0C0
61C0
7FC0
3EC0
00C0
0100
0300
03C0
01C0
ENDCHAR
STARTCHAR 0160
ENCODING 352
SWIDTH 931 0
DWIDTH 22 0
BBX 21 21 1 0
BITMAP
007000
00D800
019800
000000
C07038
C0F038
E0F030
E0F030
60D870
61D870
719860
719C60
338CE0
330CC0
330CC0
3B06C0
1F07C0
1E0780
1E0780
1E0380
0C0380
ENDCHAR
STARTCHAR 0161
ENCODING 353
SWIDTH 720 0
DWIDTH 17 0
BBX 16 17 0 0
BITMAP
01C0
0360
0630
0000
E1C3
61C3
61C3
6343
7366
3366
3266
3626
163C
1E3C
1E3C
1C18
0C18
ENDCHAR
STARTCHAR 0162
ENCODING 354
SWIDTH 677 0
DWIDTH 16 0
BBX 14 21 1 0
BITMAP
0380
0680
0CC0
0000
C00C
E01C
7038
3038
3870
1860
1CE0
0FC0
07C0
0780
0300
0300
0300
0300
0300
0300
0300
ENDCHAR
STARTCHAR 0163
ENCODING 355
SWIDTH 508 0
DWIDTH 12 0
BBX 11 22 0 -5
BITMAP
0600
0F00
1980
0000
E060
6060
60E0
70C0
30C0
30C0
3980
1980
1980
1F00
0F00
0F00
0E00
0600
0400
0C00
7800
7800
ENDCHAR
STARTCHAR 0164
ENCODING 356
SWIDTH 592 0
DWIDTH 14 0
BBX 13 21 1 0
BITMAP
01C0
0180
0300
0000
FFF8
FFF8
0030
0070
00E0
01C0
0380
0300
0700
0E00
1C00
3800
3000
7000
E000
FFF8
FFF8
ENDCHAR
STARTCHAR 0165
ENCODING 357
SWIDTH 508 0
DWIDTH 12 0
BBX 10 17 1 0
BITMAP
0700
0600
0C00
0000
FFC0
FFC0
0180
0300
0700
0E00
1C00
1800
3000
7000
E000
FFC0
FFC0
ENDCHAR
STARTCHAR 0166
ENCODING 358
SWIDTH 592 0
DWIDTH 14 0
BBX 13 20 1 0
BITMAP
0300
0300
0000
FFF8
FFF8
0030
0070
00E0
01C0
0380
0300
0700
0E00
1C00
3800
3000
7000
E000
FFF8
FFF8
ENDCHAR
STARTCHAR 0167
ENCODING 359
SWIDTH 508 0
DWIDTH 12 0
BBX 10 16 1 0
BITMAP
0C00
0C00
0000
FFC0
FFC0
0180
0300
0700
0E00
1C00
1800
3000
7000
E000
FFC0
FFC0
ENDCHAR
STARTCHAR 0168
ENCODING 360
SWIDTH 677 0
DWIDTH 16 0
BBX 14 24 1 -7
BITMAP
0FC0
3FF0
7070
6038
6018
6000
7000
3F00
0FF0
00F8
0018
C01C
E01C
6018
7038
3FF0
0FC0
0000
0000
0300
0300
0100
0100
0200
ENDCHAR
STARTCHAR 0169
ENCODING 361
SWIDTH 508 0
DWIDTH 12 0
BBX 10 20 1 -7
BITMAP
3E00
7F80
E180
C1C0
E000
7800
3F00
03C0
00C0
C0C0
E1C0
7F80
3F00
0000
0000
0C00
0C00
0400
0400
0800
ENDCHAR
STARTCHAR 016A
ENCODING 362
SWIDTH 592 0
DWIDTH 14 0
BBX 14 23 0 -6
BITMAP
FFFC
FFFC
0300
0300
0300
0300
0300
0300
0300
0300
0300
0300
0300
0300
0300
0300
0300
0000
0000
0300
0300
0100
0200
ENDCHAR
STARTCHAR 016B
ENCODING 363
SWIDTH 296 0
DWIDTH 7 0
BBX 6 23 0 -7
BITMAP
30
30
30
FC
FC
30
30
30
30
30
30
30
30
30
3C
1C
00
00
30
30
10
10
20
ENDCHAR
STARTCHAR 016C
ENCODING 364
SWIDTH 550 0
DWIDTH 13 0
BBX 11 11 1 3
BITMAP
8040
DF60
7FC0
71C0
60C0
4040
4040
60C0
71C0
FFE0
DF40
ENDCHAR
STARTCHAR 016D
ENCODING 365
SWIDTH 0 0
DWIDTH 0 0
BBX 3 3 -8 14
BITMAP
C0
60
20
ENDCHAR
STARTCHAR 016E
ENCODING 366
SWIDTH 0 0
DWIDTH 0 0
BBX 4 3 -9 14
BITMAP
30
60
C0
ENDCHAR
STARTCHAR 016F
ENCODING 367
SWIDTH 0 0
DWIDTH 0 0
BBX 6 3 -10 14
BITMAP
38
6C
C4
ENDCHAR
STARTCHAR 0170
ENCODING 368
SWIDTH 0 0
DWIDTH 0 0
BBX 8 3 -11 14
BITMAP
79
4F
C6
ENDCHAR
STARTCHAR 0171
ENCODING 369
SWIDTH 0 0
DWIDTH 0 0
BBX 7 1 -10 15
BITMAP
FE
ENDCHAR
STARTCHAR 0172
ENCODING 370
SWIDTH 0 0
DWIDTH 0 0
BBX 7 3 -10 14
BITMAP
82
C6
7C
ENDCHAR
STARTCHAR 0173
ENCODING 371
SWIDTH 0 0
DWIDTH 0 0
BBX 3 2 -8 14
BITMAP
E0
E0
ENDCHAR
STARTCHAR 0174
ENCODING 372
SWIDTH 0 0
DWIDTH 0 0
BBX 6 2 -10 14
BITMAP
EC
EC
ENDCHAR
STARTCHAR 0175
ENCODING 373
SWIDTH 0 0
DWIDTH 0 0
BBX 5 5 -9 14
BITMAP
70
98
88
98
70
ENDCHAR
STARTCHAR 0176
ENCODING 374
SWIDTH 0 0
DWIDTH 0 0
BBX 7 3 -10 14
BITMAP
66
CC
88
ENDCHAR
STARTCHAR 0177
ENCODING 375
SWIDTH 0 0
DWIDTH 0 0
BBX 6 3 -10 14
BITMAP
C4
6C
38
ENDCHAR
STARTCHAR 0178
ENCODING 376
SWIDTH 0 0
DWIDTH 0 0
BBX 3 6 -8 -8
BITMAP
E0
E0
E0
60
40
80
ENDCHAR
STARTCHAR 0179
ENCODING 377
SWIDTH 0 0
DWIDTH 0 0
BBX 5 5 -9 -5
BITMAP
20
70
18
18
F0
ENDCHAR
STARTCHAR 017A
ENCODING 378
SWIDTH 0 0
DWIDTH 0 0
BBX 5 5 -9 -5
BITMAP
30
60
E0
F8
78
ENDCHAR
STARTCHAR 017B
ENCODING 379
SWIDTH 0 0
DWIDTH 0 0
BBX 7 17 -10 0
BITMAP
06
06
0C
0C
0C
18
18
18
10
30
30
20
60
60
40
C0
C0
ENDCHAR
STARTCHAR 017C
ENCODING 380
SWIDTH 720 0
DWIDTH 17 0
BBX 16 17 0 0
BITMAP
3FF0
3FF8
301C
300E
3006
3007
3007
FF87
FF83
3003
3007
3006
3006
300E
301C
3FF8
3FE0
ENDCHAR
STARTCHAR 017D
ENCODING 381
SWIDTH 762 0
DWIDTH 18 0
BBX 16 25 1 -8
BITMAP
07E0
1FF8
3C1C
700E
6006
6006
E000
E000
E0FF
E0FF
E007
E007
6007
700F
381F
1FF3
07E3
0000
0000
0180
0180
0080
0080
0080
0100
ENDCHAR
STARTCHAR 017E
ENCODING 382
SWIDTH 550 0
DWIDTH 13 0
BBX 11 26 1 -5
BITMAP
0600
0400
0800
0800
0E00
0E00
0000
0000
1E60
7F60
61E0
C0E0
C0E0
C060
C060
C060
C0E0
C0E0
E1E0
7F60
3EC0
00C0
C0C0
E1C0
7F80
3F00
ENDCHAR
STARTCHAR 017F
ENCODING 383
SWIDTH 550 0
DWIDTH 13 0
BBX 11 25 2 -8
BITMAP
C000
C000
C000
C000
C000
C000
C000
C000
C000
C000
C000
C000
C000
C000
C000
FFE0
FFE0
0000
0000
0C00
0C00
0400
0400
0400
0800
ENDCHAR
STARTCHAR 0180
ENCODING 384
SWIDTH 211 0
DWIDTH 5 0
BBX 2 25 2 -8
BITMAP
C0
C0
C0
C0
C0
C0
C0
C0
C0
C0
C0
C0
C0
C0
C0
C0
C0
00
00
C0
C0
40
40
C0
80
ENDCHAR
STARTCHAR 0181
ENCODING 385
SWIDTH 677 0
DWIDTH 16 0
BBX 13 25 2 -8
BITMAP
C038
C070
C0E0
C1C0
C380
C700
CE00
DE00
FF00
F700
E380
C1C0
C0C0
C0E0
C070
C038
C038
0000
0000
0C00
0C00
0400
0400
0400
0800
ENDCHAR
STARTCHAR 0182
ENCODING 386
SWIDTH 508 0
DWIDTH 12 0
BBX 10 25 1 -8
BITMAP
C000
C000
C000
C000
C1C0
C380
C700
CE00
CC00
DC00
FE00
E600
C700
C380
C180
C1C0
C0C0
0000
0000
0C00
0C00
0400
0400
0400
0800
ENDCHAR
STARTCHAR 0183
ENCODING 387
SWIDTH 720 0
DWIDTH 17 0
BBX 13 25 2 -8
BITMAP
E018
E018
F018
F818
D818
CC18
CC18
C618
C318
C318
C198
C198
C0D8
C078
C078
C038
C038
0000
0000
0600
0600
0200
0200
0600
0400
ENDCHAR
STARTCHAR 0184
ENCODING 388
SWIDTH 550 0
DWIDTH 13 0
BBX 10 21 2 -8
BITMAP
DF00
FF80
E180
C1C0
C1C0
C1C0
C1C0
C1C0
C1C0
C1C0
C1C0
C1C0
C1C0
0000
0000
1C00
1C00
0C00
0C00
0800
1000
ENDCHAR
STARTCHAR 0185
ENCODING 389
SWIDTH 720 0
DWIDTH 17 0
BBX 14 24 2 -7
BITMAP
FFE0
FFF0
C038
C018
C01C
C018
C018
C038
FFF0
FFF0
C038
C018
C018
C018
C018
C01C
C01C
0000
0700
0700
0100
0300
0200
0600
ENDCHAR
STARTCHAR 0186
ENCODING 390
SWIDTH 338 0
DWIDTH 8 0
BBX 6 21 2 -8
BITMAP
DC
FC
E0
C0
C0
C0
C0
C0
C0
C0
C0
C0
C0
00
00
C0
C0
40
40
C0
80
ENDCHAR
STARTCHAR 0187
ENCODING 391
SWIDTH 211 0
DWIDTH 5 0
BBX 3 22 0 -5
BITMAP
60
60
00
00
60
60
60
60
60
60
60
60
60
60
60
60
60
60
60
E0
E0
C0
ENDCHAR
STARTCHAR 0188
ENCODING 392
SWIDTH 296 0
DWIDTH 7 0
BBX 2 16 3 -4
BITMAP
C0
C0
00
00
00
00
00
00
00
00
C0
C0
40
40
80
80
ENDCHAR
STARTCHAR 0189
ENCODING 393
SWIDTH 338 0
DWIDTH 8 0
BBX 6 2 1 6
BITMAP
FC
FC
ENDCHAR
STARTCHAR 018A
ENCODING 394
SWIDTH 211 0
DWIDTH 5 0
BBX 4 17 0 -5
BITMAP
30
30
30
30
30
30
30
30
30
30
30
30
30
30
70
E0
C0
ENDCHAR
STARTCHAR 018B
ENCODING 395
SWIDTH 508 0
DWIDTH 12 0
BBX 10 12 1 0
BITMAP
C1C0
C380
C700
CE00
DC00
FC00
E600
C700
C300
C180
C1C0
C0C0
ENDCHAR
STARTCHAR 018C
ENCODING 396
SWIDTH 296 0
DWIDTH 7 0
BBX 6 17 0 0
BITMAP
1C
3C
30
30
30
F0
F0
30
30
30
30
30
30
30
30
30
30
ENDCHAR
STARTCHAR 018D
ENCODING 397
SWIDTH 550 0
DWIDTH 13 0
BBX 11 14 1 -1
BITMAP
1F00
3F80
71C0
E0C0
C060
C060
FFE0
FFE0
0060
C060
E0E0
71C0
3F80
1F00
ENDCHAR
STARTCHAR 018E
ENCODING 398
SWIDTH 550 0
DWIDTH 13 0
BBX 11 14 1 -1
BITMAP
1F00
3F80
61C0
C0E0
C060
0060
FFE0
FFE0
C060
C060
E0C0
71C0
3F80
1F00
ENDCHAR
STARTCHAR 018F
ENCODING 399
SWIDTH 508 0
DWIDTH 12 0
BBX 10 13 1 0
BITMAP
1E00
7F80
E180
C1C0
C0C0
00C0
00C0
00C0
C0C0
C1C0
E380
7F00
3E00
ENDCHAR
STARTCHAR 0190
ENCODING 400
SWIDTH 550 0
DWIDTH 13 0
BBX 12 14 1 -1
BITMAP
E7C0
EFE0
7860
7070
6070
6060
6FE0
7F80
7000
6000
6060
70E0
3FC0
1F80
ENDCHAR
STARTCHAR 0191
ENCODING 401
SWIDTH 0 0
DWIDTH 0 0
BBX 3 4 -8 15
BITMAP
C0
20
20
C0
ENDCHAR
STARTCHAR 0192
ENCODING 402
SWIDTH 0 0
DWIDTH 0 0
BBX 8 1 -11 15
BITMAP
FF
ENDCHAR
STARTCHAR 0193
ENCODING 403
SWIDTH 0 0
DWIDTH 0 0
BBX 7 3 -10 14
BITMAP
7C
C6
82
ENDCHAR
STARTCHAR 0194
ENCODING 404
SWIDTH 296 0
DWIDTH 7 0
BBX 7 22 0 0
BITMAP
82
C6
7C
00
00
38
38
38
38
38
38
38
38
38
38
38
38
38
38
38
38
38
ENDCHAR
STARTCHAR 0195
ENCODING 405
SWIDTH 296 0
DWIDTH 7 0
BBX 7 17 0 0
BITMAP
82
C6
7C
00
30
30
30
30
30
30
30
30
30
30
30
30
30
ENDCHAR
STARTCHAR 0196
ENCODING 406
SWIDTH 720 0
DWIDTH 17 0
BBX 13 22 2 -5
BITMAP
E018
E018
F018
F818
D818
DC18
CE18
C618
C718
C318
C198
C1D8
C0D8
C0F8
C078
C038
C038
0018
0018
0018
0078
0070
ENDCHAR
STARTCHAR 0197
ENCODING 407
SWIDTH 550 0
DWIDTH 13 0
BBX 10 18 2 -5
BITMAP
DF00
FF80
E180
C1C0
C1C0
C1C0
C1C0
C1C0
C1C0
C1C0
C1C0
C1C0
C1C0
00C0
00C0
01C0
0380
0300
ENDCHAR
STARTCHAR 0198
ENCODING 408
SWIDTH 0 0
DWIDTH 0 0
BBX 5 4 -9 11
BITMAP
18
38
F8
C0
ENDCHAR
STARTCHAR 0199
ENCODING 409
SWIDTH 677 0
DWIDTH 16 0
BBX 14 17 1 0
BITMAP
0380
0780
0780
0FC0
0CC0
0CE0
1C60
1860
1870
3030
3FF0
7FF8
7018
6018
E01C
C00C
C00C
ENDCHAR
STARTCHAR 019A
ENCODING 410
SWIDTH 677 0
DWIDTH 16 0
BBX 13 17 2 0
BITMAP
FFE0
FFE0
C000
C000
C000
C000
C000
FFC0
FFE0
C070
C030
C038
C038
C030
C070
FFE0
FFC0
ENDCHAR
STARTCHAR 019B
ENCODING 411
SWIDTH 677 0
DWIDTH 16 0
BBX 13 17 2 0
BITMAP
FFC0
FFE0
C070
C030
C030
C030
C060
FFC0
FFE0
C070
C038
C038
C038
C038
C070
FFE0
FFC0
ENDCHAR
STARTCHAR 019C
ENCODING 412
SWIDTH 508 0
DWIDTH 12 0
BBX 10 17 2 0
BITMAP
FFC0
FFC0
C000
C000
C000
C000
C000
C000
C000
C000
C000
C000
C000
C000
C000
C000
C000
ENDCHAR
STARTCHAR 019D
ENCODING 413
SWIDTH 720 0
DWIDTH 17 0
BBX 16 21 0 -4
BITMAP
0FFE
0FFE
0C0E
0C0E
0C0E
0C0E
0C0E
0C0E
1C0E
180E
180E
180E
180E
180E
300E
FFFF
FFFF
E003
E003
E003
E003
ENDCHAR
STARTCHAR 019E
ENCODING 414
SWIDTH 677 0
DWIDTH 16 0
BBX 12 17 2 0
BITMAP
FFF0
FFF0
C000
C000
C000
C000
C000
FFE0
FFE0
C000
C000
C000
C000
C000
C000
FFF0
FFF0
ENDCHAR
STARTCHAR 019F
ENCODING 415
SWIDTH 974 0
DWIDTH 23 0
BBX 23 17 0 0
BITMAP
70180E
70181C
381838
1C1870
0E18F0
0718E0
0399C0
03FF80
01FF80
0399C0
0719C0
0E18E0
0E1870
1C1838
381838
70181C
F0180E
ENDCHAR
STARTCHAR 01A0
ENCODING 416
SWIDTH 677 0
DWIDTH 16 0
BBX 14 17 1 0
BITMAP
0FC0
3FF0
7838
6018
E018
E018
0038
07E0
07F0
0038
001C
001C
C01C
E01C
7038
7FF0
1FC0
ENDCHAR
STARTCHAR 01A1
ENCODING 417
SWIDTH 720 0
DWIDTH 17 0
BBX 13 17 2 0
BITMAP
C038
C038
C078
C0F8
C0D8
C1D8
C198
C318
C718
C618
CC18
DC18
D818
F818
F018
E018
E018
ENDCHAR
STARTCHAR 01A2
ENCODING 418
SWIDTH 720 0
DWIDTH 17 0
BBX 13 21 2 0
BITMAP
38E0
1FC0
0F80
0000
C038
C038
C078
C078
C0D8
C1D8
C198
C318
C718
C618
CC18
DC18
D818
F818
F018
E018
E018
ENDCHAR
STARTCHAR 01A3
ENCODING 419
SWIDTH 677 0
DWIDTH 16 0
BBX 13 17 2 0
BITMAP
C038
C070
C0E0
C1C0
C380
C700
CE00
DE00
FF00
F700
E380
C1C0
C0C0
C0E0
C070
C038
C038
ENDCHAR
STARTCHAR 01A4
ENCODING 420
SWIDTH 677 0
DWIDTH 16 0
BBX 14 17 0 0
BITMAP
0FFC
0FFC
0C0C
0C0C
0C0C
0C0C
0C0C
0C0C
0C0C
0C0C
0C0C
1C0C
180C
180C
380C
F00C
E00C
ENDCHAR
STARTCHAR 01A5
ENCODING 421
SWIDTH 847 0
DWIDTH 20 0
BBX 16 17 2 0
BITMAP
E00F
F00F
F00F
F01B
D81B
D81B
D833
CC33
CC33
CC63
C663
C663
C6C3
C3C3
C3C3
C383
C183
ENDCHAR
STARTCHAR 01A6
ENCODING 422
SWIDTH 720 0
DWIDTH 17 0
BBX 13 17 2 0
BITMAP
C018
C018
C018
C018
C018
C018
C018
FFF8
FFF8
C018
C018
C018
C018
C018
C018
C018
C018
ENDCHAR
STARTCHAR 01A7
ENCODING 423
SWIDTH 762 0
DWIDTH 18 0
BBX 16 17 1 0
BITMAP
07E0
1FF8
3C1C
700E
6007
E003
C003
C003
C003
C003
C003
E003
6007
700E
381C
1FF8
07E0
ENDCHAR
STARTCHAR 01A8
ENCODING 424
SWIDTH 720 0
DWIDTH 17 0
BBX 13 17 2 0
BITMAP
FFF8
FFF8
C018
C018
C018
C018
C018
C018
C018
C018
C018
C018
C018
C018
C018
C018
C018
ENDCHAR
STARTCHAR 01A9
ENCODING 425
SWIDTH 677 0
DWIDTH 16 0
BBX 12 17 2 0
BITMAP
FFC0
FFE0
C070
C030
C030
C030
C030
C070
FFE0
FFC0
C000
C000
C000
C000
C000
C000
C000
ENDCHAR
STARTCHAR 01AA
ENCODING 426
SWIDTH 720 0
DWIDTH 17 0
BBX 15 17 1 0
BITMAP
07E0
1FF8
383C
700C
600E
E000
C000
C000
C000
C000
C006
E00E
600C
701C
3838
1FF0
07C0
ENDCHAR
STARTCHAR 01AB
ENCODING 427
SWIDTH 592 0
DWIDTH 14 0
BBX 14 17 0 0
BITMAP
FFFC
FFFC
0300
0300
0300
0300
0300
0300
0300
0300
0300
0300
0300
0300
0300
0300
0300
ENDCHAR
STARTCHAR 01AC
ENCODING 428
SWIDTH 677 0
DWIDTH 16 0
BBX 14 17 1 0
BITMAP
C00C
E01C
601C
7018
3038
3830
1830
1C60
0C60
0EE0
06C0
03C0
0380
0380
2300
3F00
3E00
ENDCHAR
STARTCHAR 01AD
ENCODING 429
SWIDTH 847 0
DWIDTH 20 0
BBX 18 17 1 0
BITMAP
00C000
00C000
0FFC00
3FFF00
78C780
E0C1C0
C0C0C0
C0C0C0
C0C0C0
C0C0C0
C0C0C0
E0C1C0
78C780
3FFF00
0FFC00
00C000
00C000
ENDCHAR
STARTCHAR 01AE
ENCODING 430
SWIDTH 677 0
DWIDTH 16 0
BBX 14 17 1 0
BITMAP
E01C
7038
7070
3870
1CE0
0CC0
0FC0
0780
0700
0780
0FC0
1CE0
18E0
3870
7038
E038
E01C
ENDCHAR
STARTCHAR 01AF
ENCODING 431
SWIDTH 720 0
DWIDTH 17 0
BBX 15 21 2 -4
BITMAP
C018
C018
C018
C018
C018
C018
C018
C018
C018
C018
C018
C018
C018
C018
C018
FFFE
FFFE
0006
0006
0006
0006
ENDCHAR
STARTCHAR 01B0
ENCODING 432
SWIDTH 635 0
DWIDTH 15 0
BBX 13 17 1 0
BITMAP
C038
C038
C038
C038
C038
C038
C038
E038
7038
7FF8
1FF8
0038
0038
0038
0038
0038
0038
ENDCHAR
STARTCHAR 01B1
ENCODING 433
SWIDTH 931 0
DWIDTH 22 0
BBX 19 17 2 0
BITMAP
C0C0E0
C0C0E0
C0C0E0
C0C0E0
C0C0E0
C0C0E0
C0C0E0
C0C0E0
C0C0E0
C0C0E0
C0C0E0
C0C0E0
C0C0E0
C0C0E0
C0C0E0
FFFFE0
FFFFE0
ENDCHAR
STARTCHAR 01B2
ENCODING 434
SWIDTH 974 0
DWIDTH 23 0
BBX 20 21 2 -4
BITMAP
C0C0E0
C0C0E0
C0C0E0
C0C0E0
C0C0E0
C0C0E0
C0C0E0
C0C0E0
C0C0E0
C0C0E0
C0C0E0
C0C0E0
C0C0E0
C0C0E0
C0C0E0
FFFFF0
FFFFF0
000030
000030
000030
000030
ENDCHAR
STARTCHAR 01B3
ENCODING 435
SWIDTH 847 0
DWIDTH 20 0
BBX 19 17 0 0
BITMAP
FF0000
FF0000
030000
030000
030000
030000
030000
03FF00
03FF80
0301C0
0300E0
0300E0
0300E0
0300E0
0301C0
03FF80
03FF00
ENDCHAR
STARTCHAR 01B4
ENCODING 436
SWIDTH 889 0
DWIDTH 21 0
BBX 17 17 2 0
BITMAP
C00180
C00180
C00180
C00180
C00180
C00180
C00180
FFC180
FFE180
C07180
C03180
C03180
C03180
C03180
C07180
FFE180
FFC180
ENDCHAR
STARTCHAR 01B5
ENCODING 437
SWIDTH 635 0
DWIDTH 15 0
BBX 12 17 2 0
BITMAP
C000
C000
C000
C000
C000
C000
C000
FFC0
FFE0
C070
C030
C030
C030
C030
C070
FFE0
FFC0
ENDCHAR
STARTCHAR 01B6
ENCODING 438
SWIDTH 720 0
DWIDTH 17 0
BBX 15 17 1 0
BITMAP
0FC0
3FF0
7838
601C
E00C
0006
0006
03FE
03FE
0006
C006
C00E
E00C
701C
3838
1FF0
0FC0
ENDCHAR
STARTCHAR 01B7
ENCODING 439
SWIDTH 1016 0
DWIDTH 24 0
BBX 21 18 2 -1
BITMAP
003F00
C0FFC0
C1C1E0
C38060
C70070
C60030
C60038
C60038
FE0038
FE0038
C60030
C60030
C70030
C38060
C3C1E0
C0FFC0
C07F00
C00000
ENDCHAR
STARTCHAR 01B8
ENCODING 440
SWIDTH 720 0
DWIDTH 17 0
BBX 13 17 2 0
BITMAP
3FF8
7FF8
E018
C018
C018
C018
C018
E018
7FF8
3FF8
7018
E018
E018
C018
C018
C018
C018
ENDCHAR
STARTCHAR 01B9
ENCODING 441
SWIDTH 550 0
DWIDTH 13 0
BBX 12 14 1 -1
BITMAP
1F00
7FC0
61C0
60C0
00C0
00C0
3FC0
7EC0
E0C0
C0C0
C0C0
E3C0
7FF0
3C70
ENDCHAR
STARTCHAR 01BA
ENCODING 442
SWIDTH 550 0
DWIDTH 13 0
BBX 11 18 1 -1
BITMAP
00C0
0FC0
3F80
7000
6000
CF00
FFC0
F1C0
E0E0
C060
C060
C060
C060
C060
E0E0
71C0
3F80
1F00
ENDCHAR
STARTCHAR 01BB
ENCODING 443
SWIDTH 550 0
DWIDTH 13 0
BBX 10 13 2 0
BITMAP
FE00
FF80
C180
C180
C180
C180
FF00
FF80
C1C0
C0C0
C1C0
FF80
FF00
ENDCHAR
STARTCHAR 01BC
ENCODING 444
SWIDTH 423 0
DWIDTH 10 0
BBX 7 12 2 0
BITMAP
FE
FE
C0
C0
C0
C0
C0
C0
C0
C0
C0
C0
ENDCHAR
STARTCHAR 01BD
ENCODING 445
SWIDTH 592 0
DWIDTH 14 0
BBX 14 15 0 -3
BITMAP
1FF0
1FF0
1830
1830
1830
1830
1830
1830
3830
3030
FFFC
FFFC
C00C
C00C
C00C
ENDCHAR
STARTCHAR 01BE
ENCODING 446
SWIDTH 550 0
DWIDTH 13 0
BBX 11 13 1 0
BITMAP
1F00
3F80
71C0
E0E0
C060
C060
FFE0
FFE0
C000
E060
70C0
3FC0
1F00
ENDCHAR
STARTCHAR 01BF
ENCODING 447
SWIDTH 762 0
DWIDTH 18 0
BBX 17 12 1 0
BITMAP
E18380
618700
318E00
398C00
1D9800
0FF000
0FF800
1D9C00
398C00
718E00
E18700
C18380
ENDCHAR
STARTCHAR 01C0
ENCODING 448
SWIDTH 508 0
DWIDTH 12 0
BBX 10 13 1 0
BITMAP
1E00
7F80
6180
C1C0
0180
0180
0F00
0F80
01C0
C0C0
E1C0
7F80
3F00
ENDCHAR
STARTCHAR 01C1
ENCODING 449
SWIDTH 592 0
DWIDTH 14 0
BBX 10 12 2 0
BITMAP
C1C0
C1C0
C3C0
C7C0
C6C0
CCC0
DCC0
D8C0
F0C0
F0C0
E0C0
C0C0
ENDCHAR
STARTCHAR 01C2
ENCODING 450
SWIDTH 592 0
DWIDTH 14 0
BBX 10 17 2 0
BITMAP
6180
7300
1E00
0000
0000
C1C0
C1C0
C3C0
C6C0
C6C0
CCC0
DCC0
D8C0
F0C0
F0C0
E0C0
C0C0
ENDCHAR
STARTCHAR 01C3
ENCODING 451
SWIDTH 550 0
DWIDTH 13 0
BBX 10 12 2 0
BITMAP
C1C0
C380
C700
CE00
DC00
F800
FC00
CE00
C700
C380
C180
C0C0
ENDCHAR
STARTCHAR 01C4
ENCODING 452
SWIDTH 592 0
DWIDTH 14 0
BBX 12 13 0 -1
BITMAP
1FF0
1FF0
1830
1830
1830
1830
1830
1830
1830
3030
F030
E030
0030
ENDCHAR
STARTCHAR 01C5
ENCODING 453
SWIDTH 677 0
DWIDTH 16 0
BBX 12 12 2 0
BITMAP
E070
E070
E0F0
F0F0
F0B0
D1B0
D9B0
D930
CB30
CF30
CE30
C630
ENDCHAR
STARTCHAR 01C6
ENCODING 454
SWIDTH 550 0
DWIDTH 13 0
BBX 10 12 2 0
BITMAP
C1C0
C1C0
C1C0
C1C0
C1C0
FFC0
FFC0
C1C0
C1C0
C1C0
C1C0
C1C0
ENDCHAR
STARTCHAR 01C7
ENCODING 455
SWIDTH 550 0
DWIDTH 13 0
BBX 11 13 1 0
BITMAP
1F00
3FC0
71C0
E0E0
C060
C060
C060
C060
C060
E0E0
71C0
3FC0
1F00
ENDCHAR
STARTCHAR 01C8
ENCODING 456
SWIDTH 550 0
DWIDTH 13 0
BBX 10 12 2 0
BITMAP
FFC0
FFC0
C1C0
C1C0
C1C0
C1C0
C1C0
C1C0
C1C0
C1C0
C1C0
C1C0
ENDCHAR
STARTCHAR 01C9
ENCODING 457
SWIDTH 550 0
DWIDTH 13 0
BBX 11 18 1 -5
BITMAP
0700
FFC0
F0C0
E0E0
E060
E060
E060
E060
E060
E0E0
F0C0
FFC0
EF00
E000
E000
E000
E000
E000
ENDCHAR
STARTCHAR 01CA
ENCODING 458
SWIDTH 508 0
DWIDTH 12 0
BBX 10 14 1 -1
BITMAP
1F00
3F80
71C0
E0C0
C0C0
C000
C000
C000
C000
C0C0
E0C0
71C0
3F80
1E00
ENDCHAR
STARTCHAR 01CB
ENCODING 459
SWIDTH 508 0
DWIDTH 12 0
BBX 10 12 1 0
BITMAP
FFC0
FFC0
0C00
0C00
0C00
0C00
0C00
0C00
0C00
0C00
0C00
0C00
ENDCHAR
STARTCHAR 01CC
ENCODING 460
SWIDTH 508 0
DWIDTH 12 0
BBX 11 17 0 -5
BITMAP
E060
6060
60E0
30C0
30C0
3180
1980
1980
1B00
0F00
0F00
0600
0600
0C00
0C00
7C00
7800
ENDCHAR
STARTCHAR 01CD
ENCODING 461
SWIDTH 847 0
DWIDTH 20 0
BBX 18 22 1 -5
BITMAP
00C000
00C000
00C000
00C000
1CDE00
7EFF00
73E380
E1C180
C0C1C0
C0C0C0
C0C0C0
C0C0C0
C0C0C0
C0C1C0
E1C180
71E380
7EFF00
1CDE00
00C000
00C000
00C000
00C000
ENDCHAR
STARTCHAR 01CE
ENCODING 462
SWIDTH 508 0
DWIDTH 12 0
BBX 10 12 1 0
BITMAP
C1C0
E180
7380
3F00
1E00
1C00
1E00
3E00
3700
7380
E1C0
C0C0
ENDCHAR
STARTCHAR 01CF
ENCODING 463
SWIDTH 550 0
DWIDTH 13 0
BBX 11 15 2 -3
BITMAP
C1C0
C1C0
C1C0
C1C0
C1C0
C1C0
C1C0
C1C0
C1C0
C1C0
FFE0
FFE0
0060
0060
0060
ENDCHAR
STARTCHAR 01D0
ENCODING 464
SWIDTH 550 0
DWIDTH 13 0
BBX 10 12 1 0
BITMAP
C0C0
C0C0
C0C0
C0C0
C0C0
E0C0
7FC0
3FC0
00C0
00C0
00C0
00C0
ENDCHAR
STARTCHAR 01D1
ENCODING 465
SWIDTH 762 0
DWIDTH 18 0
BBX 15 12 2 0
BITMAP
C306
C306
C306
C306
C306
C306
C306
C306
C306
C306
FFFE
FFFE
ENDCHAR
STARTCHAR 01D2
ENCODING 466
SWIDTH 804 0
DWIDTH 19 0
BBX 16 15 2 -3
BITMAP
C306
C306
C306
C306
C306
C306
C306
C306
C306
C306
FFFF
FFFF
0003
0003
0003
ENDCHAR
STARTCHAR 01D3
ENCODING 467
SWIDTH 592 0
DWIDTH 14 0
BBX 14 12 0 0
BITMAP
FC00
FC00
0C00
0C00
0FF0
0FF8
0C1C
0C0C
0C0C
0C1C
0FF8
0FF0
ENDCHAR
STARTCHAR 01D4
ENCODING 468
SWIDTH 720 0
DWIDTH 17 0
BBX 13 12 2 0
BITMAP
C018
C018
C018
C018
FF18
FF98
C198
C1D8
C0D8
C198
FF98
FF18
ENDCHAR
STARTCHAR 01D5
ENCODING 469
SWIDTH 508 0
DWIDTH 12 0
BBX 9 12 2 0
BITMAP
C000
C000
C000
C000
FE00
FF80
C180
C180
C180
C180
FF80
FE00
ENDCHAR
STARTCHAR 01D6
ENCODING 470
SWIDTH 508 0
DWIDTH 12 0
BBX 10 13 1 0
BITMAP
3E00
7F80
E380
C1C0
00C0
00C0
0FC0
0FC0
00C0
C1C0
E180
7F00
3E00
ENDCHAR
STARTCHAR 01D7
ENCODING 471
SWIDTH 762 0
DWIDTH 18 0
BBX 16 13 2 0
BITMAP
01F0
C3FC
C70E
C606
CC06
CC06
FC07
FC06
CC06
CE06
C70E
C3FC
C1F0
ENDCHAR
STARTCHAR 01D8
ENCODING 472
SWIDTH 550 0
DWIDTH 13 0
BBX 11 12 1 0
BITMAP
3FE0
7FE0
E0E0
C0E0
60E0
7FE0
7FE0
60E0
60E0
60E0
E0E0
C0E0
ENDCHAR
STARTCHAR 01D9
ENCODING 473
SWIDTH 677 0
DWIDTH 16 0
BBX 12 20 2 0
BITMAP
1980
1980
0000
FFF0
FFF0
C000
C000
C000
C000
C000
FFE0
FFE0
C000
C000
C000
C000
C000
C000
FFF0
FFF0
ENDCHAR
STARTCHAR 01DA
ENCODING 474
SWIDTH 550 0
DWIDTH 13 0
BBX 11 17 1 0
BITMAP
1B80
1B80
0000
0000
1F00
3F80
71C0
E0E0
C060
C060
FFE0
FFE0
C000
E060
70E0
3FC0
1F00
ENDCHAR
STARTCHAR 01DB
ENCODING 475
SWIDTH 508 0
DWIDTH 12 0
BBX 10 21 2 0
BITMAP
0700
0600
0C00
0000
FFC0
FFC0
C000
C000
C000
C000
C000
C000
C000
C000
C000
C000
C000
C000
C000
C000
C000
ENDCHAR
STARTCHAR 01DC
ENCODING 476
SWIDTH 423 0
DWIDTH 10 0
BBX 7 17 2 0
BITMAP
0C
18
10
00
00
FE
FE
C0
C0
C0
C0
C0
C0
C0
C0
C0
C0
ENDCHAR
STARTCHAR 01DD
ENCODING 477
SWIDTH 296 0
DWIDTH 7 0
BBX 2 17 2 0
BITMAP
C0
C0
C0
C0
C0
C0
C0
C0
C0
C0
C0
C0
C0
C0
C0
C0
C0
ENDCHAR
STARTCHAR 01DE
ENCODING 478
SWIDTH 211 0
DWIDTH 5 0
BBX 2 17 2 0
BITMAP
C0
C0
00
00
00
C0
C0
C0
C0
C0
C0
C0
C0
C0
C0
C0
C0
ENDCHAR
STARTCHAR 01DF
ENCODING 479
SWIDTH 508 0
DWIDTH 12 0
BBX 10 17 0 0
BITMAP
00C0
00C0
00C0
00C0
00C0
00C0
00C0
00C0
00C0
00C0
00C0
E0C0
E0C0
E0C0
61C0
7F80
1F00
ENDCHAR
STARTCHAR 01E0
ENCODING 480
SWIDTH 720 0
DWIDTH 17 0
BBX 15 17 1 0
BITMAP
07E0
1FF8
383C
700C
600E
E000
C000
FF80
FF80
C000
C006
E00E
600C
701C
3C38
1FF0
07C0
ENDCHAR
STARTCHAR 01E1
ENCODING 481
SWIDTH 508 0
DWIDTH 12 0
BBX 10 13 1 0
BITMAP
1F00
3F80
71C0
E0C0
C000
C000
FC00
FC00
C000
E0C0
71C0
3F80
1F00
ENDCHAR
STARTCHAR 01E2
ENCODING 482
SWIDTH 296 0
DWIDTH 7 0
BBX 6 20 0 0
BITMAP
CC
CC
00
30
30
30
30
30
30
30
30
30
30
30
30
30
30
30
30
30
ENDCHAR
STARTCHAR 01E3
ENCODING 483
SWIDTH 254 0
DWIDTH 6 0
BBX 5 17 0 0
BITMAP
C8
C8
00
00
00
30
30
30
30
30
30
30
30
30
30
30
30
ENDCHAR
STARTCHAR 01E4
ENCODING 484
SWIDTH 1016 0
DWIDTH 24 0
BBX 23 17 0 0
BITMAP
0FFC00
0FFC00
0C1C00
0C1C00
0C1C00
0C1C00
0C1C00
0C1FF0
0C1FF8
0C1C1C
0C1C0E
1C1C0E
181C0E
181C0C
381C1C
F01FF8
E01FF0
ENDCHAR
STARTCHAR 01E5
ENCODING 485
SWIDTH 847 0
DWIDTH 20 0
BBX 19 12 0 0
BITMAP
1FF000
1FF000
183000
183000
183F80
183FC0
1830E0
183060
183060
3030E0
F03FC0
E03F80
ENDCHAR
STARTCHAR 01E6
ENCODING 486
SWIDTH 974 0
DWIDTH 23 0
BBX 20 17 2 0
BITMAP
C07000
C07000
C07000
C07000
C07000
C07000
C07000
FFFFC0
FFFFE0
C07070
C07030
C07030
C07030
C07030
C07070
C07FE0
C07FC0
ENDCHAR
STARTCHAR 01E7
ENCODING 487
SWIDTH 804 0
DWIDTH 19 0
BBX 17 12 2 0
BITMAP
C1C000
C1C000
C1C000
C1C000
FFFE00
FFFF00
C1C380
C1C180
C1C180
C1C380
C1FF00
C1FE00
ENDCHAR
STARTCHAR 01E8
ENCODING 488
SWIDTH 211 0
DWIDTH 5 0
BBX 4 22 0 -5
BITMAP
30
30
00
00
00
30
30
30
30
30
30
30
30
30
30
30
30
30
30
70
E0
C0
ENDCHAR
STARTCHAR 01E9
ENCODING 489
SWIDTH 677 0
DWIDTH 16 0
BBX 14 17 1 0
BITMAP
0FC0
3FF0
7070
6038
6018
6000
7000
3F00
0FE0
00F8
0038
C01C
E01C
6018
7038
3FF0
0FC0
ENDCHAR
STARTCHAR 01EA
ENCODING 490
SWIDTH 762 0
DWIDTH 18 0
BBX 16 17 1 0
BITMAP
FFF0
FFF0
0C00
0C00
0C00
0C00
0C00
0DFC
0FFE
0E07
0C07
0C03
0C03
0C03
0C03
0C03
0C03
ENDCHAR
STARTCHAR 01EB
ENCODING 491
SWIDTH 550 0
DWIDTH 13 0
BBX 12 17 0 0
BITMAP
1800
1800
1800
FFC0
FFC0
1800
1800
1BC0
1FE0
1C70
1830
1830
1830
1830
1830
1830
1830
ENDCHAR
STARTCHAR 01EC
ENCODING 492
SWIDTH 677 0
DWIDTH 16 0
BBX 13 21 2 0
BITMAP
0300
0700
0600
0000
C038
C070
C0E0
C1C0
C380
C700
CE00
DE00
FE00
F700
E380
C1C0
C0C0
C0E0
C070
C038
C038
ENDCHAR
STARTCHAR 01ED
ENCODING 493
SWIDTH 550 0
DWIDTH 13 0
BBX 10 17 2 0
BITMAP
0600
0E00
0C00
0000
0000
C1C0
C380
C700
CE00
DC00
F800
FC00
CE00
C700
C380
C180
C0C0
ENDCHAR
STARTCHAR 01EE
ENCODING 494
SWIDTH 508 0
DWIDTH 12 0
BBX 10 14 1 -1
BITMAP
3E00
7F80
6180
C1C0
C000
F000
7E00
0F80
01C0
00C0
C0C0
E1C0
7F80
3F00
ENDCHAR
STARTCHAR 01EF
ENCODING 495
SWIDTH 762 0
DWIDTH 18 0
BBX 17 22 0 -5
BITMAP
FFF800
FFF800
060000
060000
060000
060000
060000
06FC00
07FE00
070700
060380
060380
060180
060180
060180
060180
060380
000300
000700
001E00
007C00
007000
ENDCHAR
STARTCHAR 01F0
ENCODING 496
SWIDTH 550 0
DWIDTH 13 0
BBX 12 22 0 -5
BITMAP
1800
1800
1800
FFC0
FFC0
1800
1800
1BC0
1FE0
1C60
1870
1830
1830
1830
1830
1830
1830
0030
0060
00E0
01C0
0180
ENDCHAR
STARTCHAR 01F1
ENCODING 497
SWIDTH 677 0
DWIDTH 16 0
BBX 14 21 1 0
BITMAP
1870
1FE0
07C0
0000
E00C
E01C
7018
7018
3838
3830
1C70
0C60
0E60
06C0
07C0
03C0
0380
0380
2300
3F00
3E00
ENDCHAR
STARTCHAR 01F2
ENCODING 498
SWIDTH 508 0
DWIDTH 12 0
BBX 12 22 0 -5
BITMAP
30C0
3980
1F00
0000
E070
6060
6060
70C0
30C0
30C0
3980
1980
1980
0F00
0F00
0F00
0600
0600
0C00
0C00
7800
7800
ENDCHAR
STARTCHAR 01F3
ENCODING 499
SWIDTH 720 0
DWIDTH 17 0
BBX 13 21 2 -4
BITMAP
C018
C018
C018
C018
C018
C018
C018
C018
C018
C018
C018
C018
C018
C018
C018
FFF8
FFF8
0700
0700
0700
0700
ENDCHAR
STARTCHAR 01F4
ENCODING 500
SWIDTH 550 0
DWIDTH 13 0
BBX 10 15 2 -3
BITMAP
C1C0
C1C0
C1C0
C1C0
C1C0
C1C0
C1C0
C1C0
C1C0
C1C0
FFC0
FFC0
1C00
1C00
1C00
ENDCHAR
STARTCHAR 01F5
ENCODING 501
SWIDTH 550 0
DWIDTH 13 0
BBX 11 20 2 0
BITMAP
0060
0060
0060
FFE0
FFE0
C000
C000
C000
C000
C000
C000
C000
C000
C000
C000
C000
C000
C000
C000
C000
ENDCHAR
STARTCHAR 01F6
ENCODING 502
SWIDTH 381 0
DWIDTH 9 0
BBX 7 15 2 0
BITMAP
06
06
06
FE
FE
C0
C0
C0
C0
C0
C0
C0
C0
C0
C0
ENDCHAR
STARTCHAR 01F7
ENCODING 503
SWIDTH 0 0
DWIDTH 0 0
BBX 3 6 -8 11
BITMAP
60
40
80
E0
E0
E0
ENDCHAR
STARTCHAR 01F8
ENCODING 504
SWIDTH 0 0
DWIDTH 0 0
BBX 3 6 -8 11
BITMAP
E0
E0
E0
60
40
80
ENDCHAR
STARTCHAR 01F9
ENCODING 505
SWIDTH 0 0
DWIDTH 0 0
BBX 3 6 -8 11
BITMAP
E0
E0
E0
60
40
80
ENDCHAR
STARTCHAR 01FA
ENCODING 506
SWIDTH 0 0
DWIDTH 0 0
BBX 3 6 -8 11
BITMAP
E0
E0
E0
80
40
60
ENDCHAR
STARTCHAR 01FB
ENCODING 507
SWIDTH 0 0
DWIDTH 0 0
BBX 7 3 -10 14
BITMAP
CC
66
26
ENDCHAR
STARTCHAR 01FC
ENCODING 508
SWIDTH 0 0
DWIDTH 0 0
BBX 1 4 -7 13
BITMAP
80
80
80
80
ENDCHAR
STARTCHAR 01FD
ENCODING 509
SWIDTH 0 0
DWIDTH 0 0
BBX 3 4 -8 13
BITMAP
A0
A0
A0
A0
ENDCHAR
STARTCHAR 01FE
ENCODING 510
SWIDTH 0 0
DWIDTH 0 0
BBX 7 5 -10 14
BITMAP
38
38
82
C6
7C
ENDCHAR
STARTCHAR 01FF
ENCODING 511
SWIDTH 0 0
DWIDTH 0 0
BBX 3 3 -8 -4
BITMAP
C0
60
20
ENDCHAR
STARTCHAR 0200
ENCODING 512
SWIDTH 0 0
DWIDTH 0 0
BBX 4 3 -9 -4
BITMAP
30
60
C0
ENDCHAR
STARTCHAR 0201
ENCODING 513
SWIDTH 0 0
DWIDTH 0 0
BBX 7 1 -10 -3
BITMAP
FE
ENDCHAR
STARTCHAR 0202
ENCODING 514
SWIDTH 0 0
DWIDTH 0 0
BBX 3 2 -8 -4
BITMAP
E0
E0
ENDCHAR
STARTCHAR 0203
ENCODING 515
SWIDTH 0 0
DWIDTH 0 0
BBX 6 2 -10 -4
BITMAP
EC
EC
ENDCHAR
STARTCHAR 0204
ENCODING 516
SWIDTH 0 0
DWIDTH 0 0
BBX 5 5 -9 -5
BITMAP
70
98
88
98
70
ENDCHAR
STARTCHAR 0205
ENCODING 517
SWIDTH 0 0
DWIDTH 0 0
BBX 1 3 -7 -5
BITMAP
80
80
80
ENDCHAR
STARTCHAR 0206
ENCODING 518
SWIDTH 0 0
DWIDTH 0 0
BBX 6 3 -10 -4
BITMAP
C4
6C
38
ENDCHAR
STARTCHAR 0207
ENCODING 519
SWIDTH 0 0
DWIDTH 0 0
BBX 6 3 -10 -4
BITMAP
38
6C
C4
ENDCHAR
STARTCHAR 0208
ENCODING 520
SWIDTH 0 0
DWIDTH 0 0
BBX 7 3 -10 -4
BITMAP
82
C6
7C
ENDCHAR
STARTCHAR 0209
ENCODING 521
SWIDTH 0 0
DWIDTH 0 0
BBX 7 3 -10 -4
BITMAP
7C
C6
82
ENDCHAR
STARTCHAR 020A
ENCODING 522
SWIDTH 0 0
DWIDTH 0 0
BBX 7 2 -10 -4
BITMAP
FE
9E
ENDCHAR
STARTCHAR 020B
ENCODING 523
SWIDTH 0 0
DWIDTH 0 0
BBX 7 1 -10 -3
BITMAP
FE
ENDCHAR
STARTCHAR 020C
ENCODING 524
SWIDTH 0 0
DWIDTH 0 0
BBX 8 1 -11 -3
BITMAP
FF
ENDCHAR
STARTCHAR 020D
ENCODING 525
SWIDTH 0 0
DWIDTH 0 0
BBX 7 3 -10 5
BITMAP
02
FE
9C
ENDCHAR
STARTCHAR 020E
ENCODING 526
SWIDTH 0 0
DWIDTH 0 0
BBX 7 1 -10 6
BITMAP
FE
ENDCHAR
STARTCHAR 020F
ENCODING 527
SWIDTH 0 0
DWIDTH 0 0
BBX 8 1 -11 6
BITMAP
FF
ENDCHAR
STARTCHAR 0210
ENCODING 528
SWIDTH 0 0
DWIDTH 0 0
BBX 8 4 -11 -6
BITMAP
FF
00
00
FF
ENDCHAR
STARTCHAR 0211
ENCODING 529
SWIDTH 0 0
DWIDTH 0 0
BBX 3 8 -8 12
BITMAP
60
C0
C0
C0
40
60
40
C0
ENDCHAR
STARTCHAR 0212
ENCODING 530
SWIDTH 0 0
DWIDTH 0 0
BBX 8 4 -11 12
BITMAP
FF
00
00
FF
ENDCHAR
STARTCHAR 0213
ENCODING 531
SWIDTH 0 0
DWIDTH 0 0
BBX 3 6 -8 11
BITMAP
E0
E0
E0
60
40
80
ENDCHAR
STARTCHAR 0214
ENCODING 532
SWIDTH 0 0
DWIDTH 0 0
BBX 7 3 -10 14
BITMAP
7C
C6
82
ENDCHAR
STARTCHAR 0215
ENCODING 533
SWIDTH 0 0
DWIDTH 0 0
BBX 7 3 -10 14
BITMAP
18
B2
20
ENDCHAR
STARTCHAR 0216
ENCODING 534
SWIDTH 0 0
DWIDTH 0 0
BBX 3 4 -8 -5
BITMAP
A0
A0
A0
A0
ENDCHAR
STARTCHAR 0217
ENCODING 535
SWIDTH 0 0
DWIDTH 0 0
BBX 0 0 0 0
BITMAP
ENDCHAR
STARTCHAR 0218
ENCODING 536
SWIDTH 296 0
DWIDTH 7 0
BBX 6 17 0 -5
BITMAP
30
30
30
30
30
30
30
30
30
30
FC
FC
30
30
30
F0
E0
ENDCHAR
STARTCHAR 0219
ENCODING 537
SWIDTH 550 0
DWIDTH 13 0
BBX 10 17 2 -5
BITMAP
C1C0
C1C0
C1C0
C1C0
C1C0
C1C0
C1C0
C1C0
C1C0
C1C0
C3C0
FFC0
7DC0
01C0
01C0
01C0
01C0
ENDCHAR
STARTCHAR 021A
ENCODING 538
SWIDTH 847 0
DWIDTH 20 0
BBX 16 13 2 0
BITMAP
C183
C183
C183
C183
C183
C183
C183
C183
C183
C383
C787
FFFF
7CF3
ENDCHAR
STARTCHAR 021B
ENCODING 539
SWIDTH 338 0
DWIDTH 8 0
BBX 6 13 2 0
BITMAP
1C
1C
1C
1C
1C
1C
1C
1C
1C
1C
3C
EC
CC
ENDCHAR
STARTCHAR 021C
ENCODING 540
SWIDTH 847 0
DWIDTH 20 0
BBX 16 18 2 -5
BITMAP
C183
C183
C183
C183
C183
C183
C183
C183
C183
C383
C787
FFFF
7CF3
0003
0003
0003
0003
0003
ENDCHAR
STARTCHAR 021D
ENCODING 541
SWIDTH 338 0
DWIDTH 8 0
BBX 6 17 2 -4
BITMAP
DC
FC
F0
C0
C0
C0
C0
C0
C0
C0
C0
C0
C0
C0
C0
C0
C0
ENDCHAR
STARTCHAR 021E
ENCODING 542
SWIDTH 338 0
DWIDTH 8 0
BBX 6 17 2 0
BITMAP
1C
1C
1C
1C
1C
1C
1C
1C
1C
1C
1C
1C
1C
1C
3C
EC
CC
ENDCHAR
STARTCHAR 021F
ENCODING 543
SWIDTH 508 0
DWIDTH 12 0
BBX 10 13 1 0
BITMAP
3F00
7F80
6180
60C0
6000
3C00
7C00
E000
C000
C0C0
E1C0
7F80
3E00
ENDCHAR
STARTCHAR 0220
ENCODING 544
SWIDTH 508 0
DWIDTH 12 0
BBX 10 13 1 0
BITMAP
1F00
7F80
61C0
E0C0
0180
0F00
0F80
01C0
00C0
C0C0
E1C0
7F80
1F00
ENDCHAR
STARTCHAR 0221
ENCODING 545
SWIDTH 254 0
DWIDTH 6 0
BBX 3 12 2 0
BITMAP
80
80
80
80
80
80
80
80
80
80
E0
E0
ENDCHAR
STARTCHAR 0222
ENCODING 546
SWIDTH 423 0
DWIDTH 10 0
BBX 10 23 0 -5
BITMAP
03C0
07C0
0600
0E00
0C00
0C00
0C00
0C00
0C00
0C00
0C00
0C00
0C00
0C00
0C00
1C00
1C00
1C00
1800
1800
1800
F000
E000
ENDCHAR
STARTCHAR 0223
ENCODING 547
SWIDTH 296 0
DWIDTH 7 0
BBX 6 16 0 0
BITMAP
F0
F0
30
30
30
30
30
30
30
30
30
FC
FC
30
30
30
ENDCHAR
STARTCHAR 0224
ENCODING 548
SWIDTH 296 0
DWIDTH 7 0
BBX 6 21 0 -5
BITMAP
30
30
30
FC
FC
30
30
30
30
30
30
30
30
30
30
30
30
30
30
3C
1C
ENDCHAR
STARTCHAR 0225
ENCODING 549
SWIDTH 508 0
DWIDTH 12 0
BBX 11 12 0 0
BITMAP
0600
0F00
0F00
1B00
1980
1980
3180
30C0
70C0
60E0
6060
E060
ENDCHAR
STARTCHAR 0226
ENCODING 550
SWIDTH 720 0
DWIDTH 17 0
BBX 16 12 0 0
BITMAP
0C18
1C38
1E3C
1E3C
362C
3266
3366
2366
6347
61C3
61C3
C1C3
ENDCHAR
STARTCHAR 0227
ENCODING 551
SWIDTH 508 0
DWIDTH 12 0
BBX 11 17 0 0
BITMAP
01C0
03C0
0300
0600
0600
0600
0F00
0F00
1B00
1980
1980
3180
30C0
30C0
60E0
6060
E060
ENDCHAR
STARTCHAR 0228
ENCODING 552
SWIDTH 550 0
DWIDTH 13 0
BBX 10 17 2 0
BITMAP
1F00
7F80
61C0
C0C0
C0C0
C0C0
01C0
0380
0700
0E00
0C00
0C00
0C00
0C00
0C00
0C00
0C00
ENDCHAR
STARTCHAR 0229
ENCODING 553
SWIDTH 550 0
DWIDTH 13 0
BBX 10 17 2 0
BITMAP
3E00
7F80
E180
C0C0
C0C0
C0C0
E000
7000
3800
1800
0C00
0C00
0C00
0C00
0C00
0C00
0C00
ENDCHAR
STARTCHAR 022A
ENCODING 554
SWIDTH 550 0
DWIDTH 13 0
BBX 10 17 2 0
BITMAP
0C00
0C00
0C00
0C00
0C00
0C00
0C00
0E00
0700
0380
01C0
C0C0
C0C0
C0C0
61C0
7F80
1F00
ENDCHAR
STARTCHAR 022B
ENCODING 555
SWIDTH 508 0
DWIDTH 12 0
BBX 10 17 2 -5
BITMAP
C0C0
E0C0
70C0
30C0
38C0
1DC0
0FC0
0EC0
0CC0
18C0
30C0
60C0
80C0
00C0
00C0
00C0
00C0
ENDCHAR
STARTCHAR 022C
ENCODING 556
SWIDTH 592 0
DWIDTH 14 0
BBX 12 13 1 0
BITMAP
1E60
7FE0
61E0
C0E0
C060
C060
C060
C060
C060
C0E0
61E0
7FF0
1E30
ENDCHAR
STARTCHAR 022D
ENCODING 557
SWIDTH 592 0
DWIDTH 14 0
BBX 12 13 1 0
BITMAP
C780
FFE0
78E0
7030
6030
6030
6030
6030
6030
7030
7860
7FE0
6780
ENDCHAR
STARTCHAR 022E
ENCODING 558
SWIDTH 720 0
DWIDTH 17 0
BBX 15 17 1 0
BITMAP
0FC0
1FF0
3838
701C
600C
E00E
C006
0006
0006
0006
000E
C00E
E00C
601C
7838
3FF0
0FC0
ENDCHAR
STARTCHAR 022F
ENCODING 559
SWIDTH 720 0
DWIDTH 17 0
BBX 16 17 0 0
BITMAP
3FF0
3FF8
301C
300E
3006
3007
3007
FF87
FF83
3003
3007
3006
3006
300E
301C
3FF8
3FE0
ENDCHAR
STARTCHAR 0230
ENCODING 560
SWIDTH 550 0
DWIDTH 13 0
BBX 11 17 1 0
BITMAP
1F00
7FC0
71C0
E060
C060
C060
C060
C060
C060
40C0
30C0
1F00
0C00
0300
0180
7FC0
7FC0
ENDCHAR
STARTCHAR 0231
ENCODING 561
SWIDTH 677 0
DWIDTH 16 0
BBX 13 17 2 0
BITMAP
FFF8
FFF8
0038
0038
0038
0038
0038
7FF8
7FF8
0038
0038
0038
0038
0038
0038
FFF8
FFF8
ENDCHAR
STARTCHAR 0232
ENCODING 562
SWIDTH 677 0
DWIDTH 16 0
BBX 14 18 1 -1
BITMAP
0FC0
3FE0
7070
6038
6018
0018
0038
01F0
1FE0
7F80
7800
E000
C01C
C018
E018
7078
3FF0
0FC0
ENDCHAR
STARTCHAR 0233
ENCODING 563
SWIDTH 508 0
DWIDTH 12 0
BBX 10 14 1 -1
BITMAP
3E00
7F80
6180
C1C0
01C0
0380
3F00
FC00
E000
C0C0
C0C0
E180
7F80
3F00
ENDCHAR
STARTCHAR 0234
ENCODING 564
SWIDTH 592 0
DWIDTH 14 0
BBX 12 17 1 0
BITMAP
FFF0
FFF0
6000
3000
1800
0C00
0600
0700
0380
0300
0E00
1C00
3800
7000
E000
FFF0
FFF0
ENDCHAR
STARTCHAR 0235
ENCODING 565
SWIDTH 847 0
DWIDTH 20 0
BBX 17 18 2 0
BITMAP
000080
C01980
C01F80
C01C00
C01800
C01800
C01800
C01800
C01800
C01800
C01800
C01800
C01800
E01800
603800
707000
3FE000
0FC000
ENDCHAR
STARTCHAR 0236
ENCODING 566
SWIDTH 677 0
DWIDTH 16 0
BBX 15 13 1 0
BITMAP
E004
E0CE
E0FC
E0E0
E0C0
E0C0
E0C0
E0C0
E0C0
60C0
61C0
7FC0
3EC0
ENDCHAR
STARTCHAR 0237
ENCODING 567
SWIDTH 762 0
DWIDTH 18 0
BBX 16 17 1 0
BITMAP
FC7F
FC7F
1830
300C
600C
6006
E006
C003
C003
C003
C003
C007
E006
700E
383C
1FF8
07E0
ENDCHAR
STARTCHAR 0238
ENCODING 568
SWIDTH 254 0
DWIDTH 6 0
BBX 2 17 2 0
BITMAP
C0
C0
C0
C0
C0
C0
C0
C0
C0
C0
C0
C0
C0
C0
C0
C0
C0
ENDCHAR
STARTCHAR 0239
ENCODING 569
SWIDTH 423 0
DWIDTH 10 0
BBX 6 17 2 0
BITMAP
CC
CC
CC
CC
CC
CC
CC
CC
CC
CC
CC
CC
CC
CC
CC
CC
CC
ENDCHAR
STARTCHAR 023A
ENCODING 570
SWIDTH 296 0
DWIDTH 7 0
BBX 3 17 2 0
BITMAP
E0
E0
E0
E0
E0
E0
E0
C0
C0
40
40
40
40
00
00
E0
E0
ENDCHAR
STARTCHAR 023B
ENCODING 571
SWIDTH 550 0
DWIDTH 13 0
BBX 13 17 0 0
BITMAP
0600
0600
0600
0600
0600
FFF8
FFF8
0600
0600
0600
FFF8
FFF8
0600
0600
0600
0600
0600
ENDCHAR
STARTCHAR 023C
ENCODING 572
SWIDTH 508 0
DWIDTH 12 0
BBX 10 13 1 0
BITMAP
1F00
3F80
71C0
E0C0
C0C0
C000
C000
C000
C0C0
E0C0
6180
7F80
1E00
ENDCHAR
STARTCHAR 023D
ENCODING 573
SWIDTH 169 0
DWIDTH 4 0
BBX 2 6 1 -7
BITMAP
80
80
80
80
80
C0
ENDCHAR
STARTCHAR 023E
ENCODING 574
SWIDTH 338 0
DWIDTH 8 0
BBX 5 6 2 11
BITMAP
38
30
70
60
60
C0
ENDCHAR
STARTCHAR 023F
ENCODING 575
SWIDTH 338 0
DWIDTH 8 0
BBX 5 6 2 11
BITMAP
E0
60
30
30
10
18
ENDCHAR
STARTCHAR 0240
ENCODING 576
SWIDTH 1397 0
DWIDTH 33 0
BBX 32 17 0 0
BITMAP
3C180000
66100000
C2300000
C3200000
C2400000
66400000
3C800000
01800000
01000000
03000000
02783C3C
04CC4662
0486C243
0986C243
1986C243
10CC4662
30783C3C
ENDCHAR
STARTCHAR 0241
ENCODING 577
SWIDTH 677 0
DWIDTH 16 0
BBX 10 3 3 0
BITMAP
C0C0
C0C0
C0C0
ENDCHAR
STARTCHAR 0242
ENCODING 578
SWIDTH 338 0
DWIDTH 8 0
BBX 2 3 3 0
BITMAP
C0
C0
C0
ENDCHAR
STARTCHAR 0243
ENCODING 579
SWIDTH 338 0
DWIDTH 8 0
BBX 6 6 1 11
BITMAP
CC
CC
CC
88
88
44
ENDCHAR
STARTCHAR 0244
ENCODING 580
SWIDTH 211 0
DWIDTH 5 0
BBX 2 6 2 11
BITMAP
C0
C0
C0
80
C0
40
ENDCHAR
STARTCHAR 0245
ENCODING 581
SWIDTH 338 0
DWIDTH 8 0
BBX 6 2 1 6
BITMAP
FC
FC
ENDCHAR
STARTCHAR 0246
ENCODING 582
SWIDTH 550 0
DWIDTH 13 0
BBX 12 21 0 -4
BITMAP
FF80
63E0
63F0
63F0
63F0
63F0
63F0
63F0
63E0
63E0
6380
6200
6200
6200
6200
6200
6200
6200
6200
6200
6200
ENDCHAR
STARTCHAR 0247
ENCODING 583
SWIDTH 508 0
DWIDTH 12 0
BBX 9 6 2 11
BITMAP
3B80
3300
7700
6600
6600
CC00
ENDCHAR
STARTCHAR 0248
ENCODING 584
SWIDTH 508 0
DWIDTH 12 0
BBX 9 6 2 11
BITMAP
E600
6600
3300
3300
1100
1980
ENDCHAR
STARTCHAR 0249
ENCODING 585
SWIDTH 677 0
DWIDTH 16 0
BBX 13 6 2 11
BITMAP
3BB8
3330
7730
6660
6660
CCC0
ENDCHAR
STARTCHAR 024A
ENCODING 586
SWIDTH 677 0
DWIDTH 16 0
BBX 13 6 2 11
BITMAP
E660
6660
3330
3330
1110
1998
ENDCHAR
STARTCHAR 024B
ENCODING 587
SWIDTH 338 0
DWIDTH 8 0
BBX 6 2 1 6
BITMAP
FC
FC
ENDCHAR
STARTCHAR 024C
ENCODING 588
SWIDTH 338 0
DWIDTH 8 0
BBX 2 3 3 7
BITMAP
C0
C0
C0
ENDCHAR
STARTCHAR 024D
ENCODING 589
SWIDTH 338 0
DWIDTH 8 0
BBX 6 2 1 6
BITMAP
FC
FC
ENDCHAR
STARTCHAR 024E
ENCODING 590
SWIDTH 1016 0
DWIDTH 24 0
BBX 18 2 3 6
BITMAP
FFFFC0
FFFFC0
ENDCHAR
STARTCHAR 024F
ENCODING 591
SWIDTH 338 0
DWIDTH 8 0
BBX 5 6 2 6
BITMAP
80
E0
F0
F8
E0
80
ENDCHAR
STARTCHAR 0250
ENCODING 592
SWIDTH 127 0
DWIDTH 3 0
BBX 0 0 0 0
BITMAP
ENDCHAR
STARTCHAR 0251
ENCODING 593
SWIDTH 0 0
DWIDTH 0 0
BBX 0 0 0 0
BITMAP
ENDCHAR
STARTCHAR 0252
ENCODING 594
SWIDTH 0 0
DWIDTH 0 0
BBX 0 0 0 0
BITMAP
ENDCHAR
STARTCHAR 0253
ENCODING 595
SWIDTH 0 0
DWIDTH 0 0
BBX 0 0 0 0
BITMAP
ENDCHAR
STARTCHAR 0254
ENCODING 596
SWIDTH 0 0
DWIDTH 0 0
BBX 0 0 0 0
BITMAP
ENDCHAR
STARTCHAR 0255
ENCODING 597
SWIDTH 0 0
DWIDTH 0 0
BBX 0 0 0 0
BITMAP
ENDCHAR
STARTCHAR 0256
ENCODING 598
SWIDTH 0 0
DWIDTH 0 0
BBX 0 0 0 0
BITMAP
ENDCHAR
STARTCHAR 0257
ENCODING 599
SWIDTH 0 0
DWIDTH 0 0
BBX 0 0 0 0
BITMAP
ENDCHAR
STARTCHAR 0258
ENCODING 600
SWIDTH 296 0
DWIDTH 7 0
BBX 0 0 0 0
BITMAP
ENDCHAR
STARTCHAR 0259
ENCODING 601
SWIDTH 296 0
DWIDTH 7 0
BBX 0 0 0 0
BITMAP
ENDCHAR
STARTCHAR 025A
ENCODING 602
SWIDTH 296 0
DWIDTH 7 0
BBX 0 0 0 0
BITMAP
ENDCHAR
STARTCHAR 025B
ENCODING 603
SWIDTH 296 0
DWIDTH 7 0
BBX 0 0 0 0
BITMAP
ENDCHAR
STARTCHAR 025C
ENCODING 604
SWIDTH 296 0
DWIDTH 7 0
BBX 0 0 0 0
BITMAP
ENDCHAR
STARTCHAR 025D
ENCODING 605
SWIDTH 296 0
DWIDTH 7 0
BBX 0 0 0 0
BITMAP
ENDCHAR
STARTCHAR 025E
ENCODING 606
SWIDTH 296 0
DWIDTH 7 0
BBX 0 0 0 0
BITMAP
ENDCHAR
STARTCHAR 025F
ENCODING 607
SWIDTH 296 0
DWIDTH 7 0
BBX 0 0 0 0
BITMAP
ENDCHAR
STARTCHAR 0260
ENCODING 608
SWIDTH 296 0
DWIDTH 7 0
BBX 0 0 0 0
BITMAP
ENDCHAR
STARTCHAR 0261
ENCODING 609
SWIDTH 0 0
DWIDTH 0 0
BBX 0 0 0 0
BITMAP
ENDCHAR
STARTCHAR 0262
ENCODING 610
SWIDTH 0 0
DWIDTH 0 0
BBX 0 0 0 0
BITMAP
ENDCHAR
STARTCHAR 0263
ENCODING 611
SWIDTH 0 0
DWIDTH 0 0
BBX 0 0 0 0
BITMAP
ENDCHAR
STARTCHAR 0264
ENCODING 612
SWIDTH 0 0
DWIDTH 0 0
BBX 0 0 0 0
BITMAP
ENDCHAR
STARTCHAR 0265
ENCODING 613
SWIDTH 0 0
DWIDTH 0 0
BBX 0 0 0 0
BITMAP
ENDCHAR
STARTCHAR 0266
ENCODING 614
SWIDTH 127 0
DWIDTH 3 0
BBX 0 0 0 0
BITMAP
ENDCHAR
STARTCHAR 0267
ENCODING 615
SWIDTH 84 0
DWIDTH 2 0
BBX 0 0 0 0
BITMAP
ENDCHAR
STARTCHAR 0268
ENCODING 616
SWIDTH 338 0
DWIDTH 8 0
BBX 8 4 0 -6
BITMAP
FF
00
00
FF
ENDCHAR
STARTCHAR 0269
ENCODING 617
SWIDTH 423 0
DWIDTH 10 0
BBX 6 17 2 0
BITMAP
CC
CC
CC
CC
CC
CC
CC
CC
CC
CC
CC
CC
CC
CC
CC
CC
CC
ENDCHAR
STARTCHAR 026A
ENCODING 618
SWIDTH 550 0
DWIDTH 13 0
BBX 10 17 2 0
BITMAP
1F00
7F80
EDC0
CCC0
CCC0
CCC0
0DC0
0F80
0F00
0E00
0C00
0C00
0C00
0000
0000
0C00
0C00
ENDCHAR
STARTCHAR 026B
ENCODING 619
SWIDTH 338 0
DWIDTH 8 0
BBX 6 2 1 6
BITMAP
FC
FC
ENDCHAR
STARTCHAR 026C
ENCODING 620
SWIDTH 338 0
DWIDTH 8 0
BBX 8 1 0 15
BITMAP
FF
ENDCHAR
STARTCHAR 026D
ENCODING 621
SWIDTH 550 0
DWIDTH 13 0
BBX 11 10 1 4
BITMAP
FF00
C7C0
C7E0
C7E0
C7E0
C7E0
C7E0
C7E0
C7C0
FF80
ENDCHAR
STARTCHAR 026E
ENCODING 622
SWIDTH 550 0
DWIDTH 13 0
BBX 11 10 1 4
BITMAP
1FE0
3E20
7E20
7E20
FE20
FE20
7E20
7E20
3E20
1FE0
ENDCHAR
STARTCHAR 026F
ENCODING 623
SWIDTH 677 0
DWIDTH 16 0
BBX 14 23 1 0
BITMAP
0100
0780
0480
0480
0780
0000
0300
0780
0780
0FC0
0CC0
0CC0
18E0
1860
1860
3070
3FF0
7FF0
6038
6018
E01C
C01C
C00C
ENDCHAR
STARTCHAR 0270
ENCODING 624
SWIDTH 592 0
DWIDTH 14 0
BBX 12 17 2 0
BITMAP
0070
0070
0070
0070
0070
0070
0070
0070
7FF0
7FF0
0070
0070
0070
0070
0070
FFF0
FFF0
ENDCHAR
STARTCHAR 0271
ENCODING 625
SWIDTH 550 0
DWIDTH 13 0
BBX 11 14 1 -1
BITMAP
1F00
3F80
61C0
C0E0
C060
0060
FFE0
FFE0
C060
C060
E0C0
71C0
3F80
1F00
ENDCHAR
STARTCHAR 0272
ENCODING 626
SWIDTH 889 0
DWIDTH 21 0
BBX 19 17 1 0
BITMAP
07F060
1FF8E0
3C1FE0
700E00
600700
E00300
E00300
C00300
C00300
C00300
C00300
E00700
600700
700E00
381C00
1FF800
07E000
ENDCHAR
STARTCHAR 0273
ENCODING 627
SWIDTH 677 0
DWIDTH 16 0
BBX 14 14 1 -1
BITMAP
1F1C
3F8C
71FC
E0F0
C060
C060
C060
C060
C060
C060
E0E0
71C0
7F80
1F00
ENDCHAR
STARTCHAR 0274
ENCODING 628
SWIDTH 0 0
DWIDTH 0 0
BBX 3 5 -8 14
BITMAP
C0
40
20
40
C0
ENDCHAR
STARTCHAR 0275
ENCODING 629
SWIDTH 0 0
DWIDTH 0 0
BBX 3 5 -8 14
BITMAP
60
C0
80
C0
60
ENDCHAR
STARTCHAR 0276
ENCODING 630
SWIDTH 0 0
DWIDTH 0 0
BBX 3 5 -8 -5
BITMAP
60
C0
80
C0
60
ENDCHAR
STARTCHAR 0277
ENCODING 631
SWIDTH 0 0
DWIDTH 0 0
BBX 3 5 -8 -5
BITMAP
C0
40
20
40
C0
ENDCHAR
STARTCHAR 0278
ENCODING 632
SWIDTH 0 0
DWIDTH 0 0
BBX 5 7 -9 11
BITMAP
70
98
08
F8
88
98
E8
ENDCHAR
STARTCHAR 0279
ENCODING 633
SWIDTH 0 0
DWIDTH 0 0
BBX 5 7 -9 11
BITMAP
70
88
88
F8
80
88
70
ENDCHAR
STARTCHAR 027A
ENCODING 634
SWIDTH 0 0
DWIDTH 0 0
BBX 1 8 -7 12
BITMAP
80
00
80
80
80
80
80
80
ENDCHAR
STARTCHAR 027B
ENCODING 635
SWIDTH 0 0
DWIDTH 0 0
BBX 5 7 -9 11
BITMAP
70
88
88
88
88
88
70
ENDCHAR
STARTCHAR 027C
ENCODING 636
SWIDTH 0 0
DWIDTH 0 0
BBX 5 7 -9 11
BITMAP
88
88
88
88
88
98
68
ENDCHAR
STARTCHAR 027D
ENCODING 637
SWIDTH 0 0
DWIDTH 0 0
BBX 5 7 -9 11
BITMAP
70
88
80
80
80
88
70
ENDCHAR
STARTCHAR 027E
ENCODING 638
SWIDTH 0 0
DWIDTH 0 0
BBX 5 9 -9 11
BITMAP
08
08
78
88
88
88
88
88
78
ENDCHAR
STARTCHAR 027F
ENCODING 639
SWIDTH 0 0
DWIDTH 0 0
BBX 5 8 -9 12
BITMAP
80
80
F0
88
88
88
88
88
ENDCHAR
STARTCHAR 0280
ENCODING 640
SWIDTH 0 0
DWIDTH 0 0
BBX 9 6 -11 12
BITMAP
B700
C980
8980
8980
8980
8980
ENDCHAR
STARTCHAR 0281
ENCODING 641
SWIDTH 0 0
DWIDTH 0 0
BBX 3 6 -8 12
BITMAP
E0
80
80
80
80
80
ENDCHAR
STARTCHAR 0282
ENCODING 642
SWIDTH 0 0
DWIDTH 0 0
BBX 3 8 -8 11
BITMAP
40
E0
40
40
40
40
60
60
ENDCHAR
STARTCHAR 0283
ENCODING 643
SWIDTH 0 0
DWIDTH 0 0
BBX 5 6 -9 12
BITMAP
88
88
50
50
50
20
ENDCHAR
STARTCHAR 0284
ENCODING 644
SWIDTH 0 0
DWIDTH 0 0
BBX 5 6 -9 12
BITMAP
88
50
60
70
50
88
ENDCHAR
STARTCHAR 0285
ENCODING 645
SWIDTH 0 0
DWIDTH 0 0
BBX 7 4 -10 -6
BITMAP
FE
00
00
FE
ENDCHAR
STARTCHAR 0286
ENCODING 646
SWIDTH 0 0
DWIDTH 0 0
BBX 7 9 -10 4
BITMAP
06
0C
0C
18
10
30
60
60
C0
ENDCHAR
STARTCHAR 0287
ENCODING 647
SWIDTH 0 0
DWIDTH 0 0
BBX 6 6 -10 -7
BITMAP
10
10
FC
10
10
10
ENDCHAR
STARTCHAR 0288
ENCODING 648
SWIDTH 0 0
DWIDTH 0 0
BBX 6 6 -10 -7
BITMAP
FC
10
10
10
10
10
ENDCHAR
STARTCHAR 0289
ENCODING 649
SWIDTH 0 0
DWIDTH 0 0
BBX 6 6 -10 -7
BITMAP
10
10
10
10
10
FC
ENDCHAR
STARTCHAR 028A
ENCODING 650
SWIDTH 0 0
DWIDTH 0 0
BBX 6 6 -10 -7
BITMAP
04
04
FC
04
04
04
ENDCHAR
STARTCHAR 028B
ENCODING 651
SWIDTH 0 0
DWIDTH 0 0
BBX 6 6 -10 -7
BITMAP
80
80
FC
80
80
80
ENDCHAR
STARTCHAR 028C
ENCODING 652
SWIDTH 0 0
DWIDTH 0 0
BBX 7 5 -10 14
BITMAP
7C
C6
82
38
38
ENDCHAR
STARTCHAR 028D
ENCODING 653
SWIDTH 169 0
DWIDTH 4 0
BBX 2 7 1 10
BITMAP
40
40
40
40
80
80
80
ENDCHAR
STARTCHAR 028E
ENCODING 654
SWIDTH 296 0
DWIDTH 7 0
BBX 5 7 1 10
BITMAP
48
48
48
48
90
90
90
ENDCHAR
STARTCHAR 028F
ENCODING 655
SWIDTH 169 0
DWIDTH 4 0
BBX 2 7 1 10
BITMAP
40
40
40
40
80
80
80
ENDCHAR
STARTCHAR 0290
ENCODING 656
SWIDTH 169 0
DWIDTH 4 0
BBX 2 7 1 -6
BITMAP
40
40
40
40
40
C0
80
ENDCHAR
STARTCHAR 0291
ENCODING 657
SWIDTH 550 0
DWIDTH 13 0
BBX 12 13 1 0
BITMAP
3000
3000
1800
FFF0
FFF0
0C00
0600
0600
FFF0
FFF0
0300
0180
0180
ENDCHAR
STARTCHAR 0292
ENCODING 658
SWIDTH 550 0
DWIDTH 13 0
BBX 13 13 0 0
BITMAP
00C0
00C0
0180
FFF8
FFF8
0300
0700
0600
FFF8
FFF8
0C00
1800
1800
ENDCHAR
STARTCHAR 0293
ENCODING 659
SWIDTH 508 0
DWIDTH 12 0
BBX 10 17 1 0
BITMAP
3C00
7C00
6400
C000
C000
C000
C000
DE00
FF80
E380
E1C0
C0C0
E0C0
60C0
71C0
3F80
1F00
ENDCHAR
STARTCHAR 0294
ENCODING 660
SWIDTH 508 0
DWIDTH 12 0
BBX 10 17 1 0
BITMAP
1E00
1F00
0180
0180
00C0
00C0
00C0
3CC0
7EC0
E3C0
C1C0
C1C0
C180
C180
E300
7E00
3C00
ENDCHAR
STARTCHAR 0295
ENCODING 661
SWIDTH 720 0
DWIDTH 17 0
BBX 13 20 3 -3
BITMAP
7FF8
7FF8
0038
0070
00E0
01C0
0380
0700
0600
0C00
0C00
0E00
0700
0380
01C0
00E0
0070
0038
FFF8
FFF8
ENDCHAR
STARTCHAR 0296
ENCODING 662
SWIDTH 720 0
DWIDTH 17 0
BBX 14 20 0 -3
BITMAP
7FF8
7FF8
7000
3800
1C00
0E00
0600
0300
0380
01C0
01C0
0380
0300
0600
0E00
1C00
3800
7000
FFFC
FFFC
ENDCHAR
STARTCHAR 0297
ENCODING 663
SWIDTH 254 0
DWIDTH 6 0
BBX 10 23 1 -5
BITMAP
F000
F800
1800
1800
1C00
0C00
0C00
0C00
0C00
0C00
0C00
0C00
0C00
0C00
0C00
0C00
0C00
0C00
0E00
0600
0600
07C0
03C0
ENDCHAR
STARTCHAR 0298
ENCODING 664
SWIDTH 254 0
DWIDTH 6 0
BBX 9 23 -4 -5
BITMAP
0380
0780
0E00
0C00
0C00
0C00
0C00
0C00
0C00
1C00
1C00
1C00
1C00
1800
1800
1800
1800
1800
1800
1800
3000
F000
E000
ENDCHAR
STARTCHAR 0299
ENCODING 665
SWIDTH 550 0
DWIDTH 13 0
BBX 15 22 -2 0
BITMAP
C000
C000
C000
6000
6000
2000
3000
3000
1000
1800
1810
081C
0C36
0C30
0420
0660
0660
02C0
03C0
03C0
0180
0180
ENDCHAR
STARTCHAR 029A
ENCODING 666
SWIDTH 550 0
DWIDTH 13 0
BBX 15 22 0 0
BITMAP
0006
0006
0004
000C
000C
0008
0018
0018
0010
0030
1030
7020
D860
1860
1840
0CC0
0CC0
0480
0780
0780
0300
0300
ENDCHAR
STARTCHAR 029B
ENCODING 667
SWIDTH 550 0
DWIDTH 13 0
BBX 13 8 0 2
BITMAP
81E0
C7F0
FF18
3C08
81E0
C7F0
FF18
3C08
ENDCHAR
STARTCHAR 029C
ENCODING 668
SWIDTH 550 0
DWIDTH 13 0
BBX 12 8 1 2
BITMAP
7810
FE30
8FF0
03C0
7810
FE30
8FF0
03C0
ENDCHAR
STARTCHAR 029D
ENCODING 669
SWIDTH 1101 0
DWIDTH 26 0
BBX 24 17 1 0
BITMAP
3C03F0
460FFC
C21E0E
C21807
C23803
463003
3C3000
007000
007000
007000
003000
003003
003803
001807
001E0E
000FFC
0003F0
ENDCHAR
STARTCHAR 029E
ENCODING 670
SWIDTH 1016 0
DWIDTH 24 0
BBX 22 17 1 0
BITMAP
3C3FFC
463FFC
C23800
C23800
C23800
463800
3C3800
003FF8
003FF8
003800
003800
003800
003800
003800
003800
003800
003800
ENDCHAR
STARTCHAR 029F
ENCODING 671
SWIDTH 677 0
DWIDTH 16 0
BBX 13 17 2 0
BITMAP
C038
C070
C0E0
C1C0
C380
C700
CE00
DE00
FF00
F700
E380
C1C0
C0C0
C0E0
C070
C038
C038
ENDCHAR
STARTCHAR 02A0
ENCODING 672
SWIDTH 296 0
DWIDTH 7 0
BBX 3 17 2 0
BITMAP
E0
E0
E0
E0
E0
E0
E0
E0
E0
E0
E0
E0
E0
E0
E0
E0
E0
ENDCHAR
STARTCHAR 02A1
ENCODING 673
SWIDTH 550 0
DWIDTH 13 0
BBX 9 17 2 0
BITMAP
E180
E180
E180
E180
E180
E180
E180
E180
E180
E180
E180
E180
E180
E180
E180
E180
E180
ENDCHAR
STARTCHAR 02A2
ENCODING 674
SWIDTH 847 0
DWIDTH 20 0
BBX 16 17 2 0
BITMAP
E187
E187
E187
E187
E187
E187
E187
E187
E187
E187
E187
E187
E187
E187
E187
E187
E187
ENDCHAR
STARTCHAR 02A3
ENCODING 675
SWIDTH 931 0
DWIDTH 22 0
BBX 20 17 2 0
BITMAP
E70070
E30060
E380E0
E380E0
E180C0
E1C1C0
E0C1C0
E0C180
E0E380
E06380
E06300
E07700
E03600
E03E00
E03E00
E01C00
E01C00
ENDCHAR
STARTCHAR 02A4
ENCODING 676
SWIDTH 677 0
DWIDTH 16 0
BBX 14 17 1 0
BITMAP
C00C
E01C
E018
6018
7038
3030
3070
3870
1860
1CE0
1CE0
0CC0
0FC0
0F80
0780
0780
0300
ENDCHAR
STARTCHAR 02A5
ENCODING 677
SWIDTH 931 0
DWIDTH 22 0
BBX 19 17 1 0
BITMAP
C00C60
E01C60
E01860
601860
703860
303060
307060
387060
186060
1CE060
1CE060
0CC060
0FC060
0F8060
078060
078060
030060
ENDCHAR
STARTCHAR 02A6
ENCODING 678
SWIDTH 1228 0
DWIDTH 29 0
BBX 26 17 1 0
BITMAP
C00C60C0
E01C60C0
E01860C0
601860C0
703860C0
303060C0
307060C0
387060C0
186060C0
1CE060C0
1CE060C0
0CC060C0
0FC060C0
0F8060C0
078060C0
078060C0
030060C0
ENDCHAR
STARTCHAR 02A7
ENCODING 679
SWIDTH 1482 0
DWIDTH 35 0
BBX 33 17 1 0
BITMAP
C00C60C380
E01C60C380
E01860C380
601860C380
703860C380
303060C380
307060C380
387060C380
186060C380
1CE060C380
1CE060C380
0CC060C380
0FC060C380
0F8060C380
078060C380
078060C380
030060C380
ENDCHAR
STARTCHAR 02A8
ENCODING 680
SWIDTH 931 0
DWIDTH 22 0
BBX 20 17 2 0
BITMAP
E38060
E380E0
E1C1C0
E0E180
E06380
E07700
E03E00
E01C00
E01C00
E03E00
E03600
E07700
E0E380
E1C1C0
E1C1C0
E380E0
E70070
ENDCHAR
STARTCHAR 02A9
ENCODING 681
SWIDTH 677 0
DWIDTH 16 0
BBX 14 17 1 0
BITMAP
E01C
7038
3030
3870
1CE0
0CC0
0FC0
0780
0780
0780
0FC0
1CE0
1860
3870
7038
6018
E01C
ENDCHAR
STARTCHAR 02AA
ENCODING 682
SWIDTH 931 0
DWIDTH 22 0
BBX 19 17 1 0
BITMAP
E01C60
703860
303060
387060
1CE060
0CC060
0FC060
078060
078060
078060
0FC060
1CE060
186060
387060
703860
601860
E01C60
ENDCHAR
STARTCHAR 02AB
ENCODING 683
SWIDTH 1228 0
DWIDTH 29 0
BBX 26 17 1 0
BITMAP
E01C60C0
703860C0
303060C0
387060C0
1CE060C0
0CC060C0
0FC060C0
078060C0
078060C0
078060C0
0FC060C0
1CE060C0
186060C0
387060C0
703860C0
601860C0
E01C60C0
ENDCHAR
STARTCHAR 02AC
ENCODING 684
SWIDTH 550 0
DWIDTH 13 0
BBX 11 17 2 0
BITMAP
C000
C000
C000
C000
C000
C000
C000
C000
C000
C000
C000
C000
C000
C000
C000
FFE0
FFE0
ENDCHAR
STARTCHAR 02AD
ENCODING 685
SWIDTH 720 0
DWIDTH 17 0
BBX 15 17 1 0
BITMAP
07E0
1FF8
3838
701C
600E
E006
E000
C000
C000
C000
E000
E006
600E
700C
383C
1FF8
07E0
ENDCHAR
STARTCHAR 02AE
ENCODING 686
SWIDTH 720 0
DWIDTH 17 0
BBX 14 17 2 0
BITMAP
FFC0
FFE0
C070
C038
C018
C01C
C01C
C01C
C00C
C00C
C01C
C018
C018
C038
C070
FFE0
FF80
ENDCHAR
STARTCHAR 02AF
ENCODING 687
SWIDTH 847 0
DWIDTH 20 0
BBX 16 17 2 0
BITMAP
E007
F00F
F00F
F00F
D81B
D81B
D81B
CC33
CC33
CC33
C663
C663
C663
C3C3
C3C3
C3C3
C183
ENDCHAR
STARTCHAR 02B0
ENCODING 688
SWIDTH 211 0
DWIDTH 5 0
BBX 2 17 2 0
BITMAP
C0
C0
00
00
C0
C0
C0
C0
C0
C0
C0
C0
C0
C0
C0
C0
C0
ENDCHAR
STARTCHAR 02B1
ENCODING 689
SWIDTH 423 0
DWIDTH 10 0
BBX 7 17 2 0
BITMAP
C6
C6
00
00
C6
C6
C6
C6
C6
C6
C6
C6
C6
C6
C6
C6
C6
ENDCHAR
STARTCHAR 02B2
ENCODING 690
SWIDTH 677 0
DWIDTH 16 0
BBX 12 17 2 0
BITMAP
C630
C630
0000
0000
C630
C630
C630
C630
C630
C630
C630
C630
C630
C630
C630
C630
C630
ENDCHAR
STARTCHAR 02B3
ENCODING 691
SWIDTH 720 0
DWIDTH 17 0
BBX 15 17 2 0
BITMAP
C000
C000
0000
0000
CC0E
CC0C
CE0C
C61C
C618
C718
C330
C330
C330
C1E0
C1E0
C1E0
C0C0
ENDCHAR
STARTCHAR 02B4
ENCODING 692
SWIDTH 508 0
DWIDTH 12 0
BBX 11 13 0 0
BITMAP
E060
6060
60E0
70C0
30C0
31C0
3980
1980
1B80
1B00
0F00
0E00
0600
ENDCHAR
STARTCHAR 02B5
ENCODING 693
SWIDTH 720 0
DWIDTH 17 0
BBX 15 17 0 0
BITMAP
0006
0006
0000
0000
E066
6066
60E6
70C6
30C6
31C6
3986
1986
1B86
1B06
0F06
0E06
0606
ENDCHAR
STARTCHAR 02B6
ENCODING 694
SWIDTH 931 0
DWIDTH 22 0
BBX 21 17 0 0
BITMAP
000618
000618
000000
000000
E06618
606618
60E618
70C618
30C618
31C618
398618
198618
1B8618
1B0618
0F0618
0E0618
060618
ENDCHAR
STARTCHAR 02B7
ENCODING 695
SWIDTH 1185 0
DWIDTH 28 0
BBX 26 17 0 0
BITMAP
000618C0
000618C0
00000000
00000000
E06618C0
606618C0
60E618C0
70C618C0
30C618C0
31C618C0
398618C0
198618C0
1B8618C0
1B0618C0
0F0618C0
0E0618C0
060618C0
ENDCHAR
STARTCHAR 02B8
ENCODING 696
SWIDTH 720 0
DWIDTH 17 0
BBX 14 17 2 0
BITMAP
C000
C000
0000
0000
CE0C
C61C
C738
C330
C1F0
C1E0
C0C0
C1E0
C3F0
C330
C738
CE1C
CC0C
ENDCHAR
STARTCHAR 02B9
ENCODING 697
SWIDTH 508 0
DWIDTH 12 0
BBX 11 13 0 0
BITMAP
60E0
70C0
39C0
1980
1F00
0F00
0E00
0F00
1F80
3980
31C0
70C0
E0E0
ENDCHAR
STARTCHAR 02BA
ENCODING 698
SWIDTH 720 0
DWIDTH 17 0
BBX 15 17 0 0
BITMAP
0006
0006
0000
0000
60E6
70C6
39C6
1986
1F06
0F06
0E06
0F06
1F86
3986
31C6
70C6
E0E6
ENDCHAR
STARTCHAR 02BB
ENCODING 699
SWIDTH 931 0
DWIDTH 22 0
BBX 21 17 0 0
BITMAP
000618
000618
000000
000000
60E618
70C618
39C618
198618
1F0618
0F0618
0E0618
0F0618
1F8618
398618
31C618
70C618
E0E618
ENDCHAR
STARTCHAR 02BC
ENCODING 700
SWIDTH 211 0
DWIDTH 5 0
BBX 2 17 2 0
BITMAP
C0
C0
C0
C0
C0
C0
C0
C0
C0
C0
C0
C0
C0
C0
C0
C0
C0
ENDCHAR
STARTCHAR 02BD
ENCODING 701
SWIDTH 508 0
DWIDTH 12 0
BBX 10 13 1 0
BITMAP
1F00
3F80
71C0
E0C0
C000
C000
C000
C000
C0C0
E0C0
6180
7F80
1F00
ENDCHAR
STARTCHAR 02BE
ENCODING 702
SWIDTH 550 0
DWIDTH 13 0
BBX 11 17 1 0
BITMAP
0060
0060
0060
0060
1E60
7F60
71E0
E0E0
C0E0
C060
C060
C060
C0E0
E0E0
61E0
7F60
1E60
ENDCHAR
STARTCHAR 02BF
ENCODING 703
SWIDTH 847 0
DWIDTH 20 0
BBX 16 13 2 0
BITMAP
DE3C
FF7E
E3C7
C183
C183
C183
C183
C183
C183
C183
C183
C183
C183
ENDCHAR
STARTCHAR 02C0
ENCODING 704
SWIDTH 1228 0
DWIDTH 29 0
BBX 27 21 1 0
BITMAP
00002300
00003600
00001C00
00000000
FFC1FFE0
FFF1FFE0
E07800E0
E01801C0
E01C0380
E00C0380
E00C0700
E00C0E00
E00C1C00
E00C1800
E00C3800
E00C7000
E01CE000
E039C000
E0718000
FFF3FFE0
FFC3FFE0
ENDCHAR
STARTCHAR 02C1
ENCODING 705
SWIDTH 1101 0
DWIDTH 26 0
BBX 24 17 1 0
BITMAP
FFC0C6
FFE06C
C07038
C03800
C019FF
C01DFF
C01C07
C01C0E
C00C1C
C00C18
C01C38
C01C70
C018E0
C039C0
C07180
FFE3FF
FFC3FF
ENDCHAR
STARTCHAR 02C2
ENCODING 706
SWIDTH 974 0
DWIDTH 23 0
BBX 22 17 1 0
BITMAP
006330
0061A0
0060E0
006000
1E6FFC
7F6FFC
71E038
E0E030
C0E060
C060E0
C061C0
C06380
C0E300
E0E700
61EE00
7F7FFC
1E7FFC
ENDCHAR
STARTCHAR 02C3
ENCODING 707
SWIDTH 974 0
DWIDTH 23 0
BBX 22 17 1 0
BITMAP
E0001C
E0001C
E0001C
E0001C
E0001C
E0001C
E0001C
E0001C
E0001C
E0001C
E0001C
E00C1C
E00C1C
E00C18
E00E38
FFE7F8
FFE3E0
ENDCHAR
STARTCHAR 02C4
ENCODING 708
SWIDTH 720 0
DWIDTH 17 0
BBX 15 22 1 -5
BITMAP
E006
E006
E000
E000
E000
E006
E006
E006
E006
E006
E006
E006
E006
E006
E006
FFE6
FFE6
0006
0006
0006
001E
001C
ENDCHAR
STARTCHAR 02C5
ENCODING 709
SWIDTH 381 0
DWIDTH 9 0
BBX 7 22 1 -5
BITMAP
C6
C6
C0
C0
C0
C6
C6
C6
C6
C6
C6
C6
C6
C6
C6
C6
C6
06
06
06
1E
1C
ENDCHAR
STARTCHAR 02C6
ENCODING 710
SWIDTH 1101 0
DWIDTH 26 0
BBX 24 17 1 0
BITMAP
E00C03
F00C03
F80C03
D80C03
CC0C03
CC0C03
C60C03
C70C03
C30C03
C18C03
C18C03
C0CD83
C0ED83
C06D83
C03DC7
C03DFE
C01C7C
ENDCHAR
STARTCHAR 02C7
ENCODING 711
SWIDTH 847 0
DWIDTH 20 0
BBX 19 22 1 -5
BITMAP
E01C60
F01C60
F01C00
D81C00
CC1C00
CC1C60
C61C60
C61C60
C31C60
C19C60
C19C60
C0DC60
C0FC60
C07C60
C03C60
C03C60
C01C60
000060
000060
000060
0001E0
0001C0
ENDCHAR
STARTCHAR 02C8
ENCODING 712
SWIDTH 720 0
DWIDTH 17 0
BBX 15 22 1 -5
BITMAP
0006
0006
0000
0000
CF00
DF86
F1C6
E0C6
C0C6
C0C6
C0C6
C0C6
C0C6
C0C6
C0C6
C0C6
C0C6
0006
0006
0006
001E
001C
ENDCHAR
STARTCHAR 02C9
ENCODING 713
SWIDTH 677 0
DWIDTH 16 0
BBX 14 21 1 0
BITMAP
0C40
06C0
0380
0000
0300
0780
0780
0FC0
0CC0
0CC0
18E0
1860
1860
3070
3FF0
7FF0
6038
6018
E01C
C01C
C00C
ENDCHAR
STARTCHAR 02CA
ENCODING 714
SWIDTH 550 0
DWIDTH 13 0
BBX 12 17 1 0
BITMAP
1980
0F00
0E00
0000
1F00
7FC0
60C0
60C0
00C0
0FC0
7FC0
F0C0
C0C0
C0C0
E3C0
7FF0
3C70
ENDCHAR
STARTCHAR 02CB
ENCODING 715
SWIDTH 296 0
DWIDTH 7 0
BBX 6 21 1 0
BITMAP
CC
58
70
00
70
70
70
70
70
70
70
70
70
70
70
70
70
70
70
70
70
ENDCHAR
STARTCHAR 02CC
ENCODING 716
SWIDTH 296 0
DWIDTH 7 0
BBX 6 17 0 0
BITMAP
C4
6C
38
00
30
30
30
30
30
30
30
30
30
30
30
30
30
ENDCHAR
STARTCHAR 02CD
ENCODING 717
SWIDTH 762 0
DWIDTH 18 0
BBX 16 22 1 0
BITMAP
0630
0360
01C0
0000
0000
07F0
1FF8
3C1E
700E
6007
E003
E003
C003
C003
C003
C003
E007
6007
700E
381C
1FF8
07E0
ENDCHAR
STARTCHAR 02CE
ENCODING 718
SWIDTH 550 0
DWIDTH 13 0
BBX 11 17 1 0
BITMAP
1980
0B00
0E00
0000
1F00
3F80
71C0
E0E0
C060
C060
C060
C060
C060
E0E0
61C0
7F80
1F00
ENDCHAR
STARTCHAR 02CF
ENCODING 719
SWIDTH 720 0
DWIDTH 17 0
BBX 13 21 2 0
BITMAP
0CC0
0780
0380
0000
C018
C018
C018
C018
C018
C018
C018
C018
C018
C018
C018
C018
E018
6038
7070
3FE0
0FC0
ENDCHAR
STARTCHAR 02D0
ENCODING 720
SWIDTH 550 0
DWIDTH 13 0
BBX 10 17 1 0
BITMAP
1980
0B00
0E00
0000
E0C0
E0C0
E0C0
E0C0
E0C0
E0C0
E0C0
E0C0
E0C0
E0C0
61C0
7FC0
3EC0
ENDCHAR
STARTCHAR 02D1
ENCODING 721
SWIDTH 720 0
DWIDTH 17 0
BBX 13 23 2 0
BITMAP
1FE0
0000
0000
0CC0
0CC0
0000
C018
C018
C018
C018
C018
C018
C018
C018
C018
C018
C018
C018
E018
6038
7070
3FE0
0FC0
ENDCHAR
STARTCHAR 02D2
ENCODING 722
SWIDTH 550 0
DWIDTH 13 0
BBX 10 18 1 0
BITMAP
3FC0
0000
0000
1980
1980
E0C0
E0C0
E0C0
E0C0
E0C0
E0C0
E0C0
E0C0
E0C0
E0C0
61C0
7FC0
3EC0
ENDCHAR
STARTCHAR 02D3
ENCODING 723
SWIDTH 720 0
DWIDTH 17 0
BBX 13 24 2 0
BITMAP
01C0
0180
0300
0000
0000
0CC0
0CC0
C018
C018
C018
C018
C018
C018
C018
C018
C018
C018
C018
C018
E018
6038
7070
3FE0
0FC0
ENDCHAR
STARTCHAR 02D4
ENCODING 724
SWIDTH 550 0
DWIDTH 13 0
BBX 10 20 1 0
BITMAP
0300
0600
0400
0000
0000
3B00
3B00
E0C0
E0C0
E0C0
E0C0
E0C0
E0C0
E0C0
E0C0
E0C0
E0C0
61C0
7FC0
3EC0
ENDCHAR
STARTCHAR 02D5
ENCODING 725
SWIDTH 720 0
DWIDTH 17 0
BBX 13 24 2 0
BITMAP
0CC0
0D80
0700
0000
0000
0DC0
0DC0
C018
C018
C018
C018
C018
C018
C018
C018
C018
C018
C018
C018
E018
6038
7070
3FE0
0FC0
ENDCHAR
STARTCHAR 02D6
ENCODING 726
SWIDTH 550 0
DWIDTH 13 0
BBX 10 19 1 0
BITMAP
3180
1B00
0E00
0000
3B00
3B00
E0C0
E0C0
E0C0
E0C0
E0C0
E0C0
E0C0
E0C0
E0C0
E0C0
61C0
7FC0
3EC0
ENDCHAR
STARTCHAR 02D7
ENCODING 727
SWIDTH 720 0
DWIDTH 17 0
BBX 13 24 2 0
BITMAP
1C00
0E00
0600
0000
0000
0D80
0D80
C018
C018
C018
C018
C018
C018
C018
C018
C018
C018
C018
C018
E018
6038
7070
3FE0
0FC0
ENDCHAR
STARTCHAR 02D8
ENCODING 728
SWIDTH 550 0
DWIDTH 13 0
BBX 10 19 1 0
BITMAP
3800
1C00
0C00
0000
3B00
3B00
E0C0
E0C0
E0C0
E0C0
E0C0
E0C0
E0C0
E0C0
E0C0
E0C0
61C0
7FC0
3EC0
ENDCHAR
STARTCHAR 02D9
ENCODING 729
SWIDTH 677 0
DWIDTH 16 0
BBX 14 22 1 0
BITMAP
1FE0
0000
0CC0
0CC0
0000
0300
0780
0780
0FC0
0CC0
0CC0
18E0
1860
1860
3070
3FF0
7FF0
6038
6018
E01C
C01C
C00C
ENDCHAR
STARTCHAR 02DA
ENCODING 730
SWIDTH 550 0
DWIDTH 13 0
BBX 12 19 1 0
BITMAP
7F80
0000
0000
3300
3300
0000
1F00
7FC0
60C0
60C0
00C0
0FC0
7FC0
F0C0
C0C0
C0C0
E3C0
7FF0
3C70
ENDCHAR
STARTCHAR 02DB
ENCODING 731
SWIDTH 677 0
DWIDTH 16 0
BBX 14 22 1 0
BITMAP
1FE0
0000
0300
0300
0000
0300
0780
0780
0FC0
0CC0
0CC0
18E0
1860
1860
3070
3FF0
7FF0
6038
6018
E01C
C01C
C00C
ENDCHAR
STARTCHAR 02DC
ENCODING 732
SWIDTH 550 0
DWIDTH 13 0
BBX 12 19 1 0
BITMAP
3F80
0000
0000
0C00
0C00
0000
1F00
7FC0
60C0
60C0
00C0
0FC0
7FC0
F0C0
C0C0
C0C0
E3C0
7FF0
3C70
ENDCHAR
STARTCHAR 02DD
ENCODING 733
SWIDTH 1016 0
DWIDTH 24 0
BBX 22 20 0 0
BITMAP
003FC0
000000
000000
01FFFC
03FFFC
031800
031800
071800
061800
0E1800
0C1FF8
0C1FF8
1C1800
1FF800
3FF800
301800
301800
701800
601FFC
E01FFC
ENDCHAR
STARTCHAR 02DE
ENCODING 734
SWIDTH 889 0
DWIDTH 21 0
BBX 19 15 1 0
BITMAP
03F800
000000
3F1F00
7FBFC0
61E1C0
C0C0E0
00C060
3FFFE0
7EFFE0
E0C000
C0C000
C0C060
E3E0C0
FF3F80
3C1F00
ENDCHAR
STARTCHAR 02DF
ENCODING 735
SWIDTH 762 0
DWIDTH 18 0
BBX 16 21 1 0
BITMAP
0660
0340
01C0
0000
07E0
1FF8
3C1C
700E
6006
6006
E000
E000
E0FF
E0FF
E007
E007
6007
700F
381F
1FF3
07E3
ENDCHAR
STARTCHAR 02E0
ENCODING 736
SWIDTH 550 0
DWIDTH 13 0
BBX 11 22 1 -5
BITMAP
3300
1E00
1C00
0000
1E60
7F60
61E0
C0E0
C0E0
C060
C060
C060
C0E0
C0E0
E1E0
7F60
3EC0
00C0
C0C0
E1C0
7F80
3F00
ENDCHAR
STARTCHAR 02E1
ENCODING 737
SWIDTH 677 0
DWIDTH 16 0
BBX 13 21 2 0
BITMAP
1980
0F00
0700
0000
C038
C070
C0E0
C1C0
C380
C700
CE00
DE00
FF00
F700
E380
C1C0
C0C0
C0E0
C070
C038
C038
ENDCHAR
STARTCHAR 02E2
ENCODING 738
SWIDTH 508 0
DWIDTH 12 0
BBX 10 21 1 0
BITMAP
3100
1B00
0E00
0000
C000
C000
C000
C000
C1C0
C380
C700
CE00
CC00
DC00
FE00
E600
C700
C380
C180
C1C0
C0C0
ENDCHAR
STARTCHAR 02E3
ENCODING 739
SWIDTH 762 0
DWIDTH 18 0
BBX 16 22 1 -5
BITMAP
07F0
1FF8
3C1E
700E
6007
E003
E003
C003
C003
C003
C003
E007
6007
700E
381C
1FF8
07E0
0100
0200
0600
0780
0380
ENDCHAR
STARTCHAR 02E4
ENCODING 740
SWIDTH 550 0
DWIDTH 13 0
BBX 11 18 1 -5
BITMAP
1F00
3F80
71C0
E0E0
C060
C060
C060
C060
C060
E0E0
61C0
7F80
1F00
0C00
1800
3800
3E00
1E00
ENDCHAR
STARTCHAR 02E5
ENCODING 741
SWIDTH 762 0
DWIDTH 18 0
BBX 16 25 1 -5
BITMAP
0FF0
0000
0000
07F0
1FF8
3C1E
700E
6007
E003
E003
C003
C003
C003
C003
E007
6007
700E
381C
1FF8
07E0
0100
0200
0600
0780
0380
ENDCHAR
STARTCHAR 02E6
ENCODING 742
SWIDTH 550 0
DWIDTH 13 0
BBX 11 21 1 -5
BITMAP
3F80
0000
0000
1F00
3F80
71C0
E0E0
C060
C060
C060
C060
C060
E0E0
61C0
7F80
1F00
0C00
1800
3800
3E00
1E00
ENDCHAR
STARTCHAR 02E7
ENCODING 743
SWIDTH 211 0
DWIDTH 5 0
BBX 6 22 0 -5
BITMAP
CC
D8
70
00
00
30
30
30
30
30
30
30
30
30
30
30
30
30
30
70
E0
C0
ENDCHAR
STARTCHAR 02E8
ENCODING 744
SWIDTH 1228 0
DWIDTH 29 0
BBX 27 17 1 0
BITMAP
FFC1FFE0
FFE1FFE0
C07000E0
C03801C0
C0180380
C01C0700
C01C0700
C00C0E00
C00C1C00
C00C3800
C01C3000
C01C7000
C018E000
C039C000
C0738000
FFE3FFE0
FFC3FFE0
ENDCHAR
STARTCHAR 02E9
ENCODING 745
SWIDTH 1143 0
DWIDTH 27 0
BBX 25 17 1 0
BITMAP
FFC00000
FFF00000
E0780000
E0380000
E01DFF80
E01DFF80
E00C0700
E00C0600
E00C0C00
E00C1C00
E00C3800
E01C7000
E01C6000
E038E000
E079C000
FFF3FF80
FFC3FF80
ENDCHAR
STARTCHAR 02EA
ENCODING 746
SWIDTH 1016 0
DWIDTH 24 0
BBX 22 17 1 0
BITMAP
006000
006000
006000
006000
1E6FFC
7F6FFC
71E038
E0E030
C0E060
C060E0
C061C0
C06380
C0E300
E0E600
61EE00
7F7FFC
1E7FFC
ENDCHAR
STARTCHAR 02EB
ENCODING 747
SWIDTH 762 0
DWIDTH 18 0
BBX 16 21 1 0
BITMAP
00C0
0180
0300
0000
07E0
1FF8
3C1C
700E
6006
6006
E000
E000
E0FF
E0FF
E007
E007
6007
700F
381F
1FF3
07E3
ENDCHAR
STARTCHAR 02EC
ENCODING 748
SWIDTH 720 0
DWIDTH 17 0
BBX 13 21 2 0
BITMAP
0C00
0600
0300
0000
E018
E018
F018
F818
D818
CC18
CC18
C618
C318
C318
C198
C198
C0D8
C078
C078
C038
C038
ENDCHAR
STARTCHAR 02ED
ENCODING 749
SWIDTH 550 0
DWIDTH 13 0
BBX 10 17 2 0
BITMAP
3800
1800
0C00
0000
DF00
FF80
E180
C1C0
C1C0
C1C0
C1C0
C1C0
C1C0
C1C0
C1C0
C1C0
C1C0
ENDCHAR
STARTCHAR 02EE
ENCODING 750
SWIDTH 677 0
DWIDTH 16 0
BBX 14 26 1 0
BITMAP
00C0
0180
0300
0300
0480
0480
0480
0300
0000
0300
0780
0780
0FC0
0CC0
0CC0
18E0
1860
1860
3070
3FF0
7FF0
6038
6018
E01C
C01C
C00C
ENDCHAR
STARTCHAR 02EF
ENCODING 751
SWIDTH 550 0
DWIDTH 13 0
BBX 12 22 1 0
BITMAP
0300
0600
0400
0000
0E00
1100
1100
1100
0E00
1F00
7FC0
60C0
60C0
00C0
0FC0
7FC0
F0C0
C0C0
C0C0
E3C0
7FF0
3C70
ENDCHAR
STARTCHAR 02F0
ENCODING 752
SWIDTH 1016 0
DWIDTH 24 0
BBX 22 21 0 0
BITMAP
000300
000600
000C00
000000
01FFFC
03FFFC
031800
031800
071800
061800
0E1800
0C1FF8
0C1FF8
1C1800
1FF800
3FF800
301800
301800
701800
601FFC
E01FFC
ENDCHAR
STARTCHAR 02F1
ENCODING 753
SWIDTH 889 0
DWIDTH 21 0
BBX 19 17 1 0
BITMAP
007000
00E000
00C000
000000
3F1F00
7FBFC0
61E1C0
C0C0E0
00C060
3FFFE0
7EFFE0
E0C000
C0C000
C0C060
E3E0C0
FF3F80
3C1F00
ENDCHAR
STARTCHAR 02F2
ENCODING 754
SWIDTH 762 0
DWIDTH 18 0
BBX 16 21 1 0
BITMAP
00C0
0180
0300
0000
07E1
1FFB
3C1E
700E
601F
E033
E063
C0C3
C183
C303
C203
E407
6807
700E
3C1C
5FF8
87E0
ENDCHAR
STARTCHAR 02F3
ENCODING 755
SWIDTH 592 0
DWIDTH 14 0
BBX 12 17 1 0
BITMAP
0300
0600
0400
0000
0F90
3FE0
70E0
60E0
61F0
E330
C230
C430
E870
7060
70E0
7FC0
9F80
ENDCHAR
STARTCHAR 02F4
ENCODING 756
SWIDTH 677 0
DWIDTH 16 0
BBX 14 21 1 0
BITMAP
3B00
1980
0C80
0000
0300
0780
0780
0FC0
0CC0
0CC0
18E0
1860
1860
3070
3FF0
7FF0
6038
6018
E01C
C01C
C00C
ENDCHAR
STARTCHAR 02F5
ENCODING 757
SWIDTH 550 0
DWIDTH 13 0
BBX 12 17 1 0
BITMAP
6600
3300
1100
0000
1F00
7FC0
60C0
60C0
00C0
0FC0
7FC0
F0C0
C0C0
C0C0
E3C0
7FF0
3C70
ENDCHAR
STARTCHAR 02F6
ENCODING 758
SWIDTH 677 0
DWIDTH 16 0
BBX 14 20 1 0
BITMAP
0780
0840
1860
0300
0780
0780
0FC0
0CC0
0CC0
18E0
1860
1860
3070
3FF0
7FF0
6038
6018
E01C
C01C
C00C
ENDCHAR
STARTCHAR 02F7
ENCODING 759
SWIDTH 550 0
DWIDTH 13 0
BBX 12 17 1 0
BITMAP
1F00
3180
2080
0000
1F00
7FC0
60C0
60C0
00C0
0FC0
7FC0
F0C0
C0C0
C0C0
E3C0
7FF0
3C70
ENDCHAR
STARTCHAR 02F8
ENCODING 760
SWIDTH 677 0
DWIDTH 16 0
BBX 13 21 2 0
BITMAP
3300
1980
0880
0000
FFF0
FFF0
C000
C000
C000
C000
C000
FFF0
FFF0
C000
C000
C000
C000
C000
C000
FFF8
FFF8
ENDCHAR
STARTCHAR 02F9
ENCODING 761
SWIDTH 550 0
DWIDTH 13 0
BBX 11 17 1 0
BITMAP
6600
3300
1900
0000
1F00
3FC0
70C0
E060
C060
FFE0
FFE0
C000
C000
E060
70C0
3FC0
1F00
ENDCHAR
STARTCHAR 02FA
ENCODING 762
SWIDTH 677 0
DWIDTH 16 0
BBX 13 21 2 0
BITMAP
0F80
1880
1040
0000
FFF0
FFF0
C000
C000
C000
C000
C000
FFF0
FFF0
C000
C000
C000
C000
C000
C000
FFF8
FFF8
ENDCHAR
STARTCHAR 02FB
ENCODING 763
SWIDTH 550 0
DWIDTH 13 0
BBX 11 17 1 0
BITMAP
0F00
1180
2080
0000
1F00
3FC0
70C0
E060
C060
FFE0
FFE0
C000
C000
E060
70C0
3FC0
1F00
ENDCHAR
STARTCHAR 02FC
ENCODING 764
SWIDTH 296 0
DWIDTH 7 0
BBX 7 21 -1 0
BITMAP
CC
6C
66
00
1C
1C
1C
1C
1C
1C
1C
1C
1C
1C
1C
1C
1C
1C
1C
1C
1C
ENDCHAR
STARTCHAR 02FD
ENCODING 765
SWIDTH 211 0
DWIDTH 5 0
BBX 7 17 -2 0
BITMAP
CC
66
22
00
0C
0C
0C
0C
0C
0C
0C
0C
0C
0C
0C
0C
0C
ENDCHAR
STARTCHAR 02FE
ENCODING 766
SWIDTH 296 0
DWIDTH 7 0
BBX 7 21 0 0
BITMAP
7C
C6
82
00
38
38
38
38
38
38
38
38
38
38
38
38
38
38
38
38
38
ENDCHAR
STARTCHAR 02FF
ENCODING 767
SWIDTH 211 0
DWIDTH 5 0
BBX 7 17 -1 0
BITMAP
7C
C6
82
00
18
18
18
18
18
18
18
18
18
18
18
18
18
ENDCHAR
STARTCHAR 0300
ENCODING 768
SWIDTH 762 0
DWIDTH 18 0
BBX 16 22 1 0
BITMAP
0DC0
0CC0
0660
0000
0000
07F0
1FF8
3C1E
700E
6007
E003
E003
C003
C003
C003
C003
E007
6007
700E
381C
1FF8
07E0
ENDCHAR
STARTCHAR 0301
ENCODING 769
SWIDTH 550 0
DWIDTH 13 0
BBX 11 17 1 0
BITMAP
6600
3300
1100
0000
1F00
3F80
71C0
E0E0
C060
C060
C060
C060
C060
E0E0
61C0
7F80
1F00
ENDCHAR
STARTCHAR 0302
ENCODING 770
SWIDTH 762 0
DWIDTH 18 0
BBX 16 21 1 0
BITMAP
03C0
0420
0430
0000
07F0
1FF8
3C1E
700E
6007
E003
E003
C003
C003
C003
C003
E007
6007
700E
381C
1FF8
07E0
ENDCHAR
STARTCHAR 0303
ENCODING 771
SWIDTH 550 0
DWIDTH 13 0
BBX 11 17 1 0
BITMAP
1F00
3180
2080
0000
1F00
3F80
71C0
E0E0
C060
C060
C060
C060
C060
E0E0
61C0
7F80
1F00
ENDCHAR
STARTCHAR 0304
ENCODING 772
SWIDTH 720 0
DWIDTH 17 0
BBX 14 21 2 0
BITMAP
3300
1980
0880
0000
FFE0
FFF0
C038
C018
C01C
C018
C018
C038
FFF0
FFF0
C038
C018
C018
C018
C018
C01C
C01C
ENDCHAR
STARTCHAR 0305
ENCODING 773
SWIDTH 338 0
DWIDTH 8 0
BBX 8 17 0 0
BITMAP
CC
66
22
00
37
3F
38
30
30
30
30
30
30
30
30
30
30
ENDCHAR
STARTCHAR 0306
ENCODING 774
SWIDTH 720 0
DWIDTH 17 0
BBX 14 21 2 0
BITMAP
0F00
1880
10C0
0000
FFE0
FFF0
C038
C018
C01C
C018
C018
C038
FFF0
FFF0
C038
C018
C018
C018
C018
C01C
C01C
ENDCHAR
STARTCHAR 0307
ENCODING 775
SWIDTH 338 0
DWIDTH 8 0
BBX 7 17 1 0
BITMAP
7C
C6
82
00
6E
7E
70
60
60
60
60
60
60
60
60
60
60
ENDCHAR
STARTCHAR 0308
ENCODING 776
SWIDTH 720 0
DWIDTH 17 0
BBX 13 21 2 0
BITMAP
3B00
1980
0CC0
0000
C018
C018
C018
C018
C018
C018
C018
C018
C018
C018
C018
C018
E018
6038
7070
3FE0
0FC0
ENDCHAR
STARTCHAR 0309
ENCODING 777
SWIDTH 550 0
DWIDTH 13 0
BBX 10 17 1 0
BITMAP
6600
3300
1900
0000
E0C0
E0C0
E0C0
E0C0
E0C0
E0C0
E0C0
E0C0
E0C0
E0C0
61C0
7FC0
3EC0
ENDCHAR
STARTCHAR 030A
ENCODING 778
SWIDTH 720 0
DWIDTH 17 0
BBX 13 21 2 0
BITMAP
0F80
18C0
1040
0000
C018
C018
C018
C018
C018
C018
C018
C018
C018
C018
C018
C018
E018
6038
7070
3FE0
0FC0
ENDCHAR
STARTCHAR 030B
ENCODING 779
SWIDTH 550 0
DWIDTH 13 0
BBX 10 17 1 0
BITMAP
1F00
3180
2080
0000
E0C0
E0C0
E0C0
E0C0
E0C0
E0C0
E0C0
E0C0
E0C0
E0C0
61C0
7FC0
3EC0
ENDCHAR
STARTCHAR 030C
ENCODING 780
SWIDTH 720 0
DWIDTH 17 0
BBX 13 21 2 0
BITMAP
0CC0
0D80
0700
0000
C018
C018
C018
C018
C018
C018
C018
FFF8
FFF8
C018
C018
C018
C018
C018
C018
C018
C018
ENDCHAR
STARTCHAR 030D
ENCODING 781
SWIDTH 550 0
DWIDTH 13 0
BBX 10 21 2 0
BITMAP
3300
1600
1C00
0000
C000
C000
C000
C000
DF00
FF80
E180
C180
C1C0
C1C0
C1C0
C1C0
C1C0
C1C0
C1C0
C1C0
C1C0
ENDCHAR
STARTCHAR 030E
ENCODING 782
SWIDTH 677 0
DWIDTH 16 0
BBX 14 20 1 0
BITMAP
0300
0300
0000
0300
0780
0780
0FC0
0CC0
0CC0
18E0
1860
1860
3070
3FF0
7FF0
6038
6018
E01C
C01C
C00C
ENDCHAR
STARTCHAR 030F
ENCODING 783
SWIDTH 550 0
DWIDTH 13 0
BBX 12 16 1 0
BITMAP
0E00
0E00
0000
1F00
7FC0
60C0
60C0
00C0
0FC0
7FC0
F0C0
C0C0
C0C0
E3C0
7FF0
3C70
ENDCHAR
STARTCHAR 0310
ENCODING 784
SWIDTH 677 0
DWIDTH 16 0
BBX 13 22 2 -5
BITMAP
FFF0
FFF0
C000
C000
C000
C000
C000
FFF0
FFF0
C000
C000
C000
C000
C000
C000
FFF8
FFF8
0200
0780
0180
0180
0F00
ENDCHAR
STARTCHAR 0311
ENCODING 785
SWIDTH 550 0
DWIDTH 13 0
BBX 11 18 1 -5
BITMAP
1F00
3FC0
70C0
E060
C060
FFE0
FFE0
C000
C000
E060
70C0
3FC0
1F00
0400
0F00
0300
0300
1E00
ENDCHAR
STARTCHAR 0312
ENCODING 786
SWIDTH 762 0
DWIDTH 18 0
BBX 16 25 1 0
BITMAP
07F0
0000
0000
0000
0000
0660
0660
0000
07F0
1FF8
3C1E
700E
6007
E003
E003
C003
C003
C003
C003
E007
6007
700E
381C
1FF8
07E0
ENDCHAR
STARTCHAR 0313
ENCODING 787
SWIDTH 550 0
DWIDTH 13 0
BBX 11 19 1 0
BITMAP
3F80
0000
0000
1B80
1B80
0000
1F00
3F80
71C0
E0E0
C060
C060
C060
C060
C060
E0E0
61C0
7F80
1F00
ENDCHAR
STARTCHAR 0314
ENCODING 788
SWIDTH 762 0
DWIDTH 18 0
BBX 16 23 1 0
BITMAP
0FF0
0000
0710
05F0
0860
0000
07F0
1FF8
3C1E
700E
6007
E003
E003
C003
C003
C003
C003
E007
6007
700E
381C
1FF8
07E0
ENDCHAR
STARTCHAR 0315
ENCODING 789
SWIDTH 550 0
DWIDTH 13 0
BBX 11 19 1 0
BITMAP
3F80
0000
3C80
2780
6300
0000
1F00
3F80
71C0
E0E0
C060
C060
C060
C060
C060
E0E0
61C0
7F80
1F00
ENDCHAR
STARTCHAR 0316
ENCODING 790
SWIDTH 762 0
DWIDTH 18 0
BBX 16 21 1 0
BITMAP
0180
0180
0000
0000
07F0
1FF8
3C1E
700E
6007
E003
E003
C003
C003
C003
C003
E007
6007
700E
381C
1FF8
07E0
ENDCHAR
STARTCHAR 0317
ENCODING 791
SWIDTH 550 0
DWIDTH 13 0
BBX 11 16 1 0
BITMAP
0C00
0C00
0000
1F00
3F80
71C0
E0E0
C060
C060
C060
C060
C060
E0E0
61C0
7F80
1F00
ENDCHAR
STARTCHAR 0318
ENCODING 792
SWIDTH 762 0
DWIDTH 18 0
BBX 16 24 1 0
BITMAP
0FF0
0000
0000
0180
0180
0000
0000
07F0
1FF8
3C1E
700E
6007
E003
E003
C003
C003
C003
C003
E007
6007
700E
381C
1FF8
07E0
ENDCHAR
STARTCHAR 0319
ENCODING 793
SWIDTH 550 0
DWIDTH 13 0
BBX 11 18 1 0
BITMAP
3F80
0000
0600
0600
0000
1F00
3F80
71C0
E0E0
C060
C060
C060
C060
C060
E0E0
61C0
7F80
1F00
ENDCHAR
STARTCHAR 031A
ENCODING 794
SWIDTH 677 0
DWIDTH 16 0
BBX 14 19 1 0
BITMAP
0FE0
0000
C00C
E01C
7038
3038
3870
1860
1CE0
0FC0
07C0
0780
0300
0300
0300
0300
0300
0300
0300
ENDCHAR
STARTCHAR 031B
ENCODING 795
SWIDTH 508 0
DWIDTH 12 0
BBX 11 20 0 -5
BITMAP
3FC0
0000
E060
6060
60E0
70C0
30C0
30C0
3980
1980
1980
1F00
0F00
0F00
0E00
0600
0400
0C00
7800
7800
ENDCHAR
STARTCHAR 031C
ENCODING 796
SWIDTH 338 0
DWIDTH 8 0
BBX 6 6 1 11
BITMAP
CC
CC
44
44
4C
88
ENDCHAR
STARTCHAR 031D
ENCODING 797
SWIDTH 296 0
DWIDTH 7 0
BBX 3 17 2 0
BITMAP
E0
E0
E0
E0
E0
E0
E0
E0
E0
E0
E0
E0
E0
E0
E0
E0
E0
ENDCHAR
STARTCHAR 031E
ENCODING 798
SWIDTH 677 0
DWIDTH 16 0
BBX 14 23 1 -6
BITMAP
0300
0780
0780
0FC0
0CC0
0CC0
18E0
1860
1860
3070
3FF0
7FF0
6038
6018
E01C
C01C
C00C
0000
0700
0480
0880
0480
0700
ENDCHAR
STARTCHAR 031F
ENCODING 799
SWIDTH 550 0
DWIDTH 13 0
BBX 12 20 1 -7
BITMAP
1F00
7FC0
60C0
60C0
00C0
0FC0
7FC0
F0C0
C0C0
C0C0
E3C0
7FF0
3C70
0000
0000
0E00
1100
1100
1100
0E00
ENDCHAR
STARTCHAR 0320
ENCODING 800
SWIDTH 677 0
DWIDTH 16 0
BBX 13 21 2 0
BITMAP
0600
0600
0000
0000
FFC0
FFE0
C070
C030
C030
C070
C060
FFC0
FFE0
C070
C038
C038
C038
C038
C070
FFE0
FFC0
ENDCHAR
STARTCHAR 0321
ENCODING 801
SWIDTH 550 0
DWIDTH 13 0
BBX 11 19 1 0
BITMAP
0600
0600
C000
C000
C000
C000
CF00
DFC0
F0C0
E0E0
C060
C060
C060
C060
E060
E0E0
F0C0
DFC0
CF00
ENDCHAR
STARTCHAR 0322
ENCODING 802
SWIDTH 677 0
DWIDTH 16 0
BBX 13 21 2 -4
BITMAP
FFC0
FFE0
C070
C030
C030
C070
C060
FFC0
FFE0
C070
C038
C038
C038
C038
C070
FFE0
FFC0
0000
0000
0E00
0E00
ENDCHAR
STARTCHAR 0323
ENCODING 803
SWIDTH 550 0
DWIDTH 13 0
BBX 11 21 1 -4
BITMAP
C000
C000
C000
C000
CF00
DFC0
F0C0
E0E0
C060
C060
C060
C060
E060
E0E0
F0C0
DFC0
CF00
0000
0000
0E00
0E00
ENDCHAR
STARTCHAR 0324
ENCODING 804
SWIDTH 677 0
DWIDTH 16 0
BBX 13 19 2 -2
BITMAP
FFC0
FFE0
C070
C030
C030
C070
C060
FFC0
FFE0
C070
C038
C038
C038
C038
C070
FFE0
FFC0
0000
3F80
ENDCHAR
STARTCHAR 0325
ENCODING 805
SWIDTH 550 0
DWIDTH 13 0
BBX 11 20 1 -3
BITMAP
C000
C000
C000
C000
CF00
DFC0
F0C0
E0E0
C060
C060
C060
C060
E060
E0E0
F0C0
DFC0
CF00
0000
0000
3F80
ENDCHAR
STARTCHAR 0326
ENCODING 806
SWIDTH 720 0
DWIDTH 17 0
BBX 15 27 1 -5
BITMAP
0180
0300
0600
0000
0000
07E0
1FF8
3838
701C
600E
E006
E000
C000
C000
C000
E000
E006
600E
700C
383C
1FF8
0FE0
0300
0380
00C0
00C0
0780
ENDCHAR
STARTCHAR 0327
ENCODING 807
SWIDTH 508 0
DWIDTH 12 0
BBX 10 22 1 -5
BITMAP
0600
0C00
0800
0000
1F00
3F80
71C0
E0C0
C000
C000
C000
C000
C0C0
E0C0
E180
7F80
3E00
0800
1E00
0600
0600
3C00
ENDCHAR
STARTCHAR 0328
ENCODING 808
SWIDTH 720 0
DWIDTH 17 0
BBX 14 20 2 0
BITMAP
0C00
0C00
0000
FFC0
FFE0
C070
C038
C018
C01C
C01C
C01C
C00C
C00C
C01C
C018
C018
C038
C070
FFE0
FF80
ENDCHAR
STARTCHAR 0329
ENCODING 809
SWIDTH 550 0
DWIDTH 13 0
BBX 11 20 1 0
BITMAP
0600
0600
0000
0060
0060
0060
0060
1E60
7F60
71E0
E0E0
C0E0
C060
C060
C060
C0E0
E0E0
61E0
7F60
1E60
ENDCHAR
STARTCHAR 032A
ENCODING 810
SWIDTH 720 0
DWIDTH 17 0
BBX 14 21 2 -4
BITMAP
FFC0
FFE0
C070
C038
C018
C01C
C01C
C01C
C00C
C00C
C01C
C018
C018
C038
C070
FFE0
FF80
0000
0000
0600
0600
ENDCHAR
STARTCHAR 032B
ENCODING 811
SWIDTH 550 0
DWIDTH 13 0
BBX 11 21 1 -4
BITMAP
0060
0060
0060
0060
1E60
7F60
71E0
E0E0
C0E0
C060
C060
C060
C0E0
E0E0
61E0
7F60
1E60
0000
0000
0C00
0C00
ENDCHAR
STARTCHAR 032C
ENCODING 812
SWIDTH 720 0
DWIDTH 17 0
BBX 14 20 2 -3
BITMAP
FFC0
FFE0
C070
C038
C018
C01C
C01C
C01C
C00C
C00C
C01C
C018
C018
C038
C070
FFE0
FF80
0000
0000
3F80
ENDCHAR
STARTCHAR 032D
ENCODING 813
SWIDTH 550 0
DWIDTH 13 0
BBX 11 20 1 -3
BITMAP
0060
0060
0060
0060
1E60
7F60
71E0
E0E0
C0E0
C060
C060
C060
C0E0
E0E0
61E0
7F60
1E60
0000
0000
3FC0
ENDCHAR
STARTCHAR 032E
ENCODING 814
SWIDTH 720 0
DWIDTH 17 0
BBX 14 24 2 -7
BITMAP
FFC0
FFE0
C070
C038
C018
C01C
C01C
C01C
C00C
C00C
C01C
C018
C018
C038
C070
FFE0
FF80
0000
0E00
0E00
0200
0200
0400
0C00
ENDCHAR
STARTCHAR 032F
ENCODING 815
SWIDTH 550 0
DWIDTH 13 0
BBX 11 25 1 -8
BITMAP
0060
0060
0060
0060
1E60
7F60
71E0
E0E0
C0E0
C060
C060
C060
C0E0
E0E0
61E0
7F60
1E60
0000
0000
0E00
0E00
0200
0200
0400
0C00
ENDCHAR
STARTCHAR 0330
ENCODING 816
SWIDTH 720 0
DWIDTH 17 0
BBX 14 21 2 -4
BITMAP
FFC0
FFE0
C070
C038
C018
C01C
C01C
C01C
C00C
C00C
C01C
C018
C018
C038
C070
FFE0
FF80
0000
0E00
0F00
1980
ENDCHAR
STARTCHAR 0331
ENCODING 817
SWIDTH 550 0
DWIDTH 13 0
BBX 11 22 1 -5
BITMAP
0060
0060
0060
0060
1E60
7F60
71E0
E0E0
C0E0
C060
C060
C060
C0E0
E0E0
61E0
7F60
1E60
0000
0000
0E00
1B00
3300
ENDCHAR
STARTCHAR 0332
ENCODING 818
SWIDTH 677 0
DWIDTH 16 0
BBX 13 23 2 0
BITMAP
0E00
0600
0300
0000
1FC0
0000
FFF0
FFF0
C000
C000
C000
C000
C000
FFF0
FFF0
C000
C000
C000
C000
C000
C000
FFF8
FFF8
ENDCHAR
STARTCHAR 0333
ENCODING 819
SWIDTH 550 0
DWIDTH 13 0
BBX 11 20 1 0
BITMAP
1C00
0E00
0600
0000
0000
3F80
0000
1F00
3FC0
70C0
E060
C060
FFE0
FFE0
C000
C000
E060
70C0
3FC0
1F00
ENDCHAR
STARTCHAR 0334
ENCODING 820
SWIDTH 677 0
DWIDTH 16 0
BBX 13 23 2 0
BITMAP
0300
0600
0C00
0000
1FC0
0000
FFF0
FFF0
C000
C000
C000
C000
C000
FFF0
FFF0
C000
C000
C000
C000
C000
C000
FFF8
FFF8
ENDCHAR
STARTCHAR 0335
ENCODING 821
SWIDTH 550 0
DWIDTH 13 0
BBX 11 19 1 0
BITMAP
0600
0C00
0800
0000
3F80
0000
1F00
3FC0
70C0
E060
C060
FFE0
FFE0
C000
C000
E060
70C0
3FC0
1F00
ENDCHAR
STARTCHAR 0336
ENCODING 822
SWIDTH 677 0
DWIDTH 16 0
BBX 13 21 2 -4
BITMAP
FFF0
FFF0
C000
C000
C000
C000
C000
FFF0
FFF0
C000
C000
C000
C000
C000
C000
FFF8
FFF8
0000
0700
0F00
1980
ENDCHAR
STARTCHAR 0337
ENCODING 823
SWIDTH 550 0
DWIDTH 13 0
BBX 11 18 1 -5
BITMAP
1F00
3FC0
70C0
E060
C060
FFE0
FFE0
C000
C000
E060
70C0
3FC0
1F00
0000
0000
0E00
1B00
3180
ENDCHAR
STARTCHAR 0338
ENCODING 824
SWIDTH 677 0
DWIDTH 16 0
BBX 13 21 2 -4
BITMAP
FFF0
FFF0
C000
C000
C000
C000
C000
FFF0
FFF0
C000
C000
C000
C000
C000
C000
FFF8
FFF8
0000
0E60
13C0
1180
ENDCHAR
STARTCHAR 0339
ENCODING 825
SWIDTH 550 0
DWIDTH 13 0
BBX 11 17 1 -4
BITMAP
1F00
3FC0
70C0
E060
C060
FFE0
FFE0
C000
C000
E060
70C0
3FC0
1F00
0000
1CC0
2780
2380
ENDCHAR
STARTCHAR 033A
ENCODING 826
SWIDTH 677 0
DWIDTH 16 0
BBX 13 26 2 -5
BITMAP
1040
18C0
0F80
0000
FFF0
FFF0
C000
C000
C000
C000
C000
FFF0
FFF0
C000
C000
C000
C000
C000
C000
FFF8
FFF8
0200
0780
0180
0180
0F00
ENDCHAR
STARTCHAR 033B
ENCODING 827
SWIDTH 550 0
DWIDTH 13 0
BBX 11 22 1 -5
BITMAP
2080
3180
1F00
0000
1F00
3FC0
70C0
E060
C060
FFE0
FFE0
C000
C000
E060
70C0
3FC0
1F00
0400
0F00
0300
0300
1E00
ENDCHAR
STARTCHAR 033C
ENCODING 828
SWIDTH 592 0
DWIDTH 14 0
BBX 12 21 2 0
BITMAP
0600
0600
0000
0000
FFF0
FFF0
C000
C000
C000
C000
C000
FFE0
FFE0
C000
C000
C000
C000
C000
C000
C000
C000
ENDCHAR
STARTCHAR 033D
ENCODING 829
SWIDTH 296 0
DWIDTH 7 0
BBX 6 20 0 0
BITMAP
38
38
00
1C
3C
30
30
FC
FC
30
30
30
30
30
30
30
30
30
30
30
ENDCHAR
STARTCHAR 033E
ENCODING 830
SWIDTH 762 0
DWIDTH 18 0
BBX 16 20 1 0
BITMAP
0FF0
0000
0000
07E0
1FF8
3C1C
700E
6006
6006
E000
E000
E0FF
E0FF
E007
E007
6007
700F
381F
1FF3
07E3
ENDCHAR
STARTCHAR 033F
ENCODING 831
SWIDTH 550 0
DWIDTH 13 0
BBX 11 21 1 -5
BITMAP
3F80
0000
0000
1E60
7F60
61E0
C0E0
C0E0
C060
C060
C060
C0E0
C0E0
E1E0
7F60
3EC0
00C0
C0C0
E1C0
7F80
3F00
ENDCHAR
STARTCHAR 0340
ENCODING 832
SWIDTH 720 0
DWIDTH 17 0
BBX 13 20 2 0
BITMAP
0300
0300
0000
C018
C018
C018
C018
C018
C018
C018
FFF8
FFF8
C018
C018
C018
C018
C018
C018
C018
C018
ENDCHAR
STARTCHAR 0341
ENCODING 833
SWIDTH 550 0
DWIDTH 13 0
BBX 10 20 2 0
BITMAP
0C00
0C00
0000
C000
C000
C000
C000
DF00
FF80
E180
C180
C1C0
C1C0
C1C0
C1C0
C1C0
C1C0
C1C0
C1C0
C1C0
ENDCHAR
STARTCHAR 0342
ENCODING 834
SWIDTH 720 0
DWIDTH 17 0
BBX 13 21 2 -4
BITMAP
C018
C018
C018
C018
C018
C018
C018
FFF8
FFF8
C018
C018
C018
C018
C018
C018
C018
C018
0000
0000
0300
0300
ENDCHAR
STARTCHAR 0343
ENCODING 835
SWIDTH 550 0
DWIDTH 13 0
BBX 10 21 2 -4
BITMAP
C000
C000
C000
C000
DF00
FF80
E180
C180
C1C0
C1C0
C1C0
C1C0
C1C0
C1C0
C1C0
C1C0
C1C0
0000
0000
0C00
0C00
ENDCHAR
STARTCHAR 0344
ENCODING 836
SWIDTH 720 0
DWIDTH 17 0
BBX 13 20 2 0
BITMAP
0DC0
0DC0
0000
C018
C018
C018
C018
C018
C018
C018
FFF8
FFF8
C018
C018
C018
C018
C018
C018
C018
C018
ENDCHAR
STARTCHAR 0345
ENCODING 837
SWIDTH 550 0
DWIDTH 13 0
BBX 10 20 2 0
BITMAP
3300
3300
0000
C000
C000
C000
C000
DF00
FF80
E180
C180
C1C0
C1C0
C1C0
C1C0
C1C0
C1C0
C1C0
C1C0
C1C0
ENDCHAR
STARTCHAR 0346
ENCODING 838
SWIDTH 720 0
DWIDTH 17 0
BBX 14 22 1 -5
BITMAP
600C
600C
600C
600C
600C
600C
600C
7FFC
7FFC
600C
600C
600C
600C
600C
600C
600C
600C
2000
7000
1800
1800
F000
ENDCHAR
STARTCHAR 0347
ENCODING 839
SWIDTH 550 0
DWIDTH 13 0
BBX 12 22 0 -5
BITMAP
3000
3000
3000
3000
37C0
3FE0
3860
3060
3070
3070
3070
3070
3070
3070
3070
3070
3070
2000
7800
1800
1800
F000
ENDCHAR
STARTCHAR 0348
ENCODING 840
SWIDTH 720 0
DWIDTH 17 0
BBX 13 21 2 -4
BITMAP
C018
C018
C018
C018
C018
C018
C018
FFF8
FFF8
C018
C018
C018
C018
C018
C018
C018
C018
0000
1040
08C0
0F80
ENDCHAR
STARTCHAR 0349
ENCODING 841
SWIDTH 550 0
DWIDTH 13 0
BBX 10 21 2 -4
BITMAP
C000
C000
C000
C000
DF00
FF80
E180
C180
C1C0
C1C0
C1C0
C1C0
C1C0
C1C0
C1C0
C1C0
C1C0
0000
4100
6300
3E00
ENDCHAR
STARTCHAR 034A
ENCODING 842
SWIDTH 296 0
DWIDTH 7 0
BBX 8 21 0 -4
BITMAP
38
38
38
38
38
38
38
38
38
38
38
38
38
38
38
38
38
00
73
9E
8E
ENDCHAR
STARTCHAR 034B
ENCODING 843
SWIDTH 211 0
DWIDTH 5 0
BBX 8 21 -1 -4
BITMAP
18
18
00
00
18
18
18
18
18
18
18
18
18
18
18
18
18
00
71
9F
8E
ENDCHAR
STARTCHAR 034C
ENCODING 844
SWIDTH 296 0
DWIDTH 7 0
BBX 6 25 0 0
BITMAP
0C
18
30
00
00
EC
EC
00
38
38
38
38
38
38
38
38
38
38
38
38
38
38
38
38
38
ENDCHAR
STARTCHAR 034D
ENCODING 845
SWIDTH 296 0
DWIDTH 7 0
BBX 6 20 0 0
BITMAP
1C
18
30
00
00
CC
CC
30
30
30
30
30
30
30
30
30
30
30
30
30
ENDCHAR
STARTCHAR 034E
ENCODING 846
SWIDTH 677 0
DWIDTH 16 0
BBX 13 21 2 0
BITMAP
0700
0600
0C00
0000
C038
C070
C0E0
C1C0
C380
C700
CE00
DE00
FF00
F700
E380
C1C0
C0C0
C0E0
C070
C038
C038
ENDCHAR
STARTCHAR 034F
ENCODING 847
SWIDTH 508 0
DWIDTH 12 0
BBX 10 20 1 0
BITMAP
0700
0600
0C00
C000
C000
C000
C000
C1C0
C380
C700
CE00
CC00
DC00
FE00
E600
C700
C380
C180
C1C0
C0C0
ENDCHAR
STARTCHAR 0350
ENCODING 848
SWIDTH 677 0
DWIDTH 16 0
BBX 13 21 2 -4
BITMAP
C038
C070
C0E0
C1C0
C380
C700
CE00
DE00
FF00
F700
E380
C1C0
C0C0
C0E0
C070
C038
C038
0000
0000
0600
0600
ENDCHAR
STARTCHAR 0351
ENCODING 849
SWIDTH 508 0
DWIDTH 12 0
BBX 10 21 1 -4
BITMAP
C000
C000
C000
C000
C1C0
C380
C700
CE00
CC00
DC00
FE00
E600
C700
C380
C180
C1C0
C0C0
0000
0000
1C00
1C00
ENDCHAR
STARTCHAR 0352
ENCODING 850
SWIDTH 677 0
DWIDTH 16 0
BBX 13 19 2 -2
BITMAP
C038
C070
C0E0
C1C0
C380
C700
CE00
DE00
FF00
F700
E380
C1C0
C0C0
C0E0
C070
C038
C038
0000
3FC0
ENDCHAR
STARTCHAR 0353
ENCODING 851
SWIDTH 508 0
DWIDTH 12 0
BBX 10 19 1 -2
BITMAP
C000
C000
C000
C000
C1C0
C380
C700
CE00
CC00
DC00
FE00
E600
C700
C380
C180
C1C0
C0C0
0000
3F80
ENDCHAR
STARTCHAR 0354
ENCODING 852
SWIDTH 550 0
DWIDTH 13 0
BBX 11 21 2 -4
BITMAP
C000
C000
C000
C000
C000
C000
C000
C000
C000
C000
C000
C000
C000
C000
C000
FFE0
FFE0
0000
0000
0E00
0E00
ENDCHAR
STARTCHAR 0355
ENCODING 853
SWIDTH 211 0
DWIDTH 5 0
BBX 2 21 2 -4
BITMAP
C0
C0
C0
C0
C0
C0
C0
C0
C0
C0
C0
C0
C0
C0
C0
C0
C0
00
00
C0
C0
ENDCHAR
STARTCHAR 0356
ENCODING 854
SWIDTH 550 0
DWIDTH 13 0
BBX 11 23 2 -4
BITMAP
3F80
0000
C000
C000
C000
C000
C000
C000
C000
C000
C000
C000
C000
C000
C000
C000
C000
FFE0
FFE0
0000
0000
0E00
0E00
ENDCHAR
STARTCHAR 0357
ENCODING 855
SWIDTH 211 0
DWIDTH 5 0
BBX 7 23 -1 -4
BITMAP
FE
00
18
18
18
18
18
18
18
18
18
18
18
18
18
18
18
18
18
00
00
18
18
ENDCHAR
STARTCHAR 0358
ENCODING 856
SWIDTH 550 0
DWIDTH 13 0
BBX 11 19 2 -2
BITMAP
C000
C000
C000
C000
C000
C000
C000
C000
C000
C000
C000
C000
C000
C000
C000
FFE0
FFE0
0000
3F80
ENDCHAR
STARTCHAR 0359
ENCODING 857
SWIDTH 211 0
DWIDTH 5 0
BBX 8 19 -1 -2
BITMAP
18
18
18
18
18
18
18
18
18
18
18
18
18
18
18
18
18
00
FF
ENDCHAR
STARTCHAR 035A
ENCODING 858
SWIDTH 550 0
DWIDTH 13 0
BBX 11 21 2 -4
BITMAP
C000
C000
C000
C000
C000
C000
C000
C000
C000
C000
C000
C000
C000
C000
C000
FFE0
FFE0
0000
1C00
3600
3300
ENDCHAR
STARTCHAR 035B
ENCODING 859
SWIDTH 211 0
DWIDTH 5 0
BBX 6 21 0 -4
BITMAP
30
30
30
30
30
30
30
30
30
30
30
30
30
30
30
30
30
00
70
D8
CC
ENDCHAR
STARTCHAR 035C
ENCODING 860
SWIDTH 847 0
DWIDTH 20 0
BBX 16 21 2 0
BITMAP
00C0
0180
0300
0000
E007
F00F
F00F
F00F
D81B
D81B
D81B
CC33
CC33
CC33
C663
C663
C663
C3C3
C3C3
C3C3
C183
ENDCHAR
STARTCHAR 035D
ENCODING 861
SWIDTH 847 0
DWIDTH 20 0
BBX 16 17 2 0
BITMAP
01C0
0180
0300
0000
DE3C
FF7E
E3C7
C183
C183
C183
C183
C183
C183
C183
C183
C183
C183
ENDCHAR
STARTCHAR 035E
ENCODING 862
SWIDTH 847 0
DWIDTH 20 0
BBX 16 20 2 0
BITMAP
0180
0180
0000
E007
F00F
F00F
F00F
D81B
D81B
D81B
CC33
CC33
CC33
C663
C663
C663
C3C3
C3C3
C3C3
C183
ENDCHAR
STARTCHAR 035F
ENCODING 863
SWIDTH 847 0
DWIDTH 20 0
BBX 16 16 2 0
BITMAP
0180
0180
0000
DE3C
FF7E
E3C7
C183
C183
C183
C183
C183
C183
C183
C183
C183
C183
ENDCHAR
STARTCHAR 0360
ENCODING 864
SWIDTH 847 0
DWIDTH 20 0
BBX 16 21 2 -4
BITMAP
E007
F00F
F00F
F00F
D81B
D81B
D81B
CC33
CC33
CC33
C663
C663
C663
C3C3
C3C3
C3C3
C183
0000
0000
0180
0180
ENDCHAR
STARTCHAR 0361
ENCODING 865
SWIDTH 847 0
DWIDTH 20 0
BBX 16 17 2 -4
BITMAP
DE3C
FF7E
E3C7
C183
C183
C183
C183
C183
C183
C183
C183
C183
C183
0000
0000
0180
0180
ENDCHAR
STARTCHAR 0362
ENCODING 866
SWIDTH 720 0
DWIDTH 17 0
BBX 13 19 2 0
BITMAP
0300
0300
E018
E018
F018
F818
D818
CC18
CC18
C618
C318
C318
C198
C198
C0D8
C078
C078
C038
C038
ENDCHAR
STARTCHAR 0363
ENCODING 867
SWIDTH 550 0
DWIDTH 13 0
BBX 10 16 2 0
BITMAP
0C00
0C00
0000
DF00
FF80
E180
C1C0
C1C0
C1C0
C1C0
C1C0
C1C0
C1C0
C1C0
C1C0
C1C0
ENDCHAR
STARTCHAR 0364
ENCODING 868
SWIDTH 720 0
DWIDTH 17 0
BBX 13 21 2 -4
BITMAP
E018
E018
F018
F818
D818
CC18
CC18
C618
C318
C318
C198
C198
C0D8
C078
C078
C038
C038
0000
0000
0300
0300
ENDCHAR
STARTCHAR 0365
ENCODING 869
SWIDTH 550 0
DWIDTH 13 0
BBX 10 17 2 -4
BITMAP
DF00
FF80
E180
C1C0
C1C0
C1C0
C1C0
C1C0
C1C0
C1C0
C1C0
C1C0
C1C0
0000
0000
0C00
0C00
ENDCHAR
STARTCHAR 0366
ENCODING 870
SWIDTH 720 0
DWIDTH 17 0
BBX 13 19 2 -2
BITMAP
E018
E018
F018
F818
D818
CC18
CC18
C618
C318
C318
C198
C198
C0D8
C078
C078
C038
C038
0000
1FE0
ENDCHAR
STARTCHAR 0367
ENCODING 871
SWIDTH 550 0
DWIDTH 13 0
BBX 10 15 2 -2
BITMAP
DF00
FF80
E180
C1C0
C1C0
C1C0
C1C0
C1C0
C1C0
C1C0
C1C0
C1C0
C1C0
0000
7F00
ENDCHAR
STARTCHAR 0368
ENCODING 872
SWIDTH 720 0
DWIDTH 17 0
BBX 13 21 2 -4
BITMAP
E018
E018
F018
F818
D818
CC18
CC18
C618
C318
C318
C198
C198
C0D8
C078
C078
C038
C038
0000
0700
0D80
1980
ENDCHAR
STARTCHAR 0369
ENCODING 873
SWIDTH 550 0
DWIDTH 13 0
BBX 10 17 2 -4
BITMAP
DF00
FF80
E180
C1C0
C1C0
C1C0
C1C0
C1C0
C1C0
C1C0
C1C0
C1C0
C1C0
0000
1C00
3600
6600
ENDCHAR
STARTCHAR 036A
ENCODING 874
SWIDTH 762 0
DWIDTH 18 0
BBX 16 25 1 0
BITMAP
01C0
0180
0300
0000
0710
0DF0
0860
0000
07F0
1FF8
3C1E
700E
6007
E003
E003
C003
C003
C003
C003
E007
6007
700E
381C
1FF8
07E0
ENDCHAR
STARTCHAR 036B
ENCODING 875
SWIDTH 550 0
DWIDTH 13 0
BBX 11 20 1 0
BITMAP
0600
0C00
0800
0000
3C80
2780
6300
1F00
3F80
71C0
E0E0
C060
C060
C060
C060
C060
E0E0
61C0
7F80
1F00
ENDCHAR
STARTCHAR 036C
ENCODING 876
SWIDTH 762 0
DWIDTH 18 0
BBX 16 23 1 0
BITMAP
0660
0660
0730
09E0
08E0
0000
07F0
1FF8
3C1E
700E
6007
E003
E003
C003
C003
C003
C003
E007
6007
700E
381C
1FF8
07E0
ENDCHAR
STARTCHAR 036D
ENCODING 877
SWIDTH 550 0
DWIDTH 13 0
BBX 11 19 1 0
BITMAP
1B80
1B80
0000
1CC0
2780
2300
1F00
3F80
71C0
E0E0
C060
C060
C060
C060
C060
E0E0
61C0
7F80
1F00
ENDCHAR
STARTCHAR 036E
ENCODING 878
SWIDTH 762 0
DWIDTH 18 0
BBX 16 24 1 0
BITMAP
0380
0180
00C0
0000
0000
0FF0
0000
07F0
1FF8
3C1E
700E
6007
E003
E003
C003
C003
C003
C003
E007
6007
700E
381C
1FF8
07E0
ENDCHAR
STARTCHAR 036F
ENCODING 879
SWIDTH 550 0
DWIDTH 13 0
BBX 11 20 1 0
BITMAP
1C00
0C00
0600
0000
0000
7F80
0000
1F00
3F80
71C0
E0E0
C060
C060
C060
C060
C060
E0E0
61C0
7F80
1F00
ENDCHAR
STARTCHAR 0370
ENCODING 880
SWIDTH 762 0
DWIDTH 18 0
BBX 16 23 1 0
BITMAP
01C0
0180
0300
0FF0
0000
0000
07F0
1FF8
3C1E
700E
6007
E003
E003
C003
C003
C003
C003
E007
6007
700E
381C
1FF8
07E0
ENDCHAR
STARTCHAR 0371
ENCODING 881
SWIDTH 550 0
DWIDTH 13 0
BBX 11 19 1 0
BITMAP
0600
0C00
0800
0000
7F80
0000
1F00
3F80
71C0
E0E0
C060
C060
C060
C060
C060
E0E0
61C0
7F80
1F00
ENDCHAR
STARTCHAR 0372
ENCODING 882
SWIDTH 677 0
DWIDTH 16 0
BBX 13 21 2 0
BITMAP
0700
0600
0C00
0000
FFC0
FFE0
C070
C030
C038
C038
C030
C070
FFE0
FFC0
C000
C000
C000
C000
C000
C000
C000
ENDCHAR
STARTCHAR 0373
ENCODING 883
SWIDTH 550 0
DWIDTH 13 0
BBX 11 22 1 -5
BITMAP
0700
0600
0C00
0000
CF00
DFC0
F0C0
E0E0
E060
C060
C060
C060
E060
E0E0
F1C0
DFC0
CF00
C000
C000
C000
C000
C000
ENDCHAR
STARTCHAR 0374
ENCODING 884
SWIDTH 677 0
DWIDTH 16 0
BBX 13 20 2 0
BITMAP
0600
0600
0000
FFC0
FFE0
C070
C030
C038
C038
C030
C070
FFE0
FFC0
C000
C000
C000
C000
C000
C000
C000
ENDCHAR
STARTCHAR 0375
ENCODING 885
SWIDTH 550 0
DWIDTH 13 0
BBX 11 21 1 -5
BITMAP
0600
0600
0000
CF00
DFC0
F0C0
E0E0
E060
C060
C060
C060
E060
E0E0
F1C0
DFC0
CF00
C000
C000
C000
C000
C000
ENDCHAR
STARTCHAR 0376
ENCODING 886
SWIDTH 720 0
DWIDTH 17 0
BBX 14 20 2 0
BITMAP
0600
0600
0000
FFE0
FFF0
C038
C018
C01C
C018
C018
C038
FFF0
FFF0
C038
C018
C018
C018
C018
C01C
C01C
ENDCHAR
STARTCHAR 0377
ENCODING 887
SWIDTH 338 0
DWIDTH 8 0
BBX 6 16 2 0
BITMAP
C0
C0
00
DC
FC
E0
C0
C0
C0
C0
C0
C0
C0
C0
C0
C0
ENDCHAR
STARTCHAR 0378
ENCODING 888
SWIDTH 720 0
DWIDTH 17 0
BBX 14 21 2 -4
BITMAP
FFE0
FFF0
C038
C018
C01C
C018
C018
C038
FFF0
FFF0
C038
C018
C018
C018
C018
C01C
C01C
0000
0000
0300
0300
ENDCHAR
STARTCHAR 0379
ENCODING 889
SWIDTH 338 0
DWIDTH 8 0
BBX 7 17 1 -4
BITMAP
6E
7E
70
60
60
60
60
60
60
60
60
60
60
00
00
E0
E0
ENDCHAR
STARTCHAR 037A
ENCODING 890
SWIDTH 720 0
DWIDTH 17 0
BBX 14 23 2 -4
BITMAP
1FC0
0000
FFE0
FFF0
C038
C018
C01C
C018
C018
C038
FFF0
FFF0
C038
C018
C018
C018
C018
C01C
C01C
0000
0000
0600
0600
ENDCHAR
STARTCHAR 037B
ENCODING 891
SWIDTH 338 0
DWIDTH 8 0
BBX 7 19 1 -4
BITMAP
FE
00
6E
7E
70
60
60
60
60
60
60
60
60
60
60
00
00
60
60
ENDCHAR
STARTCHAR 037C
ENCODING 892
SWIDTH 720 0
DWIDTH 17 0
BBX 14 19 2 -2
BITMAP
FFE0
FFF0
C038
C018
C01C
C018
C018
C038
FFF0
FFF0
C038
C018
C018
C018
C018
C01C
C01C
0000
1FC0
ENDCHAR
STARTCHAR 037D
ENCODING 893
SWIDTH 338 0
DWIDTH 8 0
BBX 8 15 0 -2
BITMAP
37
3F
38
30
30
30
30
30
30
30
30
30
30
00
FF
ENDCHAR
STARTCHAR 037E
ENCODING 894
SWIDTH 677 0
DWIDTH 16 0
BBX 14 20 1 0
BITMAP
0300
0300
0000
0FC0
3FE0
7070
6038
6018
6018
7000
3F00
1FF0
01F8
0018
C01C
E01C
6018
7038
3FF0
0FC0
ENDCHAR
STARTCHAR 037F
ENCODING 895
SWIDTH 508 0
DWIDTH 12 0
BBX 10 16 1 0
BITMAP
0C00
0C00
0000
3E00
7F80
E180
C1C0
E000
7C00
3F80
03C0
00C0
C0C0
E1C0
7F80
3F00
ENDCHAR
STARTCHAR 0380
ENCODING 896
SWIDTH 677 0
DWIDTH 16 0
BBX 14 21 1 -4
BITMAP
0FC0
3FE0
7070
6038
6018
6018
7000
3F00
1FF0
01F8
0018
C01C
E01C
6018
7038
3FF0
0FC0
0000
0000
0300
0300
ENDCHAR
STARTCHAR 0381
ENCODING 897
SWIDTH 508 0
DWIDTH 12 0
BBX 10 17 1 -4
BITMAP
3E00
7F80
E180
C1C0
E000
7C00
3F80
03C0
00C0
C0C0
E1C0
7F80
3F00
0000
0000
0C00
0C00
ENDCHAR
STARTCHAR 0382
ENCODING 898
SWIDTH 677 0
DWIDTH 16 0
BBX 14 25 1 0
BITMAP
0180
0180
0000
0000
0380
0300
0600
0000
0FC0
3FE0
7070
6038
6018
6018
7000
3F00
1FF0
01F8
0018
C01C
E01C
6018
7038
3FF0
0FC0
ENDCHAR
STARTCHAR 0383
ENCODING 899
SWIDTH 508 0
DWIDTH 12 0
BBX 10 20 1 0
BITMAP
0600
0600
0000
0000
0700
0E00
0800
3E00
7F80
E180
C1C0
E000
7C00
3F80
03C0
00C0
C0C0
E1C0
7F80
3F00
ENDCHAR
STARTCHAR 0384
ENCODING 900
SWIDTH 677 0
DWIDTH 16 0
BBX 14 24 1 0
BITMAP
0300
0300
0000
0CC0
0780
0700
0000
0FC0
3FE0
7070
6038
6018
6018
7000
3F00
1FF0
01F8
0018
C01C
E01C
6018
7038
3FF0
0FC0
ENDCHAR
STARTCHAR 0385
ENCODING 901
SWIDTH 508 0
DWIDTH 12 0
BBX 10 19 1 0
BITMAP
0C00
0C00
3300
1A00
0E00
0000
3E00
7F80
E180
C1C0
E000
7C00
3F80
03C0
00C0
C0C0
E1C0
7F80
3F00
ENDCHAR
STARTCHAR 0386
ENCODING 902
SWIDTH 677 0
DWIDTH 16 0
BBX 14 24 1 -4
BITMAP
0300
0300
0000
0FC0
3FE0
7070
6038
6018
6018
7000
3F00
1FF0
01F8
0018
C01C
E01C
6018
7038
3FF0
0FC0
0000
0000
0300
0300
ENDCHAR
STARTCHAR 0387
ENCODING 903
SWIDTH 508 0
DWIDTH 12 0
BBX 10 20 1 -4
BITMAP
0C00
0C00
0000
3E00
7F80
E180
C1C0
E000
7C00
3F80
03C0
00C0
C0C0
E1C0
7F80
3F00
0000
0000
0C00
0C00
ENDCHAR
STARTCHAR 0388
ENCODING 904
SWIDTH 592 0
DWIDTH 14 0
BBX 14 20 0 0
BITMAP
0380
0380
0000
FFFC
FFFC
0300
0300
0300
0300
0300
0300
0300
0300
0300
0300
0300
0300
0300
0300
0300
ENDCHAR
STARTCHAR 0389
ENCODING 905
SWIDTH 296 0
DWIDTH 7 0
BBX 6 19 0 0
BITMAP
30
30
00
30
30
30
FC
FC
30
30
30
30
30
30
30
30
30
3C
1C
ENDCHAR
STARTCHAR 038A
ENCODING 906
SWIDTH 592 0
DWIDTH 14 0
BBX 14 21 0 -4
BITMAP
FFFC
FFFC
0300
0300
0300
0300
0300
0300
0300
0300
0300
0300
0300
0300
0300
0300
0300
0000
0000
0300
0300
ENDCHAR
STARTCHAR 038B
ENCODING 907
SWIDTH 296 0
DWIDTH 7 0
BBX 6 20 0 -4
BITMAP
30
30
30
FC
FC
30
30
30
30
30
30
30
30
30
3C
1C
00
00
30
30
ENDCHAR
STARTCHAR 038C
ENCODING 908
SWIDTH 592 0
DWIDTH 14 0
BBX 14 19 0 -2
BITMAP
FFFC
FFFC
0300
0300
0300
0300
0300
0300
0300
0300
0300
0300
0300
0300
0300
0300
0300
0000
0FE0
ENDCHAR
STARTCHAR 038D
ENCODING 909
SWIDTH 296 0
DWIDTH 7 0
BBX 7 18 0 -2
BITMAP
30
30
30
FC
FC
30
30
30
30
30
30
30
30
30
3C
1C
00
FE
ENDCHAR
STARTCHAR 038E
ENCODING 910
SWIDTH 592 0
DWIDTH 14 0
BBX 14 22 0 -5
BITMAP
FFFC
FFFC
0300
0300
0300
0300
0300
0300
0300
0300
0300
0300
0300
0300
0300
0300
0300
0000
0000
0380
0680
0CC0
ENDCHAR
STARTCHAR 038F
ENCODING 911
SWIDTH 296 0
DWIDTH 7 0
BBX 6 21 0 -5
BITMAP
30
30
30
FC
FC
30
30
30
30
30
30
30
30
30
3C
1C
00
00
38
68
CC
ENDCHAR
STARTCHAR 0390
ENCODING 912
SWIDTH 720 0
DWIDTH 17 0
BBX 13 21 2 -4
BITMAP
C018
C018
C018
C018
C018
C018
C018
C018
C018
C018
C018
C018
E018
6038
7070
3FE0
0FC0
0000
0000
0CC0
0CC0
ENDCHAR
STARTCHAR 0391
ENCODING 913
SWIDTH 550 0
DWIDTH 13 0
BBX 10 17 1 -4
BITMAP
E0C0
E0C0
E0C0
E0C0
E0C0
E0C0
E0C0
E0C0
E0C0
E0C0
61C0
7FC0
3EC0
0000
0000
1980
1980
ENDCHAR
STARTCHAR 0392
ENCODING 914
SWIDTH 720 0
DWIDTH 17 0
BBX 13 21 2 -4
BITMAP
C018
C018
C018
C018
C018
C018
C018
C018
C018
C018
C018
C018
E018
6038
7070
3FE0
0FC0
0000
0E20
13E0
11C0
ENDCHAR
STARTCHAR 0393
ENCODING 915
SWIDTH 550 0
DWIDTH 13 0
BBX 10 17 1 -4
BITMAP
E0C0
E0C0
E0C0
E0C0
E0C0
E0C0
E0C0
E0C0
E0C0
E0C0
61C0
7FC0
3EC0
0000
1CC0
2780
2380
ENDCHAR
STARTCHAR 0394
ENCODING 916
SWIDTH 720 0
DWIDTH 17 0
BBX 13 22 2 -5
BITMAP
C018
C018
C018
C018
C018
C018
C018
C018
C018
C018
C018
C018
E018
6038
7070
3FE0
0FC0
0000
0000
0700
0D80
1980
ENDCHAR
STARTCHAR 0395
ENCODING 917
SWIDTH 550 0
DWIDTH 13 0
BBX 10 18 1 -5
BITMAP
E0C0
E0C0
E0C0
E0C0
E0C0
E0C0
E0C0
E0C0
E0C0
E0C0
61C0
7FC0
3EC0
0000
0000
0E00
1A00
3300
ENDCHAR
STARTCHAR 0396
ENCODING 918
SWIDTH 720 0
DWIDTH 17 0
BBX 13 24 2 0
BITMAP
0380
0300
0600
0E60
13C0
11C0
0000
C018
C018
C018
C018
C018
C018
C018
C018
C018
C018
C018
C018
E018
6038
7070
3FE0
0FC0
ENDCHAR
STARTCHAR 0397
ENCODING 919
SWIDTH 550 0
DWIDTH 13 0
BBX 10 20 1 0
BITMAP
0700
0600
0C00
0000
1CC0
2780
2300
E0C0
E0C0
E0C0
E0C0
E0C0
E0C0
E0C0
E0C0
E0C0
E0C0
61C0
7FC0
3EC0
ENDCHAR
STARTCHAR 0398
ENCODING 920
SWIDTH 720 0
DWIDTH 17 0
BBX 13 22 2 0
BITMAP
0CC0
0CC0
0000
1FE0
0000
C018
C018
C018
C018
C018
C018
C018
C018
C018
C018
C018
C018
E018
6038
7070
3FE0
0FC0
ENDCHAR
STARTCHAR 0399
ENCODING 921
SWIDTH 550 0
DWIDTH 13 0
BBX 10 18 1 0
BITMAP
1B80
1B80
0000
3F80
0000
E0C0
E0C0
E0C0
E0C0
E0C0
E0C0
E0C0
E0C0
E0C0
E0C0
61C0
7FC0
3EC0
ENDCHAR
STARTCHAR 039A
ENCODING 922
SWIDTH 677 0
DWIDTH 16 0
BBX 14 21 1 0
BITMAP
0E20
0BE0
10C0
0000
C00C
E01C
E018
6018
7038
3030
3070
3870
1860
1CE0
1CE0
0CC0
0FC0
0F80
0780
0780
0300
ENDCHAR
STARTCHAR 039B
ENCODING 923
SWIDTH 508 0
DWIDTH 12 0
BBX 11 17 0 0
BITMAP
1C40
17C0
2180
0000
E060
6060
60E0
70C0
30C0
31C0
3980
1980
1B80
1B00
0F00
0E00
0600
ENDCHAR
STARTCHAR 039C
ENCODING 924
SWIDTH 677 0
DWIDTH 16 0
BBX 14 21 1 -4
BITMAP
C00C
E01C
E018
6018
7038
3030
3070
3870
1860
1CE0
1CE0
0CC0
0FC0
0F80
0780
0780
0300
0000
0000
0300
0300
ENDCHAR
STARTCHAR 039D
ENCODING 925
SWIDTH 508 0
DWIDTH 12 0
BBX 11 17 0 -4
BITMAP
E060
6060
60E0
70C0
30C0
31C0
3980
1980
1B80
1B00
0F00
0E00
0600
0000
0000
0600
0600
ENDCHAR
STARTCHAR 039E
ENCODING 926
SWIDTH 931 0
DWIDTH 22 0
BBX 21 21 1 0
BITMAP
00C000
006000
002000
000000
C07038
C0F038
E0F030
E0F030
60D870
61D870
719860
719C60
338CE0
330CC0
330CC0
3B06C0
1F07C0
1E0780
1E0780
1E0380
0C0380
ENDCHAR
STARTCHAR 039F
ENCODING 927
SWIDTH 720 0
DWIDTH 17 0
BBX 16 17 0 0
BITMAP
0300
0180
00C0
0000
E1C3
61C3
61C3
6343
7366
3366
3266
3626
163C
1E3C
1E3C
1C18
0C18
ENDCHAR
STARTCHAR 03A0
ENCODING 928
SWIDTH 931 0
DWIDTH 22 0
BBX 21 22 1 0
BITMAP
001800
003000
006000
000000
000000
C07038
C0F038
E0F030
E0F030
60D870
61D870
719860
719C60
338CE0
330CC0
330CC0
3B06C0
1F07C0
1E0780
1E0780
1E0380
0C0380
ENDCHAR
STARTCHAR 03A1
ENCODING 929
SWIDTH 720 0
DWIDTH 17 0
BBX 16 17 0 0
BITMAP
0060
00C0
0080
0000
E1C3
61C3
61C3
6343
7366
3366
3266
3626
163C
1E3C
1E3C
1C18
0C18
ENDCHAR
STARTCHAR 03A2
ENCODING 930
SWIDTH 931 0
DWIDTH 22 0
BBX 21 20 1 0
BITMAP
019800
019800
000000
C07038
C0F038
E0F030
E0F030
60D870
61D870
719860
719C60
338CE0
330CC0
330CC0
3B06C0
1F07C0
1E0780
1E0780
1E0380
0C0380
ENDCHAR
STARTCHAR 03A3
ENCODING 931
SWIDTH 720 0
DWIDTH 17 0
BBX 16 16 0 0
BITMAP
0760
0760
0000
E1C3
61C3
61C3
6343
7366
3366
3266
3626
163C
1E3C
1E3C
1C18
0C18
ENDCHAR
STARTCHAR 03A4
ENCODING 932
SWIDTH 931 0
DWIDTH 22 0
BBX 21 20 1 0
BITMAP
006000
006000
000000
C07038
C0F038
E0F030
E0F030
60D870
61D870
719860
719C60
338CE0
330CC0
330CC0
3B06C0
1F07C0
1E0780
1E0780
1E0380
0C0380
ENDCHAR
STARTCHAR 03A5
ENCODING 933
SWIDTH 720 0
DWIDTH 17 0
BBX 16 16 0 0
BITMAP
0180
0180
0000
E1C3
61C3
61C3
6343
7366
3366
3266
3626
163C
1E3C
1E3C
1C18
0C18
ENDCHAR
STARTCHAR 03A6
ENCODING 934
SWIDTH 931 0
DWIDTH 22 0
BBX 21 21 1 -4
BITMAP
C07038
C0F038
E0F030
E0F030
60D870
61D870
719860
719C60
338CE0
330CC0
330CC0
3B06C0
1F07C0
1E0780
1E0780
1E0380
0C0380
000000
000000
006000
006000
ENDCHAR
STARTCHAR 03A7
ENCODING 935
SWIDTH 720 0
DWIDTH 17 0
BBX 16 17 0 -4
BITMAP
E1C3
61C3
61C3
6343
7366
3366
3266
3626
163C
1E3C
1E3C
1C18
0C18
0000
0000
0180
0180
ENDCHAR
STARTCHAR 03A8
ENCODING 936
SWIDTH 677 0
DWIDTH 16 0
BBX 14 19 1 0
BITMAP
0300
0300
E01C
7038
3030
3870
1CE0
0CC0
0FC0
0780
0780
0780
0FC0
1CE0
1860
3870
7038
6018
E01C
ENDCHAR
STARTCHAR 03A9
ENCODING 937
SWIDTH 508 0
DWIDTH 12 0
BBX 11 16 0 0
BITMAP
0600
0600
0000
60E0
70C0
39C0
1980
1F00
0F00
0E00
0F00
1F80
3980
31C0
70C0
E0E0
ENDCHAR
STARTCHAR 03AA
ENCODING 938
SWIDTH 677 0
DWIDTH 16 0
BBX 14 19 1 0
BITMAP
0CC0
0CC0
E01C
7038
3030
3870
1CE0
0CC0
0FC0
0780
0780
0780
0FC0
1CE0
1860
3870
7038
6018
E01C
ENDCHAR
STARTCHAR 03AB
ENCODING 939
SWIDTH 508 0
DWIDTH 12 0
BBX 11 16 0 0
BITMAP
1980
1980
0000
60E0
70C0
39C0
1980
1F00
0F00
0E00
0F00
1F80
3980
31C0
70C0
E0E0
ENDCHAR
STARTCHAR 03AC
ENCODING 940
SWIDTH 677 0
DWIDTH 16 0
BBX 14 20 1 0
BITMAP
0300
0300
0000
C00C
E01C
7038
3038
3870
1860
1CE0
0FC0
07C0
0780
0300
0300
0300
0300
0300
0300
0300
ENDCHAR
STARTCHAR 03AD
ENCODING 941
SWIDTH 508 0
DWIDTH 12 0
BBX 11 21 0 -5
BITMAP
0600
0600
0000
E060
6060
60E0
70C0
30C0
30C0
3980
1980
1980
1F00
0F00
0F00
0E00
0600
0400
0C00
7800
7800
ENDCHAR
STARTCHAR 03AE
ENCODING 942
SWIDTH 592 0
DWIDTH 14 0
BBX 13 21 1 0
BITMAP
0700
0F00
1980
0000
FFF8
FFF8
0030
0070
00E0
01C0
0380
0300
0700
0E00
1C00
3800
3000
7000
E000
FFF8
FFF8
ENDCHAR
STARTCHAR 03AF
ENCODING 943
SWIDTH 508 0
DWIDTH 12 0
BBX 10 17 1 0
BITMAP
1C00
1600
3300
0000
FFC0
FFC0
0180
0300
0700
0E00
1C00
1800
3000
7000
E000
FFC0
FFC0
ENDCHAR
STARTCHAR 03B0
ENCODING 944
SWIDTH 592 0
DWIDTH 14 0
BBX 13 21 1 -4
BITMAP
FFF8
FFF8
0030
0070
00E0
01C0
0380
0300
0700
0E00
1C00
3800
3000
7000
E000
FFF8
FFF8
0000
0000
0700
0700
ENDCHAR
STARTCHAR 03B1
ENCODING 945
SWIDTH 508 0
DWIDTH 12 0
BBX 10 17 1 -4
BITMAP
FFC0
FFC0
0180
0300
0700
0E00
1C00
1800
3000
7000
E000
FFC0
FFC0
0000
0000
0C00
0C00
ENDCHAR
STARTCHAR 03B2
ENCODING 946
SWIDTH 592 0
DWIDTH 14 0
BBX 13 19 1 -2
BITMAP
FFF8
FFF8
0030
0070
00E0
01C0
0380
0300
0700
0E00
1C00
3800
3000
7000
E000
FFF8
FFF8
0000
1FC0
ENDCHAR
STARTCHAR 03B3
ENCODING 947
SWIDTH 508 0
DWIDTH 12 0
BBX 10 15 1 -2
BITMAP
FFC0
FFC0
0180
0300
0700
0E00
1C00
1800
3000
7000
E000
FFC0
FFC0
0000
7F80
ENDCHAR
STARTCHAR 03B4
ENCODING 948
SWIDTH 550 0
DWIDTH 13 0
BBX 10 19 2 -2
BITMAP
C000
C000
C000
C000
DF00
FF80
E180
C180
C1C0
C1C0
C1C0
C1C0
C1C0
C1C0
C1C0
C1C0
C1C0
0000
7F00
ENDCHAR
STARTCHAR 03B5
ENCODING 949
SWIDTH 296 0
DWIDTH 7 0
BBX 6 20 0 0
BITMAP
CC
CC
00
00
30
30
30
FC
FC
30
30
30
30
30
30
30
30
30
3C
1C
ENDCHAR
STARTCHAR 03B6
ENCODING 950
SWIDTH 720 0
DWIDTH 17 0
BBX 16 19 0 0
BITMAP
01C0
0220
0220
0220
01C0
0000
E1C3
61C3
61C3
6343
7366
3366
3266
3626
163C
1E3C
1E3C
1C18
0C18
ENDCHAR
STARTCHAR 03B7
ENCODING 951
SWIDTH 508 0
DWIDTH 12 0
BBX 11 23 0 -5
BITMAP
0700
0900
0880
0900
0700
E060
6060
60E0
70C0
30C0
30C0
3980
1980
1980
1F00
0F00
0F00
0E00
0600
0400
0C00
7800
7800
ENDCHAR
STARTCHAR 03B8
ENCODING 952
SWIDTH 296 0
DWIDTH 7 0
BBX 6 20 0 0
BITMAP
38
38
00
1C
3C
30
30
30
F0
F0
30
30
30
30
30
30
30
30
30
30
ENDCHAR
STARTCHAR 03B9
ENCODING 953
SWIDTH 677 0
DWIDTH 16 0
BBX 14 21 1 -4
BITMAP
0300
0780
0780
0FC0
0CC0
0CC0
18E0
1860
1860
3070
3FF0
7FF0
6038
6018
E01C
C01C
C00C
0000
0000
0300
0300
ENDCHAR
STARTCHAR 03BA
ENCODING 954
SWIDTH 550 0
DWIDTH 13 0
BBX 12 17 1 -4
BITMAP
1F00
7FC0
60C0
60C0
00C0
0FC0
7FC0
F0C0
C0C0
C0C0
E3C0
7FF0
3C70
0000
0000
0600
0600
ENDCHAR
STARTCHAR 03BB
ENCODING 955
SWIDTH 677 0
DWIDTH 16 0
BBX 14 22 1 0
BITMAP
0300
0080
0080
0300
0000
0300
0780
0780
0FC0
0CC0
0CC0
18E0
1860
1860
3070
3FF0
7FF0
6038
6018
E01C
C01C
C00C
ENDCHAR
STARTCHAR 03BC
ENCODING 956
SWIDTH 550 0
DWIDTH 13 0
BBX 12 17 1 0
BITMAP
0E00
0300
0300
0400
1F00
7FC0
60C0
60C0
00C0
0FC0
7FC0
F0C0
C0C0
C0C0
E3C0
7FF0
3C70
ENDCHAR
STARTCHAR 03BD
ENCODING 957
SWIDTH 677 0
DWIDTH 16 0
BBX 14 23 1 0
BITMAP
0018
0030
03E0
0780
0CC0
0000
0300
0780
0780
0FC0
0CC0
0CC0
18E0
1860
1860
3070
3FF0
7FF0
6038
6018
E01C
C01C
C00C
ENDCHAR
STARTCHAR 03BE
ENCODING 958
SWIDTH 550 0
DWIDTH 13 0
BBX 12 19 1 0
BITMAP
0060
00C0
0F80
1B00
3180
0000
1F00
7FC0
60C0
60C0
00C0
0FC0
7FC0
F0C0
C0C0
C0C0
E3C0
7FF0
3C70
ENDCHAR
STARTCHAR 03BF
ENCODING 959
SWIDTH 677 0
DWIDTH 16 0
BBX 14 22 1 0
BITMAP
C000
6000
3700
0D80
0CC0
0300
0780
0780
0FC0
0CC0
0CC0
18E0
1860
1860
3070
3FF0
7FF0
6038
6018
E01C
C01C
C00C
ENDCHAR
STARTCHAR 03C0
ENCODING 960
SWIDTH 550 0
DWIDTH 13 0
BBX 13 19 0 0
BITMAP
C000
6000
3700
0D80
1880
0000
0F80
3FE0
3060
3060
0060
07E0
3FE0
7860
6060
6060
71E0
3FF8
1E38
ENDCHAR
STARTCHAR 03C1
ENCODING 961
SWIDTH 677 0
DWIDTH 16 0
BBX 14 24 1 0
BITMAP
0060
0010
0010
03E0
0780
0CC0
0000
0300
0780
0780
0FC0
0CC0
0CC0
18E0
1860
1860
3070
3FF0
7FF0
6038
6018
E01C
C01C
C00C
ENDCHAR
STARTCHAR 03C2
ENCODING 962
SWIDTH 550 0
DWIDTH 13 0
BBX 12 20 1 0
BITMAP
01C0
0040
0040
0E80
1B00
3300
0000
1F00
7FC0
60C0
60C0
00C0
0FC0
7FC0
F0C0
C0C0
C0C0
E3C0
7FF0
3C70
ENDCHAR
STARTCHAR 03C3
ENCODING 963
SWIDTH 677 0
DWIDTH 16 0
BBX 14 24 1 0
BITMAP
0E20
0BE0
10C0
0700
0580
0CC0
0000
0300
0780
0780
0FC0
0CC0
0CC0
18E0
1860
1860
3070
3FF0
7FF0
6038
6018
E01C
C01C
C00C
ENDCHAR
STARTCHAR 03C4
ENCODING 964
SWIDTH 550 0
DWIDTH 13 0
BBX 12 20 1 0
BITMAP
3C80
2F80
4300
0000
0E00
1B00
3300
1F00
7FC0
60C0
60C0
00C0
0FC0
7FC0
F0C0
C0C0
C0C0
E3C0
7FF0
3C70
ENDCHAR
STARTCHAR 03C5
ENCODING 965
SWIDTH 677 0
DWIDTH 16 0
BBX 14 25 1 -4
BITMAP
0700
0580
0CC0
0000
0300
0780
0780
0FC0
0CC0
0CC0
18E0
1860
1860
3070
3FF0
7FF0
6038
6018
E01C
C01C
C00C
0000
0000
0300
0300
ENDCHAR
STARTCHAR 03C6
ENCODING 966
SWIDTH 550 0
DWIDTH 13 0
BBX 12 21 1 -4
BITMAP
0E00
1B00
1180
0000
1F00
7FC0
60C0
60C0
00C0
0FC0
7FC0
F0C0
C0C0
C0C0
E3C0
7FF0
3C70
0000
0000
0600
0600
ENDCHAR
STARTCHAR 03C7
ENCODING 967
SWIDTH 677 0
DWIDTH 16 0
BBX 14 24 1 0
BITMAP
00C0
0180
0300
0820
0C40
0780
0000
0300
0780
0780
0FC0
0CC0
0CC0
18E0
1860
1860
3070
3FF0
7FF0
6038
6018
E01C
C01C
C00C
ENDCHAR
STARTCHAR 03C8
ENCODING 968
SWIDTH 550 0
DWIDTH 13 0
BBX 12 20 1 0
BITMAP
0180
0300
0600
3080
1080
0F00
0000
1F00
7FC0
60C0
60C0
00C0
0FC0
7FC0
F0C0
C0C0
C0C0
E3C0
7FF0
3C70
ENDCHAR
STARTCHAR 03C9
ENCODING 969
SWIDTH 677 0
DWIDTH 16 0
BBX 14 24 1 0
BITMAP
0E00
0600
0300
1860
0840
0780
0000
0300
0780
0780
0FC0
0CC0
0CC0
18E0
1860
1860
3070
3FF0
7FF0
6038
6018
E01C
C01C
C00C
ENDCHAR
STARTCHAR 03CA
ENCODING 970
SWIDTH 550 0
DWIDTH 13 0
BBX 12 20 1 0
BITMAP
1800
0C00
0600
3080
1080
0F00
0000
1F00
7FC0
60C0
60C0
00C0
0FC0
7FC0
F0C0
C0C0
C0C0
E3C0
7FF0
3C70
ENDCHAR
STARTCHAR 03CB
ENCODING 971
SWIDTH 677 0
DWIDTH 16 0
BBX 14 25 1 0
BITMAP
0300
0080
0080
0300
1860
0840
0780
0000
0300
0780
0780
0FC0
0CC0
0CC0
18E0
1860
1860
3070
3FF0
7FF0
6038
6018
E01C
C01C
C00C
ENDCHAR
STARTCHAR 03CC
ENCODING 972
SWIDTH 550 0
DWIDTH 13 0
BBX 12 22 1 0
BITMAP
0600
0100
0300
0400
0000
3080
1080
0F00
0000
1F00
7FC0
60C0
60C0
00C0
0FC0
7FC0
F0C0
C0C0
C0C0
E3C0
7FF0
3C70
ENDCHAR
STARTCHAR 03CD
ENCODING 973
SWIDTH 677 0
DWIDTH 16 0
BBX 14 25 1 0
BITMAP
0F20
09E0
18C0
0000
1860
0840
0780
0000
0300
0780
0780
0FC0
0CC0
0CC0
18E0
1860
1860
3070
3FF0
7FF0
6038
6018
E01C
C01C
C00C
ENDCHAR
STARTCHAR 03CE
ENCODING 974
SWIDTH 550 0
DWIDTH 13 0
BBX 12 20 1 0
BITMAP
1C40
37C0
2180
3080
1080
0F00
0000
1F00
7FC0
60C0
60C0
00C0
0FC0
7FC0
F0C0
C0C0
C0C0
E3C0
7FF0
3C70
ENDCHAR
STARTCHAR 03CF
ENCODING 975
SWIDTH 677 0
DWIDTH 16 0
BBX 14 25 1 -4
BITMAP
1860
0840
0780
0000
0300
0780
0780
0FC0
0CC0
0CC0
18E0
1860
1860
3070
3FF0
7FF0
6038
6018
E01C
C01C
C00C
0000
0000
0300
0300
ENDCHAR
STARTCHAR 03D0
ENCODING 976
SWIDTH 550 0
DWIDTH 13 0
BBX 12 21 1 -4
BITMAP
3080
1080
0F00
0000
1F00
7FC0
60C0
60C0
00C0
0FC0
7FC0
F0C0
C0C0
C0C0
E3C0
7FF0
3C70
0000
0000
0600
0600
ENDCHAR
STARTCHAR 03D1
ENCODING 977
SWIDTH 677 0
DWIDTH 16 0
BBX 13 21 2 -4
BITMAP
FFF0
FFF0
C000
C000
C000
C000
C000
FFF0
FFF0
C000
C000
C000
C000
C000
C000
FFF8
FFF8
0000
0000
0700
0700
ENDCHAR
STARTCHAR 03D2
ENCODING 978
SWIDTH 550 0
DWIDTH 13 0
BBX 11 17 1 -4
BITMAP
1F00
3FC0
70C0
E060
C060
FFE0
FFE0
C000
C000
E060
70C0
3FC0
1F00
0000
0000
0600
0600
ENDCHAR
STARTCHAR 03D3
ENCODING 979
SWIDTH 677 0
DWIDTH 16 0
BBX 13 22 2 0
BITMAP
0600
0100
0100
0600
0000
FFF0
FFF0
C000
C000
C000
C000
C000
FFF0
FFF0
C000
C000
C000
C000
C000
C000
FFF8
FFF8
ENDCHAR
STARTCHAR 03D4
ENCODING 980
SWIDTH 550 0
DWIDTH 13 0
BBX 11 18 1 0
BITMAP
0E00
0200
0200
0400
0000
1F00
3FC0
70C0
E060
C060
FFE0
FFE0
C000
C000
E060
70C0
3FC0
1F00
ENDCHAR
STARTCHAR 03D5
ENCODING 981
SWIDTH 677 0
DWIDTH 16 0
BBX 13 21 2 0
BITMAP
0E60
13C0
1180
0000
FFF0
FFF0
C000
C000
C000
C000
C000
FFF0
FFF0
C000
C000
C000
C000
C000
C000
FFF8
FFF8
ENDCHAR
STARTCHAR 03D6
ENCODING 982
SWIDTH 550 0
DWIDTH 13 0
BBX 11 17 1 0
BITMAP
1CC0
2780
2380
0000
1F00
3FC0
70C0
E060
C060
FFE0
FFE0
C000
C000
E060
70C0
3FC0
1F00
ENDCHAR
STARTCHAR 03D7
ENCODING 983
SWIDTH 677 0
DWIDTH 16 0
BBX 13 24 2 0
BITMAP
0030
0060
00C0
0700
0D00
1980
0000
FFF0
FFF0
C000
C000
C000
C000
C000
FFF0
FFF0
C000
C000
C000
C000
C000
C000
FFF8
FFF8
ENDCHAR
STARTCHAR 03D8
ENCODING 984
SWIDTH 550 0
DWIDTH 13 0
BBX 11 19 1 0
BITMAP
0060
00C0
0F80
1B00
3300
0000
1F00
3FC0
70C0
E060
C060
FFE0
FFE0
C000
C000
E060
70C0
3FC0
1F00
ENDCHAR
STARTCHAR 03D9
ENCODING 985
SWIDTH 677 0
DWIDTH 16 0
BBX 13 23 2 0
BITMAP
E000
6000
3380
0780
0CC0
0000
FFF0
FFF0
C000
C000
C000
C000
C000
FFF0
FFF0
C000
C000
C000
C000
C000
C000
FFF8
FFF8
ENDCHAR
STARTCHAR 03DA
ENCODING 986
SWIDTH 550 0
DWIDTH 13 0
BBX 12 19 0 0
BITMAP
E000
6000
3700
0D80
08C0
0000
0F80
1FE0
3860
7030
6030
7FF0
7FF0
6000
6000
7030
3860
1FE0
0F80
ENDCHAR
STARTCHAR 03DB
ENCODING 987
SWIDTH 677 0
DWIDTH 16 0
BBX 13 24 2 0
BITMAP
00E0
0020
0020
0740
0D80
1980
0000
FFF0
FFF0
C000
C000
C000
C000
C000
FFF0
FFF0
C000
C000
C000
C000
C000
C000
FFF8
FFF8
ENDCHAR
STARTCHAR 03DC
ENCODING 988
SWIDTH 550 0
DWIDTH 13 0
BBX 11 20 1 0
BITMAP
01C0
0060
0040
0E80
1B00
1980
0000
1F00
3FC0
70C0
E060
C060
FFE0
FFE0
C000
C000
E060
70C0
3FC0
1F00
ENDCHAR
STARTCHAR 03DD
ENCODING 989
SWIDTH 677 0
DWIDTH 16 0
BBX 13 25 2 0
BITMAP
0E60
13C0
1180
0000
0E00
0F00
1980
0000
FFF0
FFF0
C000
C000
C000
C000
C000
FFF0
FFF0
C000
C000
C000
C000
C000
C000
FFF8
FFF8
ENDCHAR
STARTCHAR 03DE
ENCODING 990
SWIDTH 550 0
DWIDTH 13 0
BBX 11 20 1 0
BITMAP
1C80
2780
2300
0000
0E00
1B00
3180
1F00
3FC0
70C0
E060
C060
FFE0
FFE0
C000
C000
E060
70C0
3FC0
1F00
ENDCHAR
STARTCHAR 03DF
ENCODING 991
SWIDTH 677 0
DWIDTH 16 0
BBX 13 25 2 -4
BITMAP
0E00
0F00
1980
0000
FFF0
FFF0
C000
C000
C000
C000
C000
FFF0
FFF0
C000
C000
C000
C000
C000
C000
FFF8
FFF8
0000
0000
0700
0700
ENDCHAR
STARTCHAR 03E0
ENCODING 992
SWIDTH 550 0
DWIDTH 13 0
BBX 11 21 1 -4
BITMAP
0E00
1A00
3300
0000
1F00
3FC0
70C0
E060
C060
FFE0
FFE0
C000
C000
E060
70C0
3FC0
1F00
0000
0000
0600
0600
ENDCHAR
STARTCHAR 03E1
ENCODING 993
SWIDTH 296 0
DWIDTH 7 0
BBX 3 22 2 0
BITMAP
E0
20
20
40
00
E0
E0
E0
E0
E0
E0
E0
E0
E0
E0
E0
E0
E0
E0
E0
E0
E0
ENDCHAR
STARTCHAR 03E2
ENCODING 994
SWIDTH 296 0
DWIDTH 7 0
BBX 3 18 2 0
BITMAP
C0
20
20
C0
00
C0
C0
C0
C0
C0
C0
C0
C0
C0
C0
C0
C0
C0
ENDCHAR
STARTCHAR 03E3
ENCODING 995
SWIDTH 296 0
DWIDTH 7 0
BBX 3 21 2 -4
BITMAP
E0
E0
E0
E0
E0
E0
E0
E0
E0
E0
E0
E0
E0
E0
E0
E0
E0
00
00
C0
C0
ENDCHAR
STARTCHAR 03E4
ENCODING 996
SWIDTH 211 0
DWIDTH 5 0
BBX 2 21 2 -4
BITMAP
C0
C0
00
00
C0
C0
C0
C0
C0
C0
C0
C0
C0
C0
C0
C0
C0
00
00
C0
C0
ENDCHAR
STARTCHAR 03E5
ENCODING 997
SWIDTH 762 0
DWIDTH 18 0
BBX 16 21 1 -4
BITMAP
07F0
1FF8
3C1E
700E
6007
E003
E003
C003
C003
C003
C003
E007
6007
700E
381C
1FF8
07E0
0000
0000
01C0
01C0
ENDCHAR
STARTCHAR 03E6
ENCODING 998
SWIDTH 550 0
DWIDTH 13 0
BBX 11 17 1 -4
BITMAP
1F00
3F80
71C0
E0E0
C060
C060
C060
C060
C060
E0E0
61C0
7F80
1F00
0000
0000
0600
0600
ENDCHAR
STARTCHAR 03E7
ENCODING 999
SWIDTH 762 0
DWIDTH 18 0
BBX 16 23 1 0
BITMAP
0180
0040
0040
0180
0000
0000
07F0
1FF8
3C1E
700E
6007
E003
E003
C003
C003
C003
C003
E007
6007
700E
381C
1FF8
07E0
ENDCHAR
STARTCHAR 03E8
ENCODING 1000
SWIDTH 550 0
DWIDTH 13 0
BBX 11 18 1 0
BITMAP
0E00
0200
0200
0400
0000
1F00
3F80
71C0
E0E0
C060
C060
C060
C060
C060
E0E0
61C0
7F80
1F00
ENDCHAR
STARTCHAR 03E9
ENCODING 1001
SWIDTH 762 0
DWIDTH 18 0
BBX 16 24 1 0
BITMAP
000C
0018
0010
01C0
0340
0660
0000
07F0
1FF8
3C1E
700E
6007
E003
E003
C003
C003
C003
C003
E007
6007
700E
381C
1FF8
07E0
ENDCHAR
STARTCHAR 03EA
ENCODING 1002
SWIDTH 550 0
DWIDTH 13 0
BBX 12 19 1 0
BITMAP
0070
00E0
0EC0
1B00
1180
0000
1F00
3F80
71C0
E0E0
C060
C060
C060
C060
C060
E0E0
61C0
7F80
1F00
ENDCHAR
STARTCHAR 03EB
ENCODING 1003
SWIDTH 762 0
DWIDTH 18 0
BBX 16 24 1 0
BITMAP
7000
3800
19C0
03C0
0660
0000
0000
07F0
1FF8
3C1E
700E
6007
E003
E003
C003
C003
C003
C003
E007
6007
700E
381C
1FF8
07E0
ENDCHAR
STARTCHAR 03EC
ENCODING 1004
SWIDTH 550 0
DWIDTH 13 0
BBX 12 19 0 0
BITMAP
C000
6000
3700
0D80
18C0
0000
0F80
1FC0
38E0
7070
6030
6030
6030
6030
6030
7070
30E0
3FC0
0F80
ENDCHAR
STARTCHAR 03ED
ENCODING 1005
SWIDTH 762 0
DWIDTH 18 0
BBX 16 25 1 0
BITMAP
0038
0008
0008
0010
01C0
0360
0230
0000
07F0
1FF8
3C1E
700E
6007
E003
E003
C003
C003
C003
C003
E007
6007
700E
381C
1FF8
07E0
ENDCHAR
STARTCHAR 03EE
ENCODING 1006
SWIDTH 550 0
DWIDTH 13 0
BBX 11 20 1 0
BITMAP
01C0
0060
0040
0E80
1B00
1180
0000
1F00
3F80
71C0
E0E0
C060
C060
C060
C060
C060
E0E0
61C0
7F80
1F00
ENDCHAR
STARTCHAR 03EF
ENCODING 1007
SWIDTH 762 0
DWIDTH 18 0
BBX 16 25 1 0
BITMAP
0388
04F8
0470
0000
01C0
0160
0330
0000
07F0
1FF8
3C1E
700E
6007
E003
E003
C003
C003
C003
C003
E007
6007
700E
381C
1FF8
07E0
ENDCHAR
STARTCHAR 03F0
ENCODING 1008
SWIDTH 550 0
DWIDTH 13 0
BBX 11 20 1 0
BITMAP
3C80
2780
6300
0000
0E00
1B00
3100
1F00
3F80
71C0
E0E0
C060
C060
C060
C060
C060
E0E0
61C0
7F80
1F00
ENDCHAR
STARTCHAR 03F1
ENCODING 1009
SWIDTH 762 0
DWIDTH 18 0
BBX 16 25 1 -4
BITMAP
01C0
0340
0660
0000
07F0
1FF8
3C1E
700E
6007
E003
E003
C003
C003
C003
C003
E007
6007
700E
381C
1FF8
07E0
0000
0000
01C0
01C0
ENDCHAR
STARTCHAR 03F2
ENCODING 1010
SWIDTH 550 0
DWIDTH 13 0
BBX 11 21 1 -4
BITMAP
0E00
1B00
1980
0000
1F00
3F80
71C0
E0E0
C060
C060
C060
C060
C060
E0E0
61C0
7F80
1F00
0000
0000
0600
0600
ENDCHAR
STARTCHAR 03F3
ENCODING 1011
SWIDTH 889 0
DWIDTH 21 0
BBX 19 21 1 0
BITMAP
006000
00C000
018000
000000
07F060
1FF8E0
3C1FE0
700E00
600700
E00300
E00300
C00300
C00300
C00300
C00300
E00700
600700
700E00
381C00
1FF800
07E000
ENDCHAR
STARTCHAR 03F4
ENCODING 1012
SWIDTH 677 0
DWIDTH 16 0
BBX 14 18 1 -1
BITMAP
0300
0600
0C00
0000
1F1C
3F8C
71FC
E0F0
C060
C060
C060
C060
C060
C060
E0E0
71C0
7F80
1F00
ENDCHAR
STARTCHAR 03F5
ENCODING 1013
SWIDTH 889 0
DWIDTH 21 0
BBX 19 22 1 0
BITMAP
030000
018000
00C000
000000
000000
07F060
1FF8E0
3C1FE0
700E00
600700
E00300
E00300
C00300
C00300
C00300
C00300
E00700
600700
700E00
381C00
1FF800
07E000
ENDCHAR
STARTCHAR 03F6
ENCODING 1014
SWIDTH 677 0
DWIDTH 16 0
BBX 14 18 1 -1
BITMAP
1C00
0C00
0600
0000
1F1C
3F8C
71FC
E0F0
C060
C060
C060
C060
C060
C060
E0E0
71C0
7F80
1F00
ENDCHAR
STARTCHAR 03F7
ENCODING 1015
SWIDTH 889 0
DWIDTH 21 0
BBX 19 23 1 0
BITMAP
018000
004000
004000
018000
000000
000000
07F060
1FF8E0
3C1FE0
700E00
600700
E00300
E00300
C00300
C00300
C00300
C00300
E00700
600700
700E00
381C00
1FF800
07E000
ENDCHAR
STARTCHAR 03F8
ENCODING 1016
SWIDTH 677 0
DWIDTH 16 0
BBX 14 19 1 -1
BITMAP
0E00
0200
0200
0400
0000
1F1C
3F8C
71FC
E0F0
C060
C060
C060
C060
C060
C060
E0E0
71C0
7F80
1F00
ENDCHAR
STARTCHAR 03F9
ENCODING 1017
SWIDTH 889 0
DWIDTH 21 0
BBX 19 22 1 0
BITMAP
039000
04F000
046000
000000
000000
07F060
1FF8E0
3C1FE0
700E00
600700
E00300
E00300
C00300
C00300
C00300
C00300
E00700
600700
700E00
381C00
1FF800
07E000
ENDCHAR
STARTCHAR 03FA
ENCODING 1018
SWIDTH 677 0
DWIDTH 16 0
BBX 14 18 1 -1
BITMAP
1CC0
2780
2380
0000
1F1C
3F8C
71FC
E0F0
C060
C060
C060
C060
C060
C060
E0E0
71C0
7F80
1F00
ENDCHAR
STARTCHAR 03FB
ENCODING 1019
SWIDTH 889 0
DWIDTH 21 0
BBX 19 21 1 -4
BITMAP
07F060
1FF8E0
3C1FE0
700E00
600700
E00300
E00300
C00300
C00300
C00300
C00300
E00700
600700
700E00
381C00
1FF800
07E000
000000
000000
018000
018000
ENDCHAR
STARTCHAR 03FC
ENCODING 1020
SWIDTH 677 0
DWIDTH 16 0
BBX 14 17 1 -4
BITMAP
1F1C
3F8C
71FC
E0F0
C060
C060
C060
C060
C060
C060
E0E0
71C0
7F80
1F00
0000
0C00
0C00
ENDCHAR
STARTCHAR 03FD
ENCODING 1021
SWIDTH 720 0
DWIDTH 17 0
BBX 13 21 2 -4
BITMAP
C018
C018
C018
C018
C018
C018
C018
C018
C018
C018
C018
C018
E018
6038
7070
3FE0
0FC0
0000
0000
0700
0700
ENDCHAR
STARTCHAR 03FE
ENCODING 1022
SWIDTH 550 0
DWIDTH 13 0
BBX 10 17 1 -4
BITMAP
E0C0
E0C0
E0C0
E0C0
E0C0
E0C0
E0C0
E0C0
E0C0
E0C0
61C0
7FC0
3EC0
0000
0000
0C00
0C00
ENDCHAR
STARTCHAR 03FF
ENCODING 1023
SWIDTH 720 0
DWIDTH 17 0
BBX 13 22 2 0
BITMAP
0700
0100
0100
0200
0000
C018
C018
C018
C018
C018
C018
C018
C018
C018
C018
C018
C018
E018
6038
7070
3FE0
0FC0
ENDCHAR
STARTCHAR 0400
ENCODING 1024
SWIDTH 550 0
DWIDTH 13 0
BBX 10 18 1 0
BITMAP
0E00
0200
0200
0400
0000
E0C0
E0C0
E0C0
E0C0
E0C0
E0C0
E0C0
E0C0
E0C0
E0C0
61C0
7FC0
3EC0
ENDCHAR
STARTCHAR 0401
ENCODING 1025
SWIDTH 847 0
DWIDTH 20 0
BBX 17 21 2 0
BITMAP
018000
030000
060000
000080
C01980
C01F80
C01C00
C01800
C01800
C01800
C01800
C01800
C01800
C01800
C01800
C01800
E01800
603800
707000
3FE000
0FC000
ENDCHAR
STARTCHAR 0402
ENCODING 1026
SWIDTH 677 0
DWIDTH 16 0
BBX 15 17 1 0
BITMAP
0700
0600
0C00
0000
E004
E0CE
E0FC
E0E0
E0C0
E0C0
E0C0
E0C0
E0C0
60C0
61C0
7FC0
3EC0
ENDCHAR
STARTCHAR 0403
ENCODING 1027
SWIDTH 847 0
DWIDTH 20 0
BBX 17 21 2 0
BITMAP
0E0000
060000
030000
000080
C01980
C01F80
C01C00
C01800
C01800
C01800
C01800
C01800
C01800
C01800
C01800
C01800
E01800
603800
707000
3FE000
0FC000
ENDCHAR
STARTCHAR 0404
ENCODING 1028
SWIDTH 677 0
DWIDTH 16 0
BBX 15 17 1 0
BITMAP
1C00
0E00
0600
0000
E004
E0CE
E0FC
E0E0
E0C0
E0C0
E0C0
E0C0
E0C0
60C0
61C0
7FC0
3EC0
ENDCHAR
STARTCHAR 0405
ENCODING 1029
SWIDTH 847 0
DWIDTH 20 0
BBX 17 22 2 0
BITMAP
030000
008000
018000
020000
000080
C01980
C01F80
C01C00
C01800
C01800
C01800
C01800
C01800
C01800
C01800
C01800
C01800
E01800
603800
707000
3FE000
0FC000
ENDCHAR
STARTCHAR 0406
ENCODING 1030
SWIDTH 677 0
DWIDTH 16 0
BBX 15 17 1 0
BITMAP
0E00
0200
0200
0400
E004
E0CE
E0FC
E0E0
E0C0
E0C0
E0C0
E0C0
E0C0
60C0
61C0
7FC0
3EC0
ENDCHAR
STARTCHAR 0407
ENCODING 1031
SWIDTH 847 0
DWIDTH 20 0
BBX 17 21 2 0
BITMAP
0E2000
13E000
11C000
000080
C01980
C01F80
C01C00
C01800
C01800
C01800
C01800
C01800
C01800
C01800
C01800
C01800
E01800
603800
707000
3FE000
0FC000
ENDCHAR
STARTCHAR 0408
ENCODING 1032
SWIDTH 677 0
DWIDTH 16 0
BBX 15 17 1 0
BITMAP
3C80
2F80
4300
0000
E004
E0CE
E0FC
E0E0
E0C0
E0C0
E0C0
E0C0
E0C0
60C0
61C0
7FC0
3EC0
ENDCHAR
STARTCHAR 0409
ENCODING 1033
SWIDTH 847 0
DWIDTH 20 0
BBX 17 22 2 -4
BITMAP
000080
C01980
C01F80
C01C00
C01800
C01800
C01800
C01800
C01800
C01800
C01800
C01800
C01800
E01800
603800
707000
3FE000
0FC000
000000
000000
030000
030000
ENDCHAR
STARTCHAR 040A
ENCODING 1034
SWIDTH 677 0
DWIDTH 16 0
BBX 15 17 1 -4
BITMAP
E004
E0CE
E0FC
E0E0
E0C0
E0C0
E0C0
E0C0
E0C0
60C0
61C0
7FC0
3EC0
0000
0000
0600
0600
ENDCHAR
STARTCHAR 040B
ENCODING 1035
SWIDTH 677 0
DWIDTH 16 0
BBX 14 21 1 0
BITMAP
0600
0300
0100
0000
C00C
E01C
7038
3038
3870
1860
1CE0
0FC0
07C0
0780
0300
0300
0300
0300
0300
0300
0300
ENDCHAR
STARTCHAR 040C
ENCODING 1036
SWIDTH 508 0
DWIDTH 12 0
BBX 11 22 0 -5
BITMAP
1C00
0E00
0200
0000
E060
6060
60E0
70C0
30C0
30C0
3980
1980
1980
1F00
0F00
0F00
0E00
0600
0400
0C00
7800
7800
ENDCHAR
STARTCHAR 040D
ENCODING 1037
SWIDTH 677 0
DWIDTH 16 0
BBX 14 21 1 -4
BITMAP
C00C
E01C
7038
3038
3870
1860
1CE0
0FC0
07C0
0780
0300
0300
0300
0300
0300
0300
0300
0000
0000
0300
0300
ENDCHAR
STARTCHAR 040E
ENCODING 1038
SWIDTH 508 0
DWIDTH 12 0
BBX 11 22 0 -9
BITMAP
E060
6060
60E0
70C0
30C0
30C0
3980
1980
1980
1F00
0F00
0F00
0E00
0600
0400
0C00
7800
7800
0000
0000
0600
0600
ENDCHAR
STARTCHAR 040F
ENCODING 1039
SWIDTH 677 0
DWIDTH 16 0
BBX 14 22 1 0
BITMAP
0300
0080
0180
0200
0000
C00C
E01C
7038
3038
3870
1860
1CE0
0FC0
07C0
0780
0300
0300
0300
0300
0300
0300
0300
ENDCHAR
STARTCHAR 0410
ENCODING 1040
SWIDTH 508 0
DWIDTH 12 0
BBX 11 22 0 -5
BITMAP
0E00
0300
0200
0400
E060
6060
60E0
70C0
30C0
30C0
3980
1980
1980
1F00
0F00
0F00
0E00
0600
0400
0C00
7800
7800
ENDCHAR
STARTCHAR 0411
ENCODING 1041
SWIDTH 677 0
DWIDTH 16 0
BBX 14 21 1 0
BITMAP
0F20
09E0
18C0
0000
C00C
E01C
7038
3038
3870
1860
1CE0
0FC0
07C0
0780
0300
0300
0300
0300
0300
0300
0300
ENDCHAR
STARTCHAR 0412
ENCODING 1042
SWIDTH 508 0
DWIDTH 12 0
BBX 11 22 0 -5
BITMAP
1C40
37C0
2180
0000
E060
6060
60E0
70C0
30C0
30C0
3980
1980
1980
1F00
0F00
0F00
0E00
0600
0400
0C00
7800
7800
ENDCHAR
STARTCHAR 0413
ENCODING 1043
SWIDTH 677 0
DWIDTH 16 0
BBX 13 23 2 0
BITMAP
3FC0
0000
0700
0F00
1980
0000
FFF0
FFF0
C000
C000
C000
C000
C000
FFF0
FFF0
C000
C000
C000
C000
C000
C000
FFF8
FFF8
ENDCHAR
STARTCHAR 0414
ENCODING 1044
SWIDTH 550 0
DWIDTH 13 0
BBX 11 19 1 0
BITMAP
3F80
0000
0000
0E00
1B00
1980
1F00
3FC0
70C0
E060
C060
FFE0
FFE0
C000
C000
E060
70C0
3FC0
1F00
ENDCHAR
STARTCHAR 0415
ENCODING 1045
SWIDTH 677 0
DWIDTH 16 0
BBX 13 25 2 0
BITMAP
1980
0F00
0E00
0000
0E00
0B00
1980
0000
FFF0
FFF0
C000
C000
C000
C000
C000
FFF0
FFF0
C000
C000
C000
C000
C000
C000
FFF8
FFF8
ENDCHAR
STARTCHAR 0416
ENCODING 1046
SWIDTH 550 0
DWIDTH 13 0
BBX 11 21 1 0
BITMAP
1980
0F00
0E00
0000
0E00
0B00
1980
0000
1F00
3FC0
70C0
E060
C060
FFE0
FFE0
C000
C000
E060
70C0
3FC0
1F00
ENDCHAR
STARTCHAR 0417
ENCODING 1047
SWIDTH 677 0
DWIDTH 16 0
BBX 13 21 1 0
BITMAP
0E00
0600
0300
0000
FFF8
FFF8
E000
E000
E000
E000
E000
FFF0
FFF0
E000
E000
E000
E000
E000
E000
FFF8
FFF8
ENDCHAR
STARTCHAR 0418
ENCODING 1048
SWIDTH 720 0
DWIDTH 17 0
BBX 13 21 2 0
BITMAP
0C00
0600
0300
0000
C038
C038
C078
C0F8
C0D8
C1D8
C198
C318
C718
C618
CC18
DC18
D818
F818
F018
E018
E018
ENDCHAR
STARTCHAR 0419
ENCODING 1049
SWIDTH 550 0
DWIDTH 13 0
BBX 11 17 1 0
BITMAP
1C00
0C00
0600
0000
1F00
3F80
71C0
E0E0
C060
C060
FFE0
FFE0
C000
E060
70E0
3FC0
1F00
ENDCHAR
STARTCHAR 041A
ENCODING 1050
SWIDTH 550 0
DWIDTH 13 0
BBX 10 17 2 0
BITMAP
3800
1800
0C00
0000
0000
C1C0
C1C0
C3C0
C7C0
C6C0
CCC0
DCC0
D8C0
F0C0
F0C0
E0C0
C0C0
ENDCHAR
STARTCHAR 041B
ENCODING 1051
SWIDTH 889 0
DWIDTH 21 0
BBX 23 21 0 0
BITMAP
00C200
004200
003C00
000000
70180E
70181C
381838
1C1870
0E18F0
0718E0
0399C0
03FF80
01FF80
0399C0
0719C0
0E18E0
0E1870
1C1838
381838
70181C
F0180E
ENDCHAR
STARTCHAR 041C
ENCODING 1052
SWIDTH 677 0
DWIDTH 16 0
BBX 17 17 1 0
BITMAP
041000
063000
03C000
000000
000000
E18380
618700
318E00
398C00
1D9800
0FF000
0FF800
1D9C00
398C00
718E00
E18700
C18380
ENDCHAR
STARTCHAR 041D
ENCODING 1053
SWIDTH 677 0
DWIDTH 16 0
BBX 14 21 1 0
BITMAP
0860
0840
0780
0000
0380
0780
0780
0FC0
0CC0
0CE0
1C60
1860
1870
3030
3FF0
7FF8
7018
6018
E01C
C00C
C00C
ENDCHAR
STARTCHAR 041E
ENCODING 1054
SWIDTH 550 0
DWIDTH 13 0
BBX 11 18 1 -1
BITMAP
2080
3180
1F00
0000
3F00
7F80
61C0
C0C0
00C0
00C0
3FC0
7EC0
E0C0
C0C0
C1C0
E3C0
FEE0
3C60
ENDCHAR
STARTCHAR 041F
ENCODING 1055
SWIDTH 677 0
DWIDTH 16 0
BBX 14 20 1 0
BITMAP
0CC0
0CC0
0000
0380
0780
0780
0FC0
0CC0
0CE0
1C60
1860
1870
3030
3FF0
7FF8
7018
6018
E01C
C00C
C00C
ENDCHAR
STARTCHAR 0420
ENCODING 1056
SWIDTH 550 0
DWIDTH 13 0
BBX 11 17 1 -1
BITMAP
3B00
3B00
0000
3F00
7F80
61C0
C0C0
00C0
00C0
3FC0
7EC0
E0C0
C0C0
C1C0
E3C0
FEE0
3C60
ENDCHAR
STARTCHAR 0421
ENCODING 1057
SWIDTH 677 0
DWIDTH 16 0
BBX 13 21 1 0
BITMAP
0820
0C60
07C0
0000
FFF8
FFF8
E000
E000
E000
E000
E000
FFF0
FFF0
E000
E000
E000
E000
E000
E000
FFF8
FFF8
ENDCHAR
STARTCHAR 0422
ENCODING 1058
SWIDTH 550 0
DWIDTH 13 0
BBX 11 17 1 0
BITMAP
3080
1080
0F00
0000
1F00
3F80
71C0
E0E0
C060
C060
FFE0
FFE0
C000
E060
70E0
3FC0
1F00
ENDCHAR
STARTCHAR 0423
ENCODING 1059
SWIDTH 1101 0
DWIDTH 26 0
BBX 22 20 1 0
BITMAP
00CC00
00CC00
000000
E0301C
603038
703070
3830E0
1C30E0
0E31C0
073380
03FF00
03FF00
073380
0E3180
0C31C0
1C30E0
383070
703070
E03038
E0301C
ENDCHAR
STARTCHAR 0424
ENCODING 1060
SWIDTH 847 0
DWIDTH 20 0
BBX 17 15 1 0
BITMAP
066000
066000
000000
C18300
618700
318E00
399C00
1D9800
0FF000
0FF800
1D9C00
398C00
718E00
E18700
C18380
ENDCHAR
STARTCHAR 0425
ENCODING 1061
SWIDTH 677 0
DWIDTH 16 0
BBX 14 20 1 0
BITMAP
0CC0
0CC0
0000
0FC0
3FF0
7838
6018
E018
C018
0038
07E0
07F0
0038
001C
001C
C01C
E018
7038
7FF0
1FC0
ENDCHAR
STARTCHAR 0426
ENCODING 1062
SWIDTH 508 0
DWIDTH 12 0
BBX 10 16 1 0
BITMAP
3300
3300
0000
1E00
7F80
6180
C1C0
0180
0180
0F00
0F80
01C0
C0C0
E1C0
7F80
3F00
ENDCHAR
STARTCHAR 0427
ENCODING 1063
SWIDTH 720 0
DWIDTH 17 0
BBX 13 20 2 0
BITMAP
1FE0
0000
0000
C038
C038
C078
C0F8
C0D8
C1D8
C198
C318
C718
C618
CC18
DC18
D818
F818
F018
E018
E018
ENDCHAR
STARTCHAR 0428
ENCODING 1064
SWIDTH 550 0
DWIDTH 13 0
BBX 10 15 2 0
BITMAP
7F00
0000
0000
C1C0
C1C0
C3C0
C7C0
C6C0
CCC0
DCC0
D8C0
F0C0
F0C0
E0C0
C0C0
ENDCHAR
STARTCHAR 0429
ENCODING 1065
SWIDTH 720 0
DWIDTH 17 0
BBX 13 20 2 0
BITMAP
0DC0
0DC0
0000
C038
C038
C078
C0F8
C0D8
C1D8
C198
C318
C718
C618
CC18
DC18
D818
F818
F018
E018
E018
ENDCHAR
STARTCHAR 042A
ENCODING 1066
SWIDTH 550 0
DWIDTH 13 0
BBX 10 15 2 0
BITMAP
3300
3300
0000
C1C0
C1C0
C3C0
C7C0
C6C0
CCC0
DCC0
D8C0
F0C0
F0C0
E0C0
C0C0
ENDCHAR
STARTCHAR 042B
ENCODING 1067
SWIDTH 804 0
DWIDTH 19 0
BBX 16 20 1 0
BITMAP
0760
0760
0000
07E0
1FF8
3C1C
700E
6007
E003
C003
C003
C003
C003
C003
E003
6007
700E
381C
1FF8
07E0
ENDCHAR
STARTCHAR 042C
ENCODING 1068
SWIDTH 550 0
DWIDTH 13 0
BBX 11 16 1 0
BITMAP
1B00
1B00
0000
1F00
3FC0
71C0
E060
C060
C060
C060
C060
C060
E060
71C0
3FC0
1F00
ENDCHAR
STARTCHAR 042D
ENCODING 1069
SWIDTH 720 0
DWIDTH 17 0
BBX 15 20 1 0
BITMAP
06E0
06E0
0000
0FC0
3FF0
7838
601C
E00C
000E
0006
03FE
03FE
0006
C006
C00E
E00C
701C
3838
1FF0
0FC0
ENDCHAR
STARTCHAR 042E
ENCODING 1070
SWIDTH 508 0
DWIDTH 12 0
BBX 10 16 1 0
BITMAP
3300
3300
0000
3E00
7F80
E380
C1C0
00C0
00C0
0FC0
0FC0
00C0
C0C0
E180
7F80
3E00
ENDCHAR
STARTCHAR 042F
ENCODING 1071
SWIDTH 677 0
DWIDTH 16 0
BBX 15 20 0 0
BITMAP
0FF0
0000
0000
E00E
700E
700C
381C
1818
1C18
0C30
0E30
0670
0760
0360
03C0
01C0
0180
0380
1F00
1E00
ENDCHAR
STARTCHAR 0430
ENCODING 1072
SWIDTH 508 0
DWIDTH 12 0
BBX 11 20 0 -5
BITMAP
3FC0
0000
0000
E060
6060
60E0
30C0
30C0
31C0
1980
1980
1B00
0F00
0F00
0600
0600
0C00
0C00
7C00
7800
ENDCHAR
STARTCHAR 0431
ENCODING 1073
SWIDTH 677 0
DWIDTH 16 0
BBX 15 20 0 0
BITMAP
0660
0660
0000
E00E
700E
700C
381C
1818
1C18
0C30
0E30
0670
0760
0360
03C0
01C0
0180
0380
1F00
1E00
ENDCHAR
STARTCHAR 0432
ENCODING 1074
SWIDTH 508 0
DWIDTH 12 0
BBX 11 20 0 -5
BITMAP
1980
1980
0000
E060
6060
60E0
30C0
30C0
31C0
1980
1980
1B00
0F00
0F00
0600
0600
0C00
0C00
7C00
7800
ENDCHAR
STARTCHAR 0433
ENCODING 1075
SWIDTH 677 0
DWIDTH 16 0
BBX 15 21 0 0
BITMAP
03B0
0330
0660
0000
E00E
700E
700C
381C
1818
1C18
0C30
0E30
0670
0760
0360
03C0
01C0
0180
0380
1F00
1E00
ENDCHAR
STARTCHAR 0434
ENCODING 1076
SWIDTH 508 0
DWIDTH 12 0
BBX 11 22 0 -5
BITMAP
0CC0
0D80
1980
0000
0000
E060
6060
60E0
30C0
30C0
31C0
1980
1980
1B00
0F00
0F00
0600
0600
0C00
0C00
7C00
7800
ENDCHAR
STARTCHAR 0435
ENCODING 1077
SWIDTH 720 0
DWIDTH 17 0
BBX 13 20 1 0
BITMAP
0CC0
0CC0
0000
C038
C038
C038
C038
C038
C038
C038
E038
7038
7FF8
1FF8
0038
0038
0038
0038
0038
0038
ENDCHAR
STARTCHAR 0436
ENCODING 1078
SWIDTH 550 0
DWIDTH 13 0
BBX 10 15 1 0
BITMAP
3300
3300
0000
C0C0
C0C0
C0C0
C0C0
E0C0
E0C0
7FC0
3FC0
00C0
00C0
00C0
00C0
ENDCHAR
STARTCHAR 0437
ENCODING 1079
SWIDTH 889 0
DWIDTH 21 0
BBX 17 20 2 0
BITMAP
033000
033000
000000
C00180
C00180
C00180
C00180
C00180
C00180
C00180
FFC180
FFE180
C07180
C03180
C03180
C03180
C03180
C07180
FFE180
FFC180
ENDCHAR
STARTCHAR 0438
ENCODING 1080
SWIDTH 762 0
DWIDTH 18 0
BBX 14 15 2 0
BITMAP
0CC0
0CC0
0000
C01C
C01C
C01C
C01C
FF1C
FF9C
C1DC
C0DC
C0DC
C1DC
FF9C
FF1C
ENDCHAR
STARTCHAR 0439
ENCODING 1081
SWIDTH 1016 0
DWIDTH 24 0
BBX 22 17 0 0
BITMAP
01FFFC
03FFFC
031800
031800
071800
061800
0E1800
0C1FF8
0C1FF8
1C1800
1FF800
3FF800
301800
301800
701800
601FFC
E01FFC
ENDCHAR
STARTCHAR 043A
ENCODING 1082
SWIDTH 889 0
DWIDTH 21 0
BBX 19 13 1 0
BITMAP
3F1F00
7FBFC0
61E1C0
C0C0E0
00C060
3FFFE0
7EFFE0
E0C000
C0C000
C0C060
E3E0C0
FF3F80
3C1F00
ENDCHAR
STARTCHAR 043B
ENCODING 1083
SWIDTH 847 0
DWIDTH 20 0
BBX 16 21 2 0
BITMAP
0700
0300
0180
0000
E007
F00F
F00F
F00F
D81B
D81B
D81B
CC33
CC33
CC33
C663
C663
C663
C3C3
C3C3
C3C3
C183
ENDCHAR
STARTCHAR 043C
ENCODING 1084
SWIDTH 847 0
DWIDTH 20 0
BBX 16 17 2 0
BITMAP
0300
0180
0080
0000
DE3C
FF7E
E3C7
C183
C183
C183
C183
C183
C183
C183
C183
C183
C183
ENDCHAR
STARTCHAR 043D
ENCODING 1085
SWIDTH 720 0
DWIDTH 17 0
BBX 14 21 2 0
BITMAP
1040
18C0
0F80
0000
FFE0
FFF0
C038
C018
C01C
C018
C018
C038
FFF0
FFF0
C038
C018
C018
C018
C018
C01C
C01C
ENDCHAR
STARTCHAR 043E
ENCODING 1086
SWIDTH 338 0
DWIDTH 8 0
BBX 7 17 1 0
BITMAP
82
C6
7C
00
6E
7E
70
60
60
60
60
60
60
60
60
60
60
ENDCHAR
STARTCHAR 043F
ENCODING 1087
SWIDTH 254 0
DWIDTH 6 0
BBX 8 6 -1 14
BITMAP
3C
42
C3
00
24
24
ENDCHAR
STARTCHAR 0440
ENCODING 1088
SWIDTH 677 0
DWIDTH 16 0
BBX 15 17 0 0
BITMAP
0180
03C0
03C0
07C0
0660
0660
0C70
0C30
0C30
1838
1FF8
3FF8
301C
300C
700E
600E
E006
ENDCHAR
STARTCHAR 0441
ENCODING 1089
SWIDTH 720 0
DWIDTH 17 0
BBX 13 17 2 0
BITMAP
FFC0
FFF0
E030
E038
E038
E030
E070
FFE0
FFF0
E038
E018
E018
E018
E018
E038
FFF0
FFC0
ENDCHAR
STARTCHAR 0442
ENCODING 1090
SWIDTH 592 0
DWIDTH 14 0
BBX 12 17 2 0
BITMAP
FFF0
FFF0
E000
E000
E000
E000
E000
E000
E000
E000
E000
E000
E000
E000
E000
E000
E000
ENDCHAR
STARTCHAR 0443
ENCODING 1091
SWIDTH 720 0
DWIDTH 17 0
BBX 15 17 1 0
BITMAP
0380
0380
07C0
06C0
0EE0
0C60
0C60
1830
1830
3838
3018
3018
600C
600C
E00E
FFFE
FFFE
ENDCHAR
STARTCHAR 0444
ENCODING 1092
SWIDTH 677 0
DWIDTH 16 0
BBX 12 17 2 0
BITMAP
FFF0
FFF0
E000
E000
E000
E000
E000
FFE0
FFE0
E000
E000
E000
E000
E000
E000
FFF0
FFF0
ENDCHAR
STARTCHAR 0445
ENCODING 1093
SWIDTH 592 0
DWIDTH 14 0
BBX 13 17 1 0
BITMAP
7FF0
7FF0
0070
0060
00E0
01C0
0380
0700
0600
0E00
1C00
3800
3000
7000
E000
FFF8
FFF8
ENDCHAR
STARTCHAR 0446
ENCODING 1094
SWIDTH 720 0
DWIDTH 17 0
BBX 13 17 2 0
BITMAP
C018
C018
C018
C018
C018
C018
C018
FFF8
FFF8
C018
C018
C018
C018
C018
C018
C018
C018
ENDCHAR
STARTCHAR 0447
ENCODING 1095
SWIDTH 762 0
DWIDTH 18 0
BBX 16 17 1 0
BITMAP
07E0
1FF8
3C1C
300E
6006
6007
E003
EFF3
EFF3
E003
E003
6007
7006
700E
3C1C
1FF8
07E0
ENDCHAR
STARTCHAR 0448
ENCODING 1096
SWIDTH 296 0
DWIDTH 7 0
BBX 2 17 2 0
BITMAP
C0
C0
C0
C0
C0
C0
C0
C0
C0
C0
C0
C0
C0
C0
C0
C0
C0
ENDCHAR
STARTCHAR 0449
ENCODING 1097
SWIDTH 677 0
DWIDTH 16 0
BBX 13 17 2 0
BITMAP
C038
C070
C0E0
C1C0
C380
C700
CE00
DE00
FF00
F700
E380
C1C0
C0C0
C0E0
C070
C030
C038
ENDCHAR
STARTCHAR 044A
ENCODING 1098
SWIDTH 677 0
DWIDTH 16 0
BBX 14 17 1 0
BITMAP
0700
0780
0780
0F80
0DC0
0CC0
1CC0
18E0
1860
3860
3070
7030
7038
6038
E018
E01C
C01C
ENDCHAR
STARTCHAR 044B
ENCODING 1099
SWIDTH 889 0
DWIDTH 21 0
BBX 17 17 2 0
BITMAP
F00780
F00780
F00780
D80D80
D80D80
D80D80
CC1980
CC1980
CC1980
C63180
C63180
C62180
C36180
C36180
C3C180
C1C180
C1C180
ENDCHAR
STARTCHAR 044C
ENCODING 1100
SWIDTH 720 0
DWIDTH 17 0
BBX 13 17 2 0
BITMAP
E018
E018
F018
F818
D818
CC18
CC18
C618
C718
C318
C198
C1D8
C0D8
C078
C078
C038
C038
ENDCHAR
STARTCHAR 044D
ENCODING 1101
SWIDTH 592 0
DWIDTH 14 0
BBX 12 17 1 0
BITMAP
FFF0
FFF0
0000
0000
0000
0000
0000
7FE0
7FE0
0000
0000
0000
0000
0000
0000
FFF0
FFF0
ENDCHAR
STARTCHAR 044E
ENCODING 1102
SWIDTH 762 0
DWIDTH 18 0
BBX 16 17 1 0
BITMAP
07E0
1FF8
3C1C
300E
6006
6007
E003
E003
E003
E003
E003
6007
7006
700E
3C1C
1FF8
07E0
ENDCHAR
STARTCHAR 044F
ENCODING 1103
SWIDTH 720 0
DWIDTH 17 0
BBX 13 17 2 0
BITMAP
FFF8
FFF8
C018
C018
C018
C018
C018
C018
C018
C018
C018
C018
C018
C018
C018
C018
C018
ENDCHAR
STARTCHAR 0450
ENCODING 1104
SWIDTH 677 0
DWIDTH 16 0
BBX 13 17 2 0
BITMAP
FFC0
FFE0
E070
E030
E038
E038
E030
E070
FFE0
FFC0
E000
E000
E000
E000
E000
E000
E000
ENDCHAR
STARTCHAR 0451
ENCODING 1105
SWIDTH 592 0
DWIDTH 14 0
BBX 12 17 1 0
BITMAP
FFF0
FFF0
7000
3800
1C00
0E00
0700
0380
0380
0700
0E00
1C00
3800
7000
E000
FFF0
FFF0
ENDCHAR
STARTCHAR 0452
ENCODING 1106
SWIDTH 592 0
DWIDTH 14 0
BBX 13 17 1 0
BITMAP
FFF8
FFF8
0600
0600
0600
0600
0600
0600
0600
0600
0600
0600
0600
0600
0600
0600
0600
ENDCHAR
STARTCHAR 0453
ENCODING 1107
SWIDTH 677 0
DWIDTH 16 0
BBX 14 17 1 0
BITMAP
E01C
E018
7038
3030
3870
1CE0
0CC0
0FC0
0780
0300
0300
0300
0300
0300
0300
0300
0300
ENDCHAR
STARTCHAR 0454
ENCODING 1108
SWIDTH 720 0
DWIDTH 17 0
BBX 15 17 1 0
BITMAP
0380
0380
0FE0
3FF8
739C
638C
E38E
C386
C386
C386
E386
E38E
739C
3FF8
0FE0
0380
0380
ENDCHAR
STARTCHAR 0455
ENCODING 1109
SWIDTH 677 0
DWIDTH 16 0
BBX 14 17 1 0
BITMAP
E018
7038
3070
3860
1CE0
0DC0
0F80
0780
0780
0780
0FC0
1CC0
18E0
3870
7030
6038
E01C
ENDCHAR
STARTCHAR 0456
ENCODING 1110
SWIDTH 847 0
DWIDTH 20 0
BBX 17 17 1 0
BITMAP
E0C180
E0C180
E0C180
E0C180
E0C180
E0C180
E0C180
E0C180
60C180
60C180
70C380
38CF00
1FFE00
07F800
00C000
00C000
00C000
ENDCHAR
STARTCHAR 0457
ENCODING 1111
SWIDTH 762 0
DWIDTH 18 0
BBX 16 17 1 0
BITMAP
07E0
1FF8
3C1C
700E
6007
6007
E003
E003
E003
E003
6007
6006
7006
380C
1C18
FE3F
FE3F
ENDCHAR
STARTCHAR 0458
ENCODING 1112
SWIDTH 296 0
DWIDTH 7 0
BBX 6 20 0 0
BITMAP
CC
CC
00
30
30
30
30
30
30
30
30
30
30
30
30
30
30
30
30
30
ENDCHAR
STARTCHAR 0459
ENCODING 1113
SWIDTH 677 0
DWIDTH 16 0
BBX 14 20 1 0
BITMAP
0CC0
0CC0
0000
C00C
E01C
7038
3030
3870
1C60
0CC0
0FC0
0780
0300
0300
0300
0300
0300
0300
0300
0300
ENDCHAR
STARTCHAR 045A
ENCODING 1114
SWIDTH 592 0
DWIDTH 14 0
BBX 13 13 1 0
BITMAP
1F60
3FE0
71E0
60E0
C060
C060
C060
C060
E060
60E0
71E0
3FF8
1F38
ENDCHAR
STARTCHAR 045B
ENCODING 1115
SWIDTH 592 0
DWIDTH 14 0
BBX 11 22 2 -5
BITMAP
1F00
7F80
61C0
E0C0
C0C0
C0C0
C1C0
CF00
CF80
C0C0
C060
C060
C060
E060
F0E0
FFC0
CF80
C000
C000
C000
C000
C000
ENDCHAR
STARTCHAR 045C
ENCODING 1116
SWIDTH 550 0
DWIDTH 13 0
BBX 13 18 0 -5
BITMAP
E038
F030
3030
3060
3860
18E0
1CC0
0CC0
0D80
0780
0780
0700
0300
0300
0300
0300
0300
0300
ENDCHAR
STARTCHAR 045D
ENCODING 1117
SWIDTH 592 0
DWIDTH 14 0
BBX 12 17 1 0
BITMAP
7FE0
7FE0
3800
0C00
0700
0F80
3FC0
70E0
6070
E030
E030
C030
E030
6070
70E0
3FC0
0F80
ENDCHAR
STARTCHAR 045E
ENCODING 1118
SWIDTH 550 0
DWIDTH 13 0
BBX 11 13 1 0
BITMAP
1F00
3F80
71C0
60C0
6000
7000
3E00
3E00
6000
E060
E0C0
7F80
3F00
ENDCHAR
STARTCHAR 045F
ENCODING 1119
SWIDTH 423 0
DWIDTH 10 0
BBX 9 22 1 -5
BITMAP
7F80
7F80
0700
0C00
1800
3000
3000
6000
6000
C000
C000
C000
C000
C000
E000
7F80
3F80
0180
0080
0180
0180
0180
ENDCHAR
STARTCHAR 0460
ENCODING 1120
SWIDTH 592 0
DWIDTH 14 0
BBX 11 18 1 -5
BITMAP
C780
EFE0
78E0
7060
6060
6060
6060
6060
6060
6060
6060
6060
6060
0060
0060
0060
0060
0060
ENDCHAR
STARTCHAR 0461
ENCODING 1121
SWIDTH 592 0
DWIDTH 14 0
BBX 11 17 2 0
BITMAP
1F00
3F80
61C0
E0C0
C0C0
C0E0
C060
FFE0
FFE0
C060
C0E0
C0E0
C0C0
E0C0
71C0
7F80
1F00
ENDCHAR
STARTCHAR 0462
ENCODING 1122
SWIDTH 296 0
DWIDTH 7 0
BBX 4 12 2 0
BITMAP
C0
C0
C0
C0
C0
C0
C0
C0
C0
C0
F0
70
ENDCHAR
STARTCHAR 0463
ENCODING 1123
SWIDTH 550 0
DWIDTH 13 0
BBX 10 12 2 0
BITMAP
C1C0
C380
C700
CC00
DC00
FC00
EE00
C700
C300
C380
C1C0
C0C0
ENDCHAR
STARTCHAR 0464
ENCODING 1124
SWIDTH 550 0
DWIDTH 13 0
BBX 12 17 1 0
BITMAP
7000
7800
1800
0C00
0C00
0C00
0E00
1E00
1B00
3B00
3380
3180
6180
61C0
E0C0
C0F0
C070
ENDCHAR
STARTCHAR 0465
ENCODING 1125
SWIDTH 592 0
DWIDTH 14 0
BBX 12 17 2 -5
BITMAP
C0C0
C0C0
C0C0
C0C0
C0C0
C0C0
C0C0
C0C0
E0C0
E1C0
FFF0
CE70
C000
C000
C000
C000
C000
ENDCHAR
STARTCHAR 0466
ENCODING 1126
SWIDTH 550 0
DWIDTH 13 0
BBX 11 12 1 0
BITMAP
C060
E060
60C0
60C0
30C0
3180
3980
1B00
1B00
0F00
0E00
0E00
ENDCHAR
STARTCHAR 0467
ENCODING 1127
SWIDTH 508 0
DWIDTH 12 0
BBX 11 22 1 -5
BITMAP
7FC0
7FC0
1800
3000
6000
7000
3800
1F80
3F80
7000
6000
C000
C000
E000
7000
3FC0
1FC0
0060
0040
0040
00C0
00C0
ENDCHAR
STARTCHAR 0468
ENCODING 1128
SWIDTH 592 0
DWIDTH 14 0
BBX 12 13 1 0
BITMAP
0F80
3FC0
70E0
6070
E030
E030
E030
E030
6030
6070
70E0
3FC0
0F80
ENDCHAR
STARTCHAR 0469
ENCODING 1129
SWIDTH 592 0
DWIDTH 14 0
BBX 11 18 2 -5
BITMAP
1F00
3F80
71C0
E0E0
C060
C060
C060
C060
C060
E0E0
F1C0
FF80
CF00
C000
C000
C000
C000
C000
ENDCHAR
STARTCHAR 046A
ENCODING 1130
SWIDTH 550 0
DWIDTH 13 0
BBX 11 18 1 -5
BITMAP
1F00
3FC0
70C0
E0E0
C060
C000
C000
C000
E000
E000
7800
3F00
0FC0
00C0
00C0
00C0
00C0
0180
ENDCHAR
STARTCHAR 046B
ENCODING 1131
SWIDTH 592 0
DWIDTH 14 0
BBX 13 13 1 0
BITMAP
0F00
3FF8
70F8
6060
E030
E030
E030
E030
6030
6070
70E0
3FC0
0F80
ENDCHAR
STARTCHAR 046C
ENCODING 1132
SWIDTH 508 0
DWIDTH 12 0
BBX 10 12 1 0
BITMAP
FFC0
FFC0
0C00
0C00
0C00
0C00
0C00
0C00
0C00
0C00
0F00
0F00
ENDCHAR
STARTCHAR 046D
ENCODING 1133
SWIDTH 592 0
DWIDTH 14 0
BBX 10 12 2 0
BITMAP
C0C0
C0C0
C0C0
C0C0
C0C0
C0C0
C0C0
C0C0
E0C0
E1C0
7F80
3F00
ENDCHAR
STARTCHAR 046E
ENCODING 1134
SWIDTH 720 0
DWIDTH 17 0
BBX 15 20 1 -5
BITMAP
0180
0180
0FE0
3FF8
719C
618C
618C
C186
C186
C186
618C
618C
39B8
3FF8
0FE0
0180
0180
0180
0180
0180
ENDCHAR
STARTCHAR 046F
ENCODING 1135
SWIDTH 550 0
DWIDTH 13 0
BBX 13 18 0 -5
BITMAP
6030
F070
3060
38E0
18C0
1D80
0F80
0700
0700
0700
0F00
0D80
1DC0
18C0
30E0
7060
6078
E038
ENDCHAR
STARTCHAR 0470
ENCODING 1136
SWIDTH 720 0
DWIDTH 17 0
BBX 13 20 2 -5
BITMAP
0700
0700
0700
C718
C718
C718
C718
C718
C718
C718
C718
C718
E718
7770
3FE0
0700
0700
0700
0700
0700
ENDCHAR
STARTCHAR 0471
ENCODING 1137
SWIDTH 762 0
DWIDTH 18 0
BBX 16 12 1 0
BITMAP
1818
300C
6186
6186
E186
C187
C183
E187
E186
73CE
7FFC
1E78
ENDCHAR
STARTCHAR 0472
ENCODING 1138
SWIDTH 296 0
DWIDTH 7 0
BBX 6 16 0 0
BITMAP
CC
CC
00
00
30
30
30
30
30
30
30
30
30
30
3C
1C
ENDCHAR
STARTCHAR 0473
ENCODING 1139
SWIDTH 592 0
DWIDTH 14 0
BBX 10 16 2 0
BITMAP
3300
3300
0000
C0C0
C0C0
C0C0
C0C0
C0C0
C0C0
C0C0
C0C0
C0C0
E0C0
61C0
7F80
3F00
ENDCHAR
STARTCHAR 0474
ENCODING 1140
SWIDTH 296 0
DWIDTH 7 0
BBX 3 3 2 6
BITMAP
C0
E0
C0
ENDCHAR
STARTCHAR 0475
ENCODING 1141
SWIDTH 254 0
DWIDTH 6 0
BBX 7 3 0 14
BITMAP
3C
46
82
ENDCHAR
STARTCHAR 0476
ENCODING 1142
SWIDTH 0 0
DWIDTH 0 0
BBX 4 6 -9 -6
BITMAP
E0
E0
E0
E0
E0
70
ENDCHAR
STARTCHAR 0477
ENCODING 1143
SWIDTH 296 0
DWIDTH 7 0
BBX 4 6 2 -6
BITMAP
C0
C0
C0
C0
C0
F0
ENDCHAR
STARTCHAR 0478
ENCODING 1144
SWIDTH 169 0
DWIDTH 4 0
BBX 2 4 2 12
BITMAP
C0
C0
80
80
ENDCHAR
STARTCHAR 0479
ENCODING 1145
SWIDTH 169 0
DWIDTH 4 0
BBX 2 4 2 12
BITMAP
C0
C0
80
80
ENDCHAR
STARTCHAR 047A
ENCODING 1146
SWIDTH 0 0
DWIDTH 0 0
BBX 3 3 -8 14
BITMAP
C0
60
20
ENDCHAR
STARTCHAR 047B
ENCODING 1147
SWIDTH 0 0
DWIDTH 0 0
BBX 4 3 -9 14
BITMAP
30
60
C0
ENDCHAR
STARTCHAR 047C
ENCODING 1148
SWIDTH 169 0
DWIDTH 4 0
BBX 2 4 2 12
BITMAP
C0
C0
80
C0
ENDCHAR
STARTCHAR 047D
ENCODING 1149
SWIDTH 338 0
DWIDTH 8 0
BBX 7 6 0 14
BITMAP
04
0C
08
18
C2
C2
ENDCHAR
STARTCHAR 047E
ENCODING 1150
SWIDTH 338 0
DWIDTH 8 0
BBX 7 6 0 14
BITMAP
60
30
30
10
C2
C2
ENDCHAR
STARTCHAR 047F
ENCODING 1151
SWIDTH 381 0
DWIDTH 9 0
BBX 6 4 2 12
BITMAP
CC
C8
98
90
ENDCHAR
STARTCHAR 0480
ENCODING 1152
SWIDTH 381 0
DWIDTH 9 0
BBX 6 4 2 12
BITMAP
CC
C8
98
D0
ENDCHAR
STARTCHAR 0481
ENCODING 1153
SWIDTH 254 0
DWIDTH 6 0
BBX 3 4 1 12
BITMAP
C0
C0
60
20
ENDCHAR
STARTCHAR 0482
ENCODING 1154
SWIDTH 254 0
DWIDTH 6 0
BBX 3 4 1 12
BITMAP
60
40
C0
80
ENDCHAR
STARTCHAR 0483
ENCODING 1155
SWIDTH 381 0
DWIDTH 9 0
BBX 6 4 2 12
BITMAP
D8
D8
8C
84
ENDCHAR
STARTCHAR 0484
ENCODING 1156
SWIDTH 423 0
DWIDTH 10 0
BBX 8 6 1 12
BITMAP
3C
42
DB
18
08
10
ENDCHAR
STARTCHAR 0485
ENCODING 1157
SWIDTH 381 0
DWIDTH 9 0
BBX 6 4 2 12
BITMAP
D8
C8
8C
C4
ENDCHAR
STARTCHAR 0486
ENCODING 1158
SWIDTH 423 0
DWIDTH 10 0
BBX 8 6 1 12
BITMAP
3C
42
DB
18
10
08
ENDCHAR
STARTCHAR 0487
ENCODING 1159
SWIDTH 889 0
DWIDTH 21 0
BBX 19 17 1 0
BITMAP
E03000
E03000
F03000
F03000
D83000
D833C0
CC37E0
CC3660
C63420
C23420
C33420
C13660
C1B7C0
C0B3C0
C0F000
C07000
C077E0
ENDCHAR
STARTCHAR 0488
ENCODING 1160
SWIDTH 762 0
DWIDTH 18 0
BBX 16 17 1 0
BITMAP
FE3F
FE3F
1C18
380C
700E
6007
6007
E003
E003
E003
E003
6007
6007
700E
3C1C
1FF8
07E0
ENDCHAR
STARTCHAR 0489
ENCODING 1161
SWIDTH 762 0
DWIDTH 18 0
BBX 18 16 0 0
BITMAP
07F040
1FFCC0
380FC0
700380
E00780
C00780
C004C0
C000C0
C000C0
C001C0
C00180
E00180
700300
3C0F00
1FFE00
07F000
ENDCHAR
STARTCHAR 048A
ENCODING 1162
SWIDTH 211 0
DWIDTH 5 0
BBX 2 6 2 11
BITMAP
40
80
80
C0
C0
C0
ENDCHAR
STARTCHAR 048B
ENCODING 1163
SWIDTH 211 0
DWIDTH 5 0
BBX 2 6 2 11
BITMAP
C0
C0
C0
40
40
80
ENDCHAR
STARTCHAR 048C
ENCODING 1164
SWIDTH 550 0
DWIDTH 13 0
BBX 9 17 3 0
BITMAP
C380
C380
C380
C380
C380
C380
C380
C380
C100
C100
C100
C100
C100
0000
0000
C380
C380
ENDCHAR
STARTCHAR 048D
ENCODING 1165
SWIDTH 847 0
DWIDTH 20 0
BBX 16 17 2 0
BITMAP
3F03
7F83
E1C3
C0C3
C0C3
00C3
0183
0383
0703
0E03
0C03
0C03
0C03
0000
0000
0C03
0C03
ENDCHAR
STARTCHAR 048E
ENCODING 1166
SWIDTH 847 0
DWIDTH 20 0
BBX 16 17 3 0
BITMAP
C0F8
C1FE
C38E
C307
C607
C006
C00E
C01C
C018
C030
C030
C060
C060
0000
0000
C070
C070
ENDCHAR
STARTCHAR 048F
ENCODING 1167
SWIDTH 550 0
DWIDTH 13 0
BBX 11 20 1 0
BITMAP
3F80
0000
0000
0E00
1B00
3100
0000
1F00
3FC0
70C0
E060
C060
FFE0
FFE0
C000
C000
E060
70C0
3FC0
1F00
ENDCHAR
STARTCHAR 0490
ENCODING 1168
SWIDTH 550 0
DWIDTH 13 0
BBX 11 21 1 0
BITMAP
3100
1B00
0E00
0000
0E00
1B00
3180
0000
1F00
3FC0
70C0
E060
C060
FFE0
FFE0
C000
C000
E060
70C0
3FC0
1F00
ENDCHAR
STARTCHAR 0491
ENCODING 1169
SWIDTH 677 0
DWIDTH 16 0
BBX 14 23 1 0
BITMAP
0E00
0600
0300
0000
1FE0
0000
0300
0780
0780
0FC0
0CC0
0CC0
18E0
1860
1860
3070
3FF0
7FF0
6038
6018
E01C
C01C
C00C
ENDCHAR
STARTCHAR 0492
ENCODING 1170
SWIDTH 550 0
DWIDTH 13 0
BBX 12 19 1 0
BITMAP
1800
0C00
0600
0000
3F80
0000
1F00
7FC0
60C0
60C0
00C0
0FC0
7FC0
F0C0
C0C0
C0C0
E3C0
7FF0
3C70
ENDCHAR
STARTCHAR 0493
ENCODING 1171
SWIDTH 550 0
DWIDTH 13 0
BBX 12 22 1 -5
BITMAP
0300
0600
0C00
0000
1F00
7FC0
60C0
60C0
00C0
0FC0
7FC0
F0C0
C0C0
C0C0
E3C0
7FF0
3C70
0060
00C0
00C0
00F0
00F0
ENDCHAR
STARTCHAR 0494
ENCODING 1172
SWIDTH 677 0
DWIDTH 16 0
BBX 13 22 2 -5
BITMAP
FFF0
FFF0
C000
C000
C000
C000
C000
FFF0
FFF0
C000
C000
C000
C000
C000
C000
FFF8
FFF8
0000
0000
0200
0200
0200
ENDCHAR
STARTCHAR 0495
ENCODING 1173
SWIDTH 550 0
DWIDTH 13 0
BBX 11 18 1 -5
BITMAP
1F00
3FC0
70C0
E060
C060
FFE0
FFE0
C000
C000
E060
70C0
3FC0
1F00
0000
0000
0400
0400
0400
ENDCHAR
STARTCHAR 0496
ENCODING 1174
SWIDTH 677 0
DWIDTH 16 0
BBX 13 25 2 -4
BITMAP
1C00
0C00
0600
0000
FFF0
FFF0
C000
C000
C000
C000
C000
FFF0
FFF0
C000
C000
C000
C000
C000
C000
FFF8
FFF8
0000
0200
0200
0200
ENDCHAR
STARTCHAR 0497
ENCODING 1175
SWIDTH 550 0
DWIDTH 13 0
BBX 11 22 1 -5
BITMAP
1800
0C00
0400
0000
1F00
3FC0
70C0
E060
C060
FFE0
FFE0
C000
C000
E060
70C0
3FC0
1F00
0000
0000
0400
0400
0400
ENDCHAR
STARTCHAR 0498
ENCODING 1176
SWIDTH 677 0
DWIDTH 16 0
BBX 13 26 2 -5
BITMAP
0380
0300
0600
0000
FFF0
FFF0
C000
C000
C000
C000
C000
FFF0
FFF0
C000
C000
C000
C000
C000
C000
FFF8
FFF8
0000
0000
0200
0200
0200
ENDCHAR
STARTCHAR 0499
ENCODING 1177
SWIDTH 550 0
DWIDTH 13 0
BBX 11 22 1 -5
BITMAP
0300
0600
0C00
0000
1F00
3FC0
70C0
E060
C060
FFE0
FFE0
C000
C000
E060
70C0
3FC0
1F00
0000
0000
0400
0400
0400
ENDCHAR
STARTCHAR 049A
ENCODING 1178
SWIDTH 296 0
DWIDTH 7 0
BBX 7 23 0 0
BITMAP
60
30
10
00
FE
00
38
38
38
38
38
38
38
38
38
38
38
38
38
38
38
38
38
ENDCHAR
STARTCHAR 049B
ENCODING 1179
SWIDTH 296 0
DWIDTH 7 0
BBX 7 19 0 0
BITMAP
E0
60
30
00
FE
00
30
30
30
30
30
30
30
30
30
30
30
30
30
ENDCHAR
STARTCHAR 049C
ENCODING 1180
SWIDTH 211 0
DWIDTH 5 0
BBX 4 21 2 0
BITMAP
70
E0
C0
00
C0
C0
00
00
C0
C0
C0
C0
C0
C0
C0
C0
C0
C0
C0
C0
C0
ENDCHAR
STARTCHAR 049D
ENCODING 1181
SWIDTH 762 0
DWIDTH 18 0
BBX 16 22 1 -5
BITMAP
07F0
1FF8
3C1E
700E
6007
E003
E003
C003
C003
C003
C003
E007
6007
700E
381C
1FF8
07E0
0000
0000
0180
0180
0180
ENDCHAR
STARTCHAR 049E
ENCODING 1182
SWIDTH 550 0
DWIDTH 13 0
BBX 11 18 1 -5
BITMAP
1F00
3F80
71C0
E0E0
C060
C060
C060
C060
C060
E0E0
61C0
7F80
1F00
0000
0000
0400
0400
0400
ENDCHAR
STARTCHAR 049F
ENCODING 1183
SWIDTH 762 0
DWIDTH 18 0
BBX 16 27 1 -5
BITMAP
0700
0300
0180
0000
0000
07F0
1FF8
3C1E
700E
6007
E003
E003
C003
C003
C003
C003
E007
6007
700E
381C
1FF8
07E0
0000
0000
0180
0180
0180
ENDCHAR
STARTCHAR 04A0
ENCODING 1184
SWIDTH 550 0
DWIDTH 13 0
BBX 11 22 1 -5
BITMAP
1800
0C00
0400
0000
1F00
3F80
71C0
E0E0
C060
C060
C060
C060
C060
E0E0
61C0
7F80
1F00
0000
0000
0400
0400
0400
ENDCHAR
STARTCHAR 04A1
ENCODING 1185
SWIDTH 762 0
DWIDTH 18 0
BBX 16 27 1 -5
BITMAP
00E0
00C0
0180
0000
0000
07F0
1FF8
3C1E
700E
6007
E003
E003
C003
C003
C003
C003
E007
6007
700E
381C
1FF8
07E0
0000
0000
0180
0180
0180
ENDCHAR
STARTCHAR 04A2
ENCODING 1186
SWIDTH 550 0
DWIDTH 13 0
BBX 11 22 1 -5
BITMAP
0300
0600
0C00
0000
1F00
3F80
71C0
E0E0
C060
C060
C060
C060
C060
E0E0
61C0
7F80
1F00
0000
0000
0400
0400
0400
ENDCHAR
STARTCHAR 04A3
ENCODING 1187
SWIDTH 677 0
DWIDTH 16 0
BBX 14 22 1 -5
BITMAP
0FC0
3FE0
7070
6038
6018
6018
7000
3F00
1FF0
01F8
0018
C01C
E01C
6018
7038
3FF0
0FC0
0000
0000
0200
0200
0200
ENDCHAR
STARTCHAR 04A4
ENCODING 1188
SWIDTH 508 0
DWIDTH 12 0
BBX 10 18 1 -5
BITMAP
3E00
7F80
E180
C1C0
E000
7C00
3F80
03C0
00C0
C0C0
E1C0
7F80
3F00
0000
0000
0800
0800
0800
ENDCHAR
STARTCHAR 04A5
ENCODING 1189
SWIDTH 720 0
DWIDTH 17 0
BBX 13 24 2 0
BITMAP
0C00
0600
0300
0000
0000
1FC0
0000
C018
C018
C018
C018
C018
C018
C018
C018
C018
C018
C018
C018
E018
6038
7070
3FE0
0FC0
ENDCHAR
STARTCHAR 04A6
ENCODING 1190
SWIDTH 550 0
DWIDTH 13 0
BBX 10 19 1 0
BITMAP
1800
0C00
0400
0000
3F80
0000
E0C0
E0C0
E0C0
E0C0
E0C0
E0C0
E0C0
E0C0
E0C0
E0C0
61C0
7FC0
3EC0
ENDCHAR
STARTCHAR 04A7
ENCODING 1191
SWIDTH 508 0
DWIDTH 12 0
BBX 11 16 0 -3
BITMAP
60E0
70C0
39C0
1980
1F00
0F00
0E00
0F00
1F80
3980
31C0
70C0
E0E0
0000
0600
0600
ENDCHAR
STARTCHAR 04A8
ENCODING 1192
SWIDTH 847 0
DWIDTH 20 0
BBX 17 22 2 0
BITMAP
104000
18C000
0F8000
000000
000080
C01980
C01F80
C01C00
C01800
C01800
C01800
C01800
C01800
C01800
C01800
C01800
C01800
E01800
603800
707000
3FE000
0FC000
ENDCHAR
STARTCHAR 04A9
ENCODING 1193
SWIDTH 677 0
DWIDTH 16 0
BBX 15 17 1 0
BITMAP
2080
3180
1F00
0000
E004
E0CE
E0FC
E0E0
E0C0
E0C0
E0C0
E0C0
E0C0
60C0
61C0
7FC0
3EC0
ENDCHAR
STARTCHAR 04AA
ENCODING 1194
SWIDTH 762 0
DWIDTH 18 0
BBX 15 18 1 -1
BITMAP
07E0
1FF0
3C38
701C
600E
E00E
0006
0006
FFFE
FFFE
C006
E006
E00E
600C
701C
3838
1FF0
07C0
ENDCHAR
STARTCHAR 04AB
ENCODING 1195
SWIDTH 550 0
DWIDTH 13 0
BBX 12 18 0 -5
BITMAP
77C0
7FE0
7860
7070
7070
7070
7070
7070
7070
7070
7070
7070
7070
7000
7000
7000
E000
C000
ENDCHAR
STARTCHAR 04AC
ENCODING 1196
SWIDTH 720 0
DWIDTH 17 0
BBX 15 22 0 -5
BITMAP
3806
3806
3C06
3E06
3606
3706
3386
3186
31C6
30C6
3066
3076
3036
303E
301E
300E
300E
3000
3000
3000
F000
E000
ENDCHAR
STARTCHAR 04AD
ENCODING 1197
SWIDTH 550 0
DWIDTH 13 0
BBX 10 18 2 -5
BITMAP
DF00
FF80
E180
C1C0
C1C0
C1C0
C1C0
C1C0
C1C0
C1C0
C1C0
C1C0
C1C0
01C0
01C0
01C0
01C0
01C0
ENDCHAR
STARTCHAR 04AE
ENCODING 1198
SWIDTH 847 0
DWIDTH 20 0
BBX 16 18 2 -5
BITMAP
DE3C
FF7E
E3C7
C183
C183
C183
C183
C183
C183
C183
C183
C183
C183
0003
0003
0003
000F
000E
ENDCHAR
STARTCHAR 04AF
ENCODING 1199
SWIDTH 508 0
DWIDTH 12 0
BBX 8 12 2 0
BITMAP
C0
C0
C0
C0
C0
C0
C0
C0
C0
C0
FF
FF
ENDCHAR
STARTCHAR 04B0
ENCODING 1200
SWIDTH 550 0
DWIDTH 13 0
BBX 10 17 2 0
BITMAP
00C0
00C0
00C0
00C0
00C0
00C0
00C0
3FC0
7FC0
E0C0
C0C0
C0C0
C0C0
C0C0
E0C0
7FC0
3FC0
ENDCHAR
STARTCHAR 04B1
ENCODING 1201
SWIDTH 465 0
DWIDTH 11 0
BBX 9 19 1 -1
BITMAP
0180
0180
0180
0180
0180
1D80
7F80
6380
E180
C180
C180
C180
C180
C180
C180
E180
6380
3E80
1C80
ENDCHAR
STARTCHAR 04B2
ENCODING 1202
SWIDTH 508 0
DWIDTH 12 0
BBX 11 17 0 0
BITMAP
3FE0
3FE0
3000
3000
3000
3000
3000
3000
FC00
FC00
3000
3000
3000
3000
3000
3000
3000
ENDCHAR
STARTCHAR 04B3
ENCODING 1203
SWIDTH 338 0
DWIDTH 8 0
BBX 8 13 0 0
BITMAP
7F
7F
60
60
60
60
FC
FC
60
60
60
60
60
ENDCHAR
STARTCHAR 04B4
ENCODING 1204
SWIDTH 550 0
DWIDTH 13 0
BBX 11 19 1 -1
BITMAP
1E00
3F80
71C0
60C0
40C0
C040
6000
7000
3C00
7C00
6000
C000
C000
C060
C040
E0C0
71C0
3F80
1F00
ENDCHAR
STARTCHAR 04B5
ENCODING 1205
SWIDTH 762 0
DWIDTH 18 0
BBX 15 18 1 -1
BITMAP
07E0
1FF0
3C38
701C
600E
E00E
0006
0006
FFFE
FFFE
C006
E006
E00E
600C
701C
3838
1FF0
07C0
ENDCHAR
STARTCHAR 04B6
ENCODING 1206
SWIDTH 550 0
DWIDTH 13 0
BBX 11 13 1 0
BITMAP
1F00
7F80
61C0
C0E0
0060
0060
FFE0
FFE0
C060
C0E0
61C0
7F80
1F00
ENDCHAR
STARTCHAR 04B7
ENCODING 1207
SWIDTH 804 0
DWIDTH 19 0
BBX 17 19 1 -1
BITMAP
07E000
1FF800
3C1C00
300E00
700700
600300
E00300
C00380
C00380
FFFF80
FFFF80
C00380
C00300
600300
600700
300E00
3C1C00
1FF800
07E000
ENDCHAR
STARTCHAR 04B8
ENCODING 1208
SWIDTH 550 0
DWIDTH 13 0
BBX 11 14 1 -1
BITMAP
1F00
3F80
71C0
E0E0
C060
C060
FFE0
FFE0
C060
C060
E0E0
71C0
3F80
1F00
ENDCHAR
STARTCHAR 04B9
ENCODING 1209
SWIDTH 762 0
DWIDTH 18 0
BBX 16 17 1 0
BITMAP
07F0
1FF8
3C1E
700E
6007
E007
E003
C003
FFFF
FFFF
C003
E003
6007
700E
381C
1FF8
07E0
ENDCHAR
STARTCHAR 04BA
ENCODING 1210
SWIDTH 338 0
DWIDTH 8 0
BBX 6 3 1 -4
BITMAP
70
58
CC
ENDCHAR
STARTCHAR 04BB
ENCODING 1211
SWIDTH 974 0
DWIDTH 23 0
BBX 22 5 0 -3
BITMAP
800004
70001C
3E00F0
0FFFE0
01FF00
ENDCHAR
STARTCHAR 04BC
ENCODING 1212
SWIDTH 974 0
DWIDTH 23 0
BBX 22 5 0 13
BITMAP
01FF00
0FFFE0
3E00F0
70001C
C00004
ENDCHAR
STARTCHAR 04BD
ENCODING 1213
SWIDTH 1101 0
DWIDTH 26 0
BBX 27 24 0 -5
BITMAP
1FE000E0
7FFF03C0
F03FFF80
E001FE00
00000000
00000000
37C07980
3FE0FD80
3861C780
30738380
30730380
30730180
30730180
30730180
30730380
30738380
30718780
3071FD80
30707980
00000180
00030300
00018700
0001FE00
0000FC00
ENDCHAR
STARTCHAR 04BE
ENCODING 1214
SWIDTH 0 0
DWIDTH 0 0
BBX 27 5 -20 14
BITMAP
0FF000E0
3FFF01C0
701FFF80
E000FF00
E0000000
ENDCHAR
STARTCHAR 04BF
ENCODING 1215
SWIDTH 0 0
DWIDTH 0 0
BBX 22 5 -18 13
BITMAP
01FF00
0FFFE0
3E00F0
70001C
C00004
ENDCHAR
STARTCHAR 04C0
ENCODING 1216
SWIDTH 0 0
DWIDTH 0 0
BBX 22 5 -18 13
BITMAP
800004
70001C
3E00F0
0FFFE0
01FF00
ENDCHAR
STARTCHAR 04C1
ENCODING 1217
SWIDTH 0 0
DWIDTH 0 0
BBX 23 1 -18 15
BITMAP
FFFFFE
ENDCHAR
STARTCHAR 04C2
ENCODING 1218
SWIDTH 0 0
DWIDTH 0 0
BBX 23 1 -18 -3
BITMAP
FFFFFE
ENDCHAR
STARTCHAR 04C3
ENCODING 1219
SWIDTH 762 0
DWIDTH 18 0
BBX 15 21 1 -1
BITMAP
06E0
06E0
0000
07E0
1FF0
3C38
701C
600E
E00E
0006
0006
FFFE
FFFE
C006
E006
E00E
600C
701C
3838
1FF0
07C0
ENDCHAR
STARTCHAR 04C4
ENCODING 1220
SWIDTH 550 0
DWIDTH 13 0
BBX 11 16 1 0
BITMAP
3B00
3B00
0000
1F00
7F80
61C0
C0E0
0060
0060
FFE0
FFE0
C060
C0E0
61C0
7F80
1F00
ENDCHAR
STARTCHAR 04C5
ENCODING 1221
SWIDTH 804 0
DWIDTH 19 0
BBX 17 21 1 -1
BITMAP
076000
076000
07E000
1FF800
3C1C00
300E00
700700
600300
E00300
C00380
C00380
FFFF80
FFFF80
C00380
C00300
600300
600700
300E00
3C1C00
1FF800
07E000
ENDCHAR
STARTCHAR 04C6
ENCODING 1222
SWIDTH 550 0
DWIDTH 13 0
BBX 11 17 1 -1
BITMAP
1B80
1B80
0000
1F00
3F80
71C0
E0E0
C060
C060
FFE0
FFE0
C060
C060
E0E0
71C0
3F80
1F00
ENDCHAR
STARTCHAR 04C7
ENCODING 1223
SWIDTH 254 0
DWIDTH 6 0
BBX 3 4 1 12
BITMAP
60
40
C0
80
ENDCHAR
STARTCHAR 04C8
ENCODING 1224
SWIDTH 338 0
DWIDTH 8 0
BBX 7 6 0 14
BITMAP
04
0C
08
18
C2
C2
ENDCHAR
STARTCHAR 04C9
ENCODING 1225
SWIDTH 550 0
DWIDTH 13 0
BBX 12 17 1 0
BITMAP
7000
7800
1B80
1E00
7C00
0C00
0E00
1E00
1B00
1B00
3380
3180
6180
61C0
E0C0
C0F0
C070
ENDCHAR
STARTCHAR 04CA
ENCODING 1226
SWIDTH 592 0
DWIDTH 14 0
BBX 13 17 1 0
BITMAP
FFF8
FFF8
0030
0070
00E0
01C0
0380
3FE0
0600
0E00
1C00
3800
7000
7000
E000
FFF8
FFF8
ENDCHAR
STARTCHAR 04CB
ENCODING 1227
SWIDTH 508 0
DWIDTH 12 0
BBX 10 12 1 0
BITMAP
FFC0
FFC0
0380
0300
0600
7F80
1800
3800
7000
E000
FFC0
FFC0
ENDCHAR
STARTCHAR 04CC
ENCODING 1228
SWIDTH 550 0
DWIDTH 13 0
BBX 11 14 1 -1
BITMAP
1F00
3F80
71C0
E0E0
C060
C060
FFE0
C060
C060
C0E0
E0C0
71C0
7F80
1F00
ENDCHAR
STARTCHAR 04CD
ENCODING 1229
SWIDTH 592 0
DWIDTH 14 0
BBX 12 18 2 -5
BITMAP
DF00
FF80
E180
C1C0
C1C0
C1C0
C1C0
C1C0
C1C0
C1C0
C1C0
C1C0
C1C0
01C0
01C0
01C0
00F0
0070
ENDCHAR
STARTCHAR 04CE
ENCODING 1230
SWIDTH 592 0
DWIDTH 14 0
BBX 13 22 1 -5
BITMAP
0060
0060
0060
0060
1E60
7F60
71E0
E0E0
C0E0
C060
C060
C060
C060
C0E0
E0E0
71E0
7FE0
1EE0
00E0
00E0
0078
0078
ENDCHAR
STARTCHAR 04CF
ENCODING 1231
SWIDTH 550 0
DWIDTH 13 0
BBX 11 17 1 0
BITMAP
7000
7000
C000
C000
CF00
DFC0
F0C0
E0E0
C060
C060
C060
C060
E060
E0E0
F0C0
DFC0
CF00
ENDCHAR
STARTCHAR 04D0
ENCODING 1232
SWIDTH 592 0
DWIDTH 14 0
BBX 13 18 1 -1
BITMAP
0078
0078
0060
0060
1E60
7F60
71E0
E0E0
C0E0
C060
C060
C060
C060
C0E0
E0E0
71E0
7F60
1E60
ENDCHAR
STARTCHAR 04D1
ENCODING 1233
SWIDTH 592 0
DWIDTH 14 0
BBX 12 20 1 -5
BITMAP
0070
0070
1EE0
7FE0
61E0
C0E0
C0E0
C060
C060
C060
C0E0
C0E0
E1E0
7F60
3EE0
00C0
C0C0
E1C0
7F80
3F00
ENDCHAR
STARTCHAR 04D2
ENCODING 1234
SWIDTH 550 0
DWIDTH 13 0
BBX 11 18 1 0
BITMAP
3800
7800
6000
E000
E000
EF80
FFC0
F0C0
E0C0
60E0
60E0
60E0
60E0
60E0
60E0
60E0
60E0
60E0
ENDCHAR
STARTCHAR 04D3
ENCODING 1235
SWIDTH 592 0
DWIDTH 14 0
BBX 13 23 1 -5
BITMAP
3800
7800
6000
E000
E000
EF80
FFC0
F0C0
60C0
60E0
60E0
60E0
60E0
60E0
60E0
60E0
60E0
60E0
00E0
00E0
00E0
0078
0038
ENDCHAR
STARTCHAR 04D4
ENCODING 1236
SWIDTH 254 0
DWIDTH 6 0
BBX 4 22 2 -5
BITMAP
C0
C0
C0
C0
C0
C0
C0
C0
C0
C0
C0
C0
C0
C0
C0
C0
C0
C0
C0
C0
F0
70
ENDCHAR
STARTCHAR 04D5
ENCODING 1237
SWIDTH 931 0
DWIDTH 22 0
BBX 20 14 1 -1
BITMAP
1F0F80
3F9FC0
71F8E0
E0F070
C06030
C06030
C07FF0
C07FF0
C06030
E0F030
71F860
3FFFE0
1F1FC0
000F80
ENDCHAR
STARTCHAR 04D6
ENCODING 1238
SWIDTH 423 0
DWIDTH 10 0
BBX 8 18 2 -5
BITMAP
1C
1C
1C
1C
1C
1C
1C
1C
1C
1C
3C
EC
CC
0C
0C
0C
0F
07
ENDCHAR
STARTCHAR 04D7
ENCODING 1239
SWIDTH 338 0
DWIDTH 8 0
BBX 6 18 2 -5
BITMAP
DC
FC
E0
C0
C0
C0
C0
C0
C0
C0
C0
C0
C0
C0
C0
C0
F0
70
ENDCHAR
STARTCHAR 04D8
ENCODING 1240
SWIDTH 592 0
DWIDTH 14 0
BBX 13 21 1 -5
BITMAP
0038
0078
0060
1EE0
7FE0
61E0
E0E0
C0E0
C060
C060
C060
C0E0
C0E0
E1E0
7FE0
1EE0
00E0
00E0
00E0
00E0
00E0
ENDCHAR
STARTCHAR 04D9
ENCODING 1241
SWIDTH 592 0
DWIDTH 14 0
BBX 12 20 1 -5
BITMAP
E000
E000
7000
3030
3030
3030
3030
3030
3030
3030
3070
3070
3070
38F0
3FB0
1F30
0030
0030
0030
0030
ENDCHAR
STARTCHAR 04DA
ENCODING 1242
SWIDTH 635 0
DWIDTH 15 0
BBX 14 20 1 -5
BITMAP
E000
E000
7000
3030
3030
3030
3030
3030
3030
3030
3070
3070
3070
30F0
3FB0
1F30
0030
0030
003C
001C
ENDCHAR
ENDFONT
